<svg width="190" height="52" viewBox="0 0 190 52" fill="none" xmlns="http://www.w3.org/2000/svg">
<path d="M9.60135 51.1005C3.94722 51.1005 0 47.1533 0 41.6058V9.49467C0 3.84054 3.94722 0 9.60135 0H180.399C186.053 0 190 3.94722 190 9.49467V41.6058C190 47.26 186.053 51.1005 180.399 51.1005H9.60135Z" fill="url(#paint0_linear_403_208)"/>
<mask id="mask0_403_208" style="mask-type:luminance" maskUnits="userSpaceOnUse" x="4" y="4" width="182" height="43">
<path d="M182.426 4.26726C181.892 4.05389 181.359 4.05389 180.825 4.05389H9.17467C6.40095 4.05389 4.05396 6.29421 4.05396 9.17461V41.8192C4.05396 42.6726 4.26732 43.5261 4.69404 44.2729C5.5475 45.8731 7.2544 46.9399 9.17467 46.9399H180.825C183.706 46.9399 185.946 44.6996 185.946 41.8192V9.06793C185.946 6.82762 184.453 4.90735 182.426 4.26726ZM180.505 7.25434C181.999 7.78775 183.066 9.2813 183.066 11.0949V39.7922C183.066 42.0326 181.359 43.8461 179.225 43.8461H10.9883C9.6014 43.8461 8.32121 43.0994 7.68112 41.9259C7.36108 41.2858 7.14772 40.539 7.14772 39.7922V11.0949C7.14772 8.85457 8.85463 7.04098 10.9883 7.04098H179.119C179.652 7.04098 180.079 7.14766 180.505 7.25434Z" fill="white"/>
</mask>
<g mask="url(#mask0_403_208)">
<path d="M182.426 4.26726C181.892 4.05389 181.359 4.05389 180.825 4.05389H9.17467C6.40095 4.05389 4.05396 6.29421 4.05396 9.17461V41.8192C4.05396 42.6726 4.26732 43.5261 4.69404 44.2729C5.5475 45.8731 7.2544 46.9399 9.17467 46.9399H180.825C183.706 46.9399 185.946 44.6996 185.946 41.8192V9.06793C185.946 6.82762 184.453 4.90735 182.426 4.26726ZM180.505 7.25434C181.999 7.78775 183.066 9.2813 183.066 11.0949V39.7922C183.066 42.0326 181.359 43.8461 179.225 43.8461H10.9883C9.6014 43.8461 8.32121 43.0994 7.68112 41.9259C7.36108 41.2858 7.14772 40.539 7.14772 39.7922V11.0949C7.14772 8.85457 8.85463 7.04098 10.9883 7.04098H179.119C179.652 7.04098 180.079 7.14766 180.505 7.25434Z" fill="#9D9FA2"/>
<path d="M180.506 7.25436C181.999 7.78777 183.066 9.28131 183.066 11.0949V39.7923C183.066 42.0326 181.359 43.8462 179.225 43.8462H10.9886C9.60169 43.8462 8.32151 43.0994 7.68142 41.9259L4.69434 44.1662C5.54779 45.7664 7.25469 46.8332 9.17496 46.8332H180.826C183.706 46.8332 185.946 44.5929 185.946 41.7125V9.06795C185.946 6.82763 184.453 4.90736 182.426 4.26727L180.506 7.25436Z" fill="black"/>
<path d="M9.7081 1.92027C11.095 3.41381 10.5616 6.18754 8.42792 8.32117C6.29429 10.3481 3.41388 10.8815 2.02702 9.49467C0.640161 8.00113 1.17357 5.2274 3.3072 3.09377C5.44083 0.960136 8.32124 0.426727 9.7081 1.92027Z" fill="url(#paint1_radial_403_208)"/>
<path d="M1.38683 46.2998C0.21333 44.9129 1.17346 42.2459 3.52046 40.4323C5.86746 38.512 8.64117 38.192 9.70799 39.5789C10.8815 40.9657 9.92135 43.6328 7.57436 45.4463C5.33404 47.2599 2.56033 47.6867 1.38683 46.2998Z" fill="url(#paint2_radial_403_208)"/>
<path d="M176.985 10.1347C175.598 8.64112 176.452 5.54736 178.905 3.20036C181.359 0.746682 184.559 -8.98782e-05 185.946 1.49345C187.333 2.987 186.48 6.08077 184.026 8.42776C181.466 10.7748 178.372 11.5215 176.985 10.1347Z" fill="url(#paint3_radial_403_208)"/>
</g>
<path d="M182.959 39.8989C182.959 42.1392 181.252 43.9528 179.118 43.9528H10.9883C8.85462 43.9528 7.14771 42.1392 7.14771 39.8989V11.0949C7.14771 8.85454 8.85462 7.04095 10.9883 7.04095H179.118C181.252 7.04095 182.959 8.85454 182.959 11.0949V39.8989Z" fill="black" stroke="black" stroke-width="0.0880821" stroke-miterlimit="10"/>
<path d="M166.424 16.749C166.424 13.8686 168.664 11.6283 171.544 11.6283C174.425 11.6283 176.665 13.8686 176.665 16.749C176.665 19.5227 174.318 21.8697 171.544 21.8697C168.664 21.7631 166.424 19.5227 166.424 16.749ZM175.492 16.749C175.492 14.402 173.785 12.8018 171.544 12.8018C169.304 12.8018 167.597 14.402 167.597 16.749C167.597 18.9893 169.304 20.5896 171.544 20.5896C173.785 20.5896 175.492 18.9893 175.492 16.749ZM174.105 19.3094H172.824L171.651 17.0691H170.798V19.3094H169.624V13.9753H172.184C173.358 13.9753 174.211 14.1887 174.211 15.5755C174.211 16.5356 173.678 16.9624 172.718 17.0691L174.105 19.3094ZM172.184 16.2156C172.824 16.2156 173.145 16.1089 173.145 15.3622C173.145 14.8287 172.504 14.8287 171.971 14.8287H170.798V16.2156H172.184Z" fill="#BCBEC0"/>
<path d="M163.01 16.4289C163.01 16.5356 163.01 19.3094 163.01 19.416L163.97 20.3762C163.97 20.1628 163.97 15.6822 163.97 15.4688L163.01 16.4289Z" fill="#DFDFDF"/>
<path d="M31.5776 31.7911V19.4161L32.5378 20.3762V30.831L31.5776 31.7911Z" fill="#E0E0E0"/>
<mask id="mask1_403_208" style="mask-type:luminance" maskUnits="userSpaceOnUse" x="31" y="19" width="10" height="13">
<path d="M40.8589 24.9635C40.8589 24.8568 40.8589 24.6434 40.8589 24.5367C40.8589 24.43 40.8589 24.2167 40.8589 24.11C40.8589 24.0033 40.8589 23.79 40.7523 23.6833C40.7523 23.5766 40.6456 23.3632 40.6456 23.2565C40.6456 23.1499 40.5389 23.0432 40.5389 22.8298C40.5389 22.7231 40.4322 22.6165 40.4322 22.4031C40.4322 22.2964 40.3255 22.1897 40.3255 22.0831C40.2189 21.8697 40.0055 21.443 40.0055 21.443C39.8988 21.2296 39.6854 21.0162 39.5788 20.9096C39.3654 20.6962 39.2587 20.5895 39.0454 20.4828C38.832 20.3761 38.7253 20.1628 38.5119 20.0561C38.4053 19.9494 38.2986 19.9494 38.1919 19.8427C38.0852 19.8427 37.9785 19.7361 37.8719 19.7361C37.7652 19.7361 37.6585 19.6294 37.5518 19.6294C37.4451 19.6294 37.3384 19.5227 37.1251 19.5227C37.0184 19.5227 36.9117 19.416 36.6984 19.416C36.5917 19.416 36.3783 19.416 36.2716 19.3093C36.1649 19.3093 35.9516 19.3093 35.8449 19.3093C35.6315 19.3093 35.5249 19.3093 35.3115 19.3093H31.6843L32.6445 20.2695H35.3115C35.5249 20.2695 35.6315 20.2695 35.7382 20.2695C35.8449 20.2695 35.9516 20.2695 36.165 20.2695C36.2716 20.2695 36.3783 20.2695 36.485 20.2695C36.5917 20.2695 36.6984 20.2695 36.805 20.3761C36.9117 20.3761 37.0184 20.4828 37.1251 20.4828C37.2318 20.4828 37.3384 20.5895 37.4451 20.5895C37.5518 20.5895 37.6585 20.6962 37.7652 20.6962C37.8719 20.6962 37.9785 20.8029 38.0852 20.8029C38.2986 20.9096 38.4053 21.0162 38.5119 21.1229C38.6186 21.2296 38.832 21.3363 38.9387 21.443C39.0454 21.5496 39.152 21.763 39.2587 21.8697C39.2587 21.8697 39.4721 22.1897 39.5788 22.4031C39.5788 22.5098 39.6854 22.6165 39.6854 22.7231C39.6854 22.8298 39.7921 22.9365 39.7921 23.0432C39.7921 23.1499 39.8988 23.2566 39.8988 23.3632C39.8988 23.4699 39.8988 23.5766 40.0055 23.6833C40.0055 23.79 40.0055 23.8966 40.1122 24.0033C40.1122 24.11 40.1122 24.2167 40.1122 24.43C40.1122 24.5367 40.1122 24.6434 40.1122 24.8568C40.1122 24.9635 40.1122 25.1768 40.1122 25.2835C40.1122 25.4969 40.1122 25.6035 40.1122 25.8169C40.1122 26.0303 40.1122 26.137 40.0055 26.3503C40.0055 26.5637 40.0055 26.6704 39.8988 26.8837C39.8988 27.0971 39.7921 27.2038 39.7921 27.4171C39.7921 27.6305 39.6854 27.7372 39.6854 27.8439C39.5788 27.9505 39.5788 28.1639 39.5788 28.2706C39.4721 28.3773 39.4721 28.5906 39.3654 28.6973C39.2587 28.804 39.2587 28.9107 39.152 29.0174C39.0453 29.124 38.9387 29.3374 38.832 29.4441C38.7253 29.5508 38.6186 29.6574 38.5119 29.7641C38.4053 29.8708 38.1919 29.9775 38.0852 30.0842C37.8719 30.1909 37.7652 30.2975 37.5518 30.2975C37.4451 30.2975 37.3384 30.4042 37.2318 30.4042C37.1251 30.4042 37.0184 30.5109 36.9117 30.5109C36.805 30.5109 36.6984 30.5109 36.5917 30.6176C36.485 30.6176 36.3783 30.6176 36.2716 30.6176C36.1649 30.6176 36.0583 30.6176 35.9516 30.6176C35.8449 30.6176 35.7382 30.6176 35.5249 30.6176C35.4182 30.6176 35.3115 30.6176 35.0981 30.6176C34.9915 30.6176 34.7781 30.6176 34.6714 30.6176H32.5378L31.5776 31.5777H34.5647C34.7781 31.5777 34.8848 31.5777 35.0981 31.5777C35.2048 31.5777 35.4182 31.5777 35.5249 31.5777C35.6315 31.5777 35.8449 31.5777 35.9516 31.5777C36.0583 31.5777 36.1649 31.5777 36.3783 31.5777C36.485 31.5777 36.6984 31.471 36.805 31.471C36.9117 31.471 37.0184 31.3644 37.2318 31.3644C37.3384 31.3644 37.4451 31.2577 37.5518 31.2577C37.6585 31.2577 37.7652 31.151 37.8719 31.151C38.0852 31.0443 38.2986 30.9376 38.5119 30.8309C38.7253 30.7243 38.832 30.6176 39.0454 30.5109C39.2587 30.4042 39.3654 30.1909 39.4721 30.0842C39.5788 29.8708 39.7921 29.7641 39.8988 29.5508C40.0055 29.4441 40.0055 29.2307 40.1122 29.124C40.2188 29.0174 40.2189 28.804 40.3255 28.6973C40.4322 28.5906 40.4322 28.3773 40.5389 28.1639C40.6456 27.9505 40.6456 27.8439 40.6456 27.6305C40.7523 27.4171 40.7523 27.3105 40.7523 27.0971C40.7523 26.8837 40.8589 26.6704 40.8589 26.5637C40.8589 26.3503 40.8589 26.137 40.8589 25.9236C40.8589 25.7102 40.8589 25.4969 40.8589 25.2835C40.8589 25.2835 40.8589 25.0701 40.8589 24.9635Z" fill="white"/>
</mask>
<g mask="url(#mask1_403_208)">
<path d="M40.9656 19.4158H31.5776V31.7909H40.9656V19.4158Z" fill="url(#paint4_linear_403_208)"/>
</g>
<path d="M54.9412 24.0034V19.4161L55.9013 20.3762V23.0433L54.9412 24.0034Z" fill="#DFDFDF"/>
<path d="M54.9412 31.7912V26.9905L55.9013 27.9506V30.831L54.9412 31.7912Z" fill="#DFDFDF"/>
<path d="M67.8495 35.7383H68.0628L67.1027 34.7782H50.247L49.2869 35.7383H67.8495Z" fill="#9E9E9E"/>
<path d="M77.9844 35.7383L77.0242 34.7782H72.3302L71.2634 35.7383H77.9844Z" fill="#9E9E9E"/>
<path d="M97.9341 35.7383L96.9739 34.7782H92.28L91.3198 35.7383H97.9341Z" fill="#9E9E9E"/>
<path d="M122.15 35.7383L120.657 34.7782H115.109L114.363 35.7383H122.15Z" fill="#9E9E9E"/>
<path d="M99.6409 35.7383L101.028 34.7782H106.682L107.429 35.7383H99.6409Z" fill="#9E9E9E"/>
<path d="M55.9013 23.0433L54.9412 24.0034H65.8227L66.7828 23.0433H55.9013Z" fill="#DADADA"/>
<path d="M77.9843 23.6833L77.0242 24.6434H86.7322L87.6923 23.6833H77.9843Z" fill="#DADADA"/>
<path d="M56.008 27.9506H55.9013L54.9412 26.9905H65.8227L66.7828 27.9506H56.008Z" fill="#9E9E9E"/>
<path d="M67.743 20.3762L66.7828 19.4161H54.9412L55.9013 20.3762H67.743Z" fill="#9F9F9F"/>
<path d="M88.5458 20.3762L87.5857 19.4161H77.0242L77.9843 20.3762H88.5458Z" fill="#9F9F9F"/>
<path d="M87.6923 28.5906L86.7322 27.6305H77.0242L77.9843 28.5906H87.6923Z" fill="#9F9F9F"/>
<path d="M67.1029 31.7912L68.063 30.8311H55.9013L54.9412 31.7912H67.1029Z" fill="#DADADA"/>
<path d="M66.7827 16.4289C66.7827 16.5356 66.7827 19.3094 66.7827 19.416L67.7428 20.3762C67.7428 20.1628 67.7428 15.6822 67.7428 15.4688L66.7827 16.4289Z" fill="#DFDFDF"/>
<path d="M87.5859 16.4289C87.5859 16.5356 87.5859 19.3094 87.5859 19.416L88.5461 20.3762C88.5461 20.1628 88.5461 15.6822 88.5461 15.4688L87.5859 16.4289Z" fill="#DFDFDF"/>
<path d="M86.7322 24.6434C86.7322 24.7501 86.7322 27.5238 86.7322 27.6305L87.6923 28.5906C87.6923 28.3773 87.6923 23.8967 87.6923 23.6833L86.7322 24.6434Z" fill="#DFDFDF"/>
<path d="M66.7827 23.0433L65.8225 24.0034V26.9905L66.7827 27.9506V23.0433Z" fill="#DFDFDF"/>
<path d="M67.103 34.7783L68.0632 35.7384V30.8311L67.103 31.7912V34.7783Z" fill="#DFDFDF"/>
<path d="M77.0242 24.6435V19.4161L77.9843 20.3762V23.6833L77.0242 24.6435Z" fill="#DFDFDF"/>
<path d="M77.0242 34.7782V27.6305L77.9843 28.5906V35.7383L77.0242 34.7782Z" fill="#DFDFDF"/>
<path d="M91.2129 15.4688L92.2797 16.4289H96.9737V34.7782L97.9338 35.7383V15.4688H91.2129Z" fill="#DFDFDF"/>
<path d="M143.38 15.4688L142.42 16.4289V34.7782L143.38 35.7383V15.4688Z" fill="#DDDDDD"/>
<path d="M138.046 35.7383L138.473 34.7782H142.42L143.38 35.7383H138.046Z" fill="#9E9E9E"/>
<path d="M137.94 16.4289L136.979 15.4688H143.38L142.42 16.4289H137.94Z" fill="#DBDBDB"/>
<path d="M137.94 16.4289L136.979 15.4688V25.6036L137.94 28.5907V16.4289Z" fill="#9D9D9D"/>
<path d="M130.258 25.4969L129.298 22.6165L138.473 34.7782L138.046 35.7384L130.258 25.4969Z" fill="#8D8D8D"/>
<path d="M128.765 16.4289L129.191 15.4688L136.979 25.6036L137.939 28.5907L128.765 16.4289Z" fill="#E6E6E6"/>
<path d="M128.765 16.4289L129.298 15.4688C129.192 15.4688 124.071 15.4688 123.964 15.4688L124.924 16.4289H128.765Z" fill="#DADADA"/>
<path d="M115.11 34.7782L114.363 35.7383L111.909 27.3105L113.083 27.6305L115.11 34.7782Z" fill="#929292"/>
<mask id="mask2_403_208" style="mask-type:luminance" maskUnits="userSpaceOnUse" x="107" y="21" width="8" height="7">
<path d="M114.149 24.4301C114.149 24.3234 114.149 24.2167 114.043 24.11C114.043 24.0034 113.936 23.8967 113.936 23.79C113.829 23.5766 113.723 23.3633 113.616 23.1499C113.509 22.9365 113.403 22.8299 113.189 22.6165C112.976 22.5098 112.869 22.2965 112.656 22.1898C112.443 22.0831 112.336 21.9764 112.122 21.8697C111.909 21.763 111.696 21.6564 111.482 21.6564C111.269 21.6564 111.056 21.5497 110.842 21.5497C110.629 21.5497 110.416 21.5497 110.202 21.6564C109.989 21.6564 109.775 21.763 109.562 21.8697C109.349 21.9764 109.135 22.0831 109.029 22.1898C108.815 22.2965 108.709 22.5098 108.495 22.6165C108.389 22.7232 108.175 22.9365 108.069 23.1499C107.962 23.3633 107.855 23.5766 107.749 23.79C107.749 23.8967 107.642 24.0034 107.642 24.11C107.642 24.2167 107.642 24.3234 107.535 24.4301C107.535 24.5368 107.535 24.6435 107.535 24.7501C107.535 24.8568 107.535 24.9635 107.535 25.0702C107.535 25.1769 107.535 25.2835 107.535 25.3902C107.535 25.4969 107.535 25.6036 107.642 25.7103C107.642 25.8169 107.749 25.9236 107.749 26.0303C107.749 26.137 107.855 26.2437 107.855 26.3504C107.962 26.5637 108.069 26.7771 108.175 26.9904C108.282 27.2038 108.495 27.4172 108.602 27.5239L109.669 27.2038C109.455 26.9904 109.242 26.7771 109.029 26.5637C108.922 26.3504 108.709 26.137 108.709 26.0303L108.602 25.8169C108.602 25.7103 108.495 25.6036 108.495 25.6036V25.3902V25.1769C108.495 25.0702 108.495 24.9635 108.495 24.8568C108.495 24.7501 108.495 24.6434 108.495 24.5368L108.602 24.3234L108.709 24.11C108.709 24.0034 108.815 23.79 108.922 23.6833C109.029 23.5766 109.135 23.47 109.135 23.3633C109.242 23.2566 109.349 23.1499 109.455 23.0432C109.562 22.9365 109.669 22.9365 109.882 22.8299C109.989 22.7232 110.202 22.7232 110.309 22.7232C110.416 22.7232 110.629 22.6165 110.842 22.6165C111.056 22.6165 111.162 22.6165 111.376 22.7232C111.589 22.7232 111.696 22.8299 111.802 22.8299C111.909 22.9365 112.122 22.9365 112.229 23.0432C112.336 23.1499 112.443 23.2566 112.549 23.3633C112.656 23.47 112.763 23.5766 112.763 23.6833C112.869 23.79 112.869 24.0034 112.976 24.11L113.083 24.3234V24.5368C113.083 24.6434 113.083 24.7501 113.083 24.8568C113.083 24.9635 113.083 25.0702 113.083 25.1769C113.083 25.2835 113.083 25.3902 113.083 25.4969C113.083 25.6036 113.083 25.7103 113.083 25.7103C113.083 25.8169 112.976 25.9236 112.976 26.0303L112.869 26.2437C112.763 26.457 112.656 26.5637 112.443 26.7771C112.229 26.9904 112.122 27.2038 111.802 27.4172L112.869 27.7372C112.976 27.6305 113.189 27.4172 113.296 27.2038C113.403 26.9904 113.509 26.7771 113.616 26.5637C113.723 26.457 113.723 26.3504 113.723 26.2437C113.723 26.137 113.829 26.0303 113.829 25.9236C113.829 25.8169 113.936 25.7103 113.936 25.6036C113.936 25.4969 113.936 25.3902 113.936 25.1769C113.936 25.0702 113.936 24.9635 113.936 24.8568C114.149 24.6434 114.149 24.5368 114.149 24.4301Z" fill="white"/>
</mask>
<g mask="url(#mask2_403_208)">
<path d="M117.136 23.79L111.802 30.7243L104.761 25.4969L110.095 18.5626L117.136 23.79Z" fill="url(#paint5_linear_403_208)"/>
</g>
<mask id="mask3_403_208" style="mask-type:luminance" maskUnits="userSpaceOnUse" x="25" y="15" width="22" height="21">
<path d="M25.9236 35.7383H37.3385C40.0056 35.5249 46.7265 34.9915 46.5131 24.7501C46.2998 15.3621 39.0454 15.4688 37.1252 15.4688C36.0583 15.4688 28.5906 15.4688 25.9236 15.4688L26.8837 16.4289C29.2307 16.4289 35.845 16.4289 36.6984 16.4289C38.6187 16.4289 45.3396 16.5356 45.4463 24.7501C45.6597 34.0314 39.5788 34.6715 35.9517 34.6715H26.777L25.9236 35.7383Z" fill="white"/>
</mask>
<g mask="url(#mask3_403_208)">
<path d="M46.7265 15.3623H25.9236V35.7385H46.7265V15.3623Z" fill="url(#paint6_linear_403_208)"/>
</g>
<path d="M26.8837 16.4289V34.7782L25.9236 35.7383V15.4688L26.8837 16.4289Z" fill="#959595"/>
<path d="M50.247 16.4289V34.7782L49.2869 35.7383V15.4688L50.247 16.4289Z" fill="#959595"/>
<path d="M72.3302 16.4289V34.7782L71.2634 35.7383V15.4688L72.3302 16.4289Z" fill="#959595"/>
<path d="M92.2797 16.4289V34.7782L91.3196 35.7383L91.2129 15.4688L92.2797 16.4289Z" fill="#959595"/>
<path d="M130.259 35.7383L129.298 34.7782H124.818L123.858 35.7383H130.259Z" fill="#9E9E9E"/>
<path d="M157.996 35.7383L157.035 34.7782H152.341L151.381 35.7383H157.996Z" fill="#9E9E9E"/>
<path d="M124.818 16.4289V34.7782L123.858 35.7383V15.4688L124.818 16.4289Z" fill="#959595"/>
<path d="M49.5002 15.4688H49.2869L50.247 16.4289H66.7827L67.7428 15.4688H49.5002Z" fill="#DADADA"/>
<path d="M71.2634 15.4688L72.3302 16.4289H87.5857L88.5459 15.4688H71.2634Z" fill="#DADADA"/>
<path d="M107.322 15.4688L108.069 16.4289L101.028 34.7782L99.6409 35.7383L107.322 15.4688Z" fill="#A6A6A6"/>
<path d="M114.576 15.4688C114.47 15.4688 107.429 15.4688 107.322 15.4688L107.962 16.4289H113.83L120.657 34.7782L122.044 35.7383L114.576 15.4688Z" fill="#DFDFDF"/>
<path d="M106.681 34.7782L107.428 35.7383L109.882 27.3105L108.815 27.6305L106.681 34.7782Z" fill="#D4D4D4"/>
<path d="M129.298 34.7782L130.258 35.7384V25.4969L129.298 22.6165V34.7782Z" fill="#DDDDDD"/>
<path d="M145.301 15.4688L146.261 16.4289H163.01L163.97 15.4688H145.301Z" fill="#DADADA"/>
<path d="M163.969 20.3762L163.009 19.4161H157.035L157.995 20.3762H163.969Z" fill="#9F9F9F"/>
<path d="M157.035 19.4161C157.035 19.5228 157.035 34.6716 157.035 34.7782L157.995 35.7384C157.995 35.525 157.995 20.5896 157.995 20.3762L157.035 19.4161Z" fill="#DFDFDF"/>
<path d="M152.341 19.4161C152.341 19.5228 152.341 34.6716 152.341 34.7782L151.381 35.7384C151.381 35.525 151.381 20.5896 151.381 20.3762L152.341 19.4161Z" fill="#DFDFDF"/>
<path d="M145.301 20.3762L146.261 19.4161H152.342L151.381 20.3762H145.301Z" fill="#9F9F9F"/>
<path d="M146.261 16.4289C146.261 16.5356 146.261 19.3094 146.261 19.416L145.301 20.3762C145.301 20.1628 145.301 15.6822 145.301 15.4688L146.261 16.4289Z" fill="#DFDFDF"/>
<mask id="mask4_403_208" style="mask-type:luminance" maskUnits="userSpaceOnUse" x="26" y="16" width="138" height="19">
<path d="M26.8835 16.4289C29.2305 16.4289 35.8448 16.4289 36.6983 16.4289C38.6185 16.4289 45.3395 16.5356 45.4461 24.8567C45.6595 34.138 39.5786 34.7781 35.9515 34.7781H26.7769V16.4289M34.5646 31.791C37.125 31.791 38.7252 31.151 39.792 29.6574C40.5388 28.5906 40.8588 26.9904 40.8588 25.3901C40.8588 22.9365 39.8987 20.9095 38.2985 20.0561C37.445 19.6293 36.4849 19.416 35.098 19.416H31.4708V31.791H34.5646ZM50.2468 16.4289C50.2468 17.7091 50.2468 33.3913 50.2468 34.7781C51.527 34.7781 65.7156 34.7781 67.1025 34.7781C67.1025 33.9247 67.1025 32.6445 67.1025 31.791C65.8223 31.791 54.9408 31.791 54.9408 31.791V27.0971C54.9408 27.0971 64.5422 27.0971 65.8223 27.0971C65.8223 26.2436 65.8223 24.9634 65.8223 24.11C64.5422 24.11 54.9408 24.11 54.9408 24.11V19.416C54.9408 19.416 65.3956 19.416 66.7825 19.416C66.7825 18.5625 66.7825 17.2823 66.7825 16.4289C65.3956 16.4289 51.527 16.4289 50.2468 16.4289ZM72.3299 16.4289C72.3299 17.7091 72.3299 33.3913 72.3299 34.7781C73.2901 34.7781 76.0638 34.7781 77.0239 34.7781C77.0239 33.6046 77.0239 27.7371 77.0239 27.7371C77.0239 27.7371 85.4518 27.7371 86.7319 27.7371C86.7319 26.8837 86.7319 25.6035 86.7319 24.7501C85.4518 24.7501 77.0239 24.7501 77.0239 24.7501V19.416C77.0239 19.416 86.3052 19.416 87.5854 19.416C87.5854 18.5625 87.5854 17.2823 87.5854 16.4289C86.1985 16.4289 73.6101 16.4289 72.3299 16.4289ZM92.2794 16.4289C92.2794 17.7091 92.2794 34.7781 92.2794 34.7781H96.9734V16.4289C96.9734 16.4289 93.2395 16.4289 92.2794 16.4289ZM108.068 16.4289L101.134 34.7781H106.788C106.788 34.7781 108.708 28.3772 108.922 27.6305C108.282 26.9904 107.855 26.0302 107.855 25.1768C107.855 23.2565 109.348 21.6563 111.055 21.6563C112.869 21.6563 114.256 23.2565 114.256 25.1768C114.256 26.2436 113.722 27.0971 113.082 27.7371C113.296 28.4839 115.109 34.7781 115.109 34.7781H120.763L113.936 16.4289H108.068M137.939 16.4289C137.939 17.7091 137.939 28.5906 137.939 28.5906L128.658 16.4289C128.658 16.4289 125.777 16.4289 124.711 16.4289C124.711 17.7091 124.711 33.3913 124.711 34.7781C125.671 34.7781 128.124 34.7781 129.191 34.7781C129.191 34.3514 129.191 22.7231 129.191 22.7231L138.473 34.7781C138.473 34.7781 141.353 34.7781 142.42 34.7781C142.42 33.498 142.42 17.8158 142.42 16.4289C141.46 16.4289 138.899 16.4289 137.939 16.4289ZM146.26 16.4289C146.26 17.2823 146.26 18.5625 146.26 19.416C147.434 19.416 152.341 19.416 152.341 19.416C152.341 19.416 152.341 33.3913 152.341 34.7781C153.301 34.7781 156.075 34.7781 157.035 34.7781C157.035 33.3913 157.035 19.416 157.035 19.416C157.035 19.416 161.942 19.416 163.009 19.416C163.009 18.5625 163.009 17.2823 163.009 16.4289C161.729 16.4289 147.647 16.4289 146.26 16.4289Z" fill="white"/>
</mask>
<g mask="url(#mask4_403_208)">
<path d="M163.329 16.3223H26.6702V34.7782H163.329V16.3223Z" fill="url(#paint7_linear_403_208)"/>
</g>
<defs>
<linearGradient id="paint0_linear_403_208" x1="37.3959" y1="83.1586" x2="152.635" y2="-32.0806" gradientUnits="userSpaceOnUse">
<stop stop-color="#FFC629"/>
<stop offset="0.1166" stop-color="#FFCB46"/>
<stop offset="0.2454" stop-color="#FFEAB9"/>
<stop offset="0.3742" stop-color="#FFCB46"/>
<stop offset="0.5153" stop-color="#FFC629"/>
<stop offset="0.6748" stop-color="#FFCB46"/>
<stop offset="0.7853" stop-color="#FFEAB9"/>
<stop offset="0.8957" stop-color="#FFCB46"/>
<stop offset="1" stop-color="#FFC629"/>
</linearGradient>
<radialGradient id="paint1_radial_403_208" cx="0" cy="0" r="1" gradientUnits="userSpaceOnUse" gradientTransform="translate(5.86548 5.65723) rotate(-44.1992) scale(5.3917 3.65306)">
<stop stop-color="white"/>
<stop offset="0.2443" stop-color="#E0E0E0"/>
<stop offset="0.7558" stop-color="#A4A4A4"/>
<stop offset="1" stop-color="#8C8C8C"/>
</radialGradient>
<radialGradient id="paint2_radial_403_208" cx="0" cy="0" r="1" gradientUnits="userSpaceOnUse" gradientTransform="translate(5.60663 42.8715) rotate(140.99) scale(5.39264 3.24177)">
<stop offset="0.3543" stop-color="#8F8F8F"/>
<stop offset="0.4395" stop-color="#858585"/>
<stop offset="0.5836" stop-color="#6A6A6A"/>
<stop offset="0.769" stop-color="#3F3F3F"/>
<stop offset="0.9866" stop-color="#040404"/>
<stop offset="1"/>
</radialGradient>
<radialGradient id="paint3_radial_403_208" cx="0" cy="0" r="1" gradientUnits="userSpaceOnUse" gradientTransform="translate(181.449 5.73696) rotate(135.802) scale(6.25278 3.65274)">
<stop offset="0.2362" stop-color="#8F8F8F"/>
<stop offset="0.3431" stop-color="#898989"/>
<stop offset="0.477" stop-color="#7A7A7A"/>
<stop offset="0.6252" stop-color="#606060"/>
<stop offset="0.7838" stop-color="#3D3D3D"/>
<stop offset="0.9489" stop-color="#101010"/>
<stop offset="1"/>
</radialGradient>
<linearGradient id="paint4_linear_403_208" x1="36.2131" y1="19.3813" x2="36.2131" y2="30.1846" gradientUnits="userSpaceOnUse">
<stop stop-color="#8F8F8F"/>
<stop offset="0.4755" stop-color="#919191"/>
<stop offset="0.6471" stop-color="#979797"/>
<stop offset="0.7695" stop-color="#A3A3A3"/>
<stop offset="0.8684" stop-color="#B4B4B4"/>
<stop offset="0.9521" stop-color="#CACACA"/>
<stop offset="1" stop-color="#DADADA"/>
</linearGradient>
<linearGradient id="paint5_linear_403_208" x1="117.703" y1="15.7631" x2="109.259" y2="26.885" gradientUnits="userSpaceOnUse">
<stop stop-color="#5E5E5E"/>
<stop offset="0.4369" stop-color="#606060"/>
<stop offset="0.5946" stop-color="#676767"/>
<stop offset="0.707" stop-color="#727272"/>
<stop offset="0.798" stop-color="#838383"/>
<stop offset="0.8759" stop-color="#999999"/>
<stop offset="0.9436" stop-color="#B4B4B4"/>
<stop offset="1" stop-color="#D1D1D1"/>
</linearGradient>
<linearGradient id="paint6_linear_403_208" x1="36.2898" y1="15.4621" x2="36.2898" y2="35.7163" gradientUnits="userSpaceOnUse">
<stop stop-color="#DADADA"/>
<stop offset="0.5" stop-color="#E4E4E4"/>
<stop offset="1" stop-color="#9E9E9E"/>
</linearGradient>
<linearGradient id="paint7_linear_403_208" x1="26.7104" y1="25.5719" x2="163.362" y2="25.5719" gradientUnits="userSpaceOnUse">
<stop stop-color="#FFC629"/>
<stop offset="0.3558" stop-color="#FFE19B"/>
<stop offset="0.6258" stop-color="#FFE19B"/>
<stop offset="1" stop-color="#FFC629"/>
</linearGradient>
</defs>
</svg>
