<svg width="190" height="31" viewBox="0 0 190 31" fill="none" xmlns="http://www.w3.org/2000/svg">
<path d="M30.4084 2.97916e-05H13.4356C2.00349 2.97916e-05 0 14.3859 0 14.3859L3.20901 14.4084C3.23583 13.3702 4.00161 11.7003 4.00161 11.7003C5.49994 8.15449 8.72826 8.6028 8.72826 8.6028H22.5189C21.649 10.9066 19.371 11.3463 19.371 11.3463H8.49981C6.34188 11.3463 5.60183 13.634 5.40556 14.4213L17.9134 14.5049C31.5925 12.5057 30.4084 2.97916e-05 30.4084 2.97916e-05Z" fill="white"/>
<path d="M17.0426 16.7348H5.40561C5.59652 17.5145 6.33013 19.8226 8.49987 19.8226H19.371C19.371 19.8226 21.6491 20.2667 22.5179 22.5705H8.72832C8.72832 22.5705 5.49999 23.0134 4.00167 19.473C4.00167 19.473 3.21872 17.7655 3.21121 16.7348H0.528812C0.528812 16.7348 -0.615579 28.3761 12.687 30.2509L30.1178 30.135C30.1178 30.135 28.1669 16.7348 17.0426 16.7348Z" fill="white"/>
<path d="M33.335 16.1566C33.335 10.7382 36.1675 7.86057 41.661 7.86057H48.034V11.3066H42.2584C39.4698 11.3066 38.2622 11.7882 38.1646 14.417H48.034V17.878H38.1646C38.2622 20.614 39.3948 20.9605 42.2273 20.9605H48.034V24.4247H41.661C36.1675 24.4247 33.335 21.59 33.335 16.1566Z" fill="white"/>
<path d="M64.5158 20.8762V24.4252H58.574C55.8498 24.4252 53.8924 23.949 52.3523 22.4368C50.8529 20.9599 49.8833 18.7001 49.8833 16.2193C49.8833 13.6055 50.8185 11.306 52.3523 9.83773C53.8924 8.36515 55.8498 7.85999 58.574 7.85999H64.5158V11.4401H59.8675C56.1308 11.4401 54.4652 12.3829 54.4652 16.2193C54.4652 18.1885 55.0626 19.5227 56.4107 20.3378C57.2827 20.8762 58.3724 20.8762 59.8675 20.8762H64.5158Z" fill="white"/>
<path d="M75.0694 21.1486C77.6585 21.1486 79.292 19.3596 79.292 16.157C79.292 12.9523 77.695 11.1472 75.0694 11.1472C72.5415 11.1472 70.9134 12.9523 70.9134 16.157C70.9134 19.3596 72.5157 21.1486 75.0694 21.1486ZM75.1123 24.7029C69.7003 24.7029 66.3208 21.2848 66.3208 16.157C66.3208 10.996 69.7003 7.57783 75.1123 7.57783C80.4911 7.57783 83.8953 10.996 83.8953 16.157C83.8953 21.2848 80.5587 24.7029 75.1123 24.7029Z" fill="white"/>
<path d="M95.5321 20.96C97.0777 20.96 97.8788 20.5245 97.8788 19.3598C97.8788 18.1886 97.0777 17.7177 95.5321 17.7177H91.7429C87.7198 17.7177 86.0081 16.9069 86.0081 13.0383C86.0081 9.4914 87.8796 7.86008 91.8727 7.86008H101.267V11.3061H93.5383C91.5402 11.3061 90.5266 11.4402 90.5266 12.8248C90.5266 13.8609 91.1809 14.2985 92.5891 14.2985H96.5543C100.196 14.2985 102.124 16.0521 102.124 19.2364C102.124 22.3446 100.196 24.4243 97.5796 24.4243H86.2987V20.96H95.5321Z" fill="white"/>
<path d="M122.009 7.86026C126.809 7.86026 128.914 9.55272 128.914 13.9179V24.4244H124.516V14.4842C124.516 12.0968 123.992 11.4983 121.683 11.4983H119.223V24.4244H114.76V11.4983H109.64V24.4244H105.222V7.86026H122.009Z" fill="white"/>
<path d="M144.432 21.0962V17.6609H139.275C137.427 17.6609 136.582 18.0352 136.582 19.5228C136.582 20.9032 137.37 21.0962 138.977 21.0962H144.432ZM142.115 7.86011C146.632 7.86011 148.931 9.96334 148.931 14.0518V24.4254H137.171C133.87 24.4254 132.05 22.6986 132.05 19.6429C132.05 15.8022 134.04 14.3639 138.66 14.3639H144.409V13.9446C144.409 11.8489 143.21 11.2815 140.444 11.2815H133.138V7.86011H142.115Z" fill="white"/>
<path d="M160.134 7.86026C163.582 7.86026 164.792 8.95317 164.792 12.0485V14.7953H160.597V12.6566C160.597 11.1851 160.096 11.0307 158.676 11.0307H157.15V24.4244H152.779V7.86026H160.134Z" fill="white"/>
<path d="M168.995 7.86026V1.8498H173.37V7.86026H177.992V11.1465H173.37V17.8638C173.37 20.1493 173.974 21.1168 176.203 21.1168H177.992V24.4244H174C170.817 24.4244 168.995 22.6333 168.995 19.2355V11.1465H165.912V7.86026H168.995Z" fill="white"/>
<path d="M184.464 21.3329H183.361V20.9479H186.025V21.3329H184.935V24.5419H184.464V21.3329Z" fill="white"/>
<path d="M189.453 22.9606C189.423 22.4575 189.401 21.8483 189.401 21.4086H189.388C189.261 21.8312 189.11 22.2795 188.931 22.7761L188.297 24.5254H187.949L187.359 22.8072C187.19 22.2924 187.048 21.8398 186.945 21.4086H186.94C186.92 21.8483 186.897 22.4575 186.865 22.9981L186.769 24.5425H186.325L186.584 20.9474H187.176L187.787 22.6774C187.935 23.1279 188.058 23.5236 188.148 23.8947H188.154C188.252 23.5279 188.387 23.1386 188.542 22.6774L189.192 20.9474H189.775L190 24.5425H189.548L189.453 22.9606Z" fill="white"/>
<path d="M30.4084 2.97916e-05H13.4356C2.00349 2.97916e-05 0 14.3859 0 14.3859L3.20901 14.4084C3.23583 13.3702 4.00161 11.7003 4.00161 11.7003C5.49994 8.15449 8.72826 8.6028 8.72826 8.6028H22.5189C21.649 10.9066 19.371 11.3463 19.371 11.3463H8.49981C6.34188 11.3463 5.60183 13.634 5.40556 14.4213L17.9134 14.5049C31.5925 12.5057 30.4084 2.97916e-05 30.4084 2.97916e-05Z" fill="#1097AE"/>
<path d="M17.0426 16.7348H5.40561C5.59652 17.5145 6.33013 19.8226 8.49987 19.8226H19.371C19.371 19.8226 21.6491 20.2667 22.5179 22.5705H8.72832C8.72832 22.5705 5.49999 23.0134 4.00167 19.473C4.00167 19.473 3.21872 17.7655 3.21121 16.7348H0.528812C0.528812 16.7348 -0.615579 28.3761 12.687 30.2509L30.1178 30.135C30.1178 30.135 28.1669 16.7348 17.0426 16.7348Z" fill="#1097AE"/>
<path d="M33.335 16.1566C33.335 10.7382 36.1675 7.86057 41.661 7.86057H48.034V11.3066H42.2584C39.4698 11.3066 38.2622 11.7882 38.1646 14.417H48.034V17.878H38.1646C38.2622 20.614 39.3948 20.9605 42.2273 20.9605H48.034V24.4247H41.661C36.1675 24.4247 33.335 21.59 33.335 16.1566Z" fill="#1097AE"/>
<path d="M64.5158 20.8762V24.4252H58.574C55.8498 24.4252 53.8924 23.949 52.3523 22.4368C50.8529 20.9599 49.8833 18.7001 49.8833 16.2193C49.8833 13.6055 50.8185 11.306 52.3523 9.83773C53.8924 8.36515 55.8498 7.85999 58.574 7.85999H64.5158V11.4401H59.8675C56.1308 11.4401 54.4652 12.3829 54.4652 16.2193C54.4652 18.1885 55.0626 19.5227 56.4107 20.3378C57.2827 20.8762 58.3724 20.8762 59.8675 20.8762H64.5158Z" fill="#1097AE"/>
<path d="M75.0694 21.1486C77.6585 21.1486 79.292 19.3596 79.292 16.157C79.292 12.9523 77.695 11.1472 75.0694 11.1472C72.5415 11.1472 70.9134 12.9523 70.9134 16.157C70.9134 19.3596 72.5157 21.1486 75.0694 21.1486ZM75.1123 24.7029C69.7003 24.7029 66.3208 21.2848 66.3208 16.157C66.3208 10.996 69.7003 7.57783 75.1123 7.57783C80.4911 7.57783 83.8953 10.996 83.8953 16.157C83.8953 21.2848 80.5587 24.7029 75.1123 24.7029Z" fill="#1097AE"/>
<path d="M95.5321 20.96C97.0777 20.96 97.8788 20.5245 97.8788 19.3598C97.8788 18.1886 97.0777 17.7177 95.5321 17.7177H91.7429C87.7198 17.7177 86.0081 16.9069 86.0081 13.0383C86.0081 9.4914 87.8796 7.86008 91.8727 7.86008H101.267V11.3061H93.5383C91.5402 11.3061 90.5266 11.4402 90.5266 12.8248C90.5266 13.8609 91.1809 14.2985 92.5891 14.2985H96.5543C100.196 14.2985 102.124 16.0521 102.124 19.2364C102.124 22.3446 100.196 24.4243 97.5796 24.4243H86.2987V20.96H95.5321Z" fill="#1097AE"/>
<path d="M122.009 7.86026C126.809 7.86026 128.914 9.55272 128.914 13.9179V24.4244H124.516V14.4842C124.516 12.0968 123.992 11.4983 121.683 11.4983H119.223V24.4244H114.76V11.4983H109.64V24.4244H105.222V7.86026H122.009Z" fill="#1097AE"/>
<path d="M144.432 21.0962V17.6609H139.275C137.427 17.6609 136.582 18.0352 136.582 19.5228C136.582 20.9032 137.37 21.0962 138.977 21.0962H144.432ZM142.115 7.86011C146.632 7.86011 148.931 9.96334 148.931 14.0518V24.4254H137.171C133.87 24.4254 132.05 22.6986 132.05 19.6429C132.05 15.8022 134.04 14.3639 138.66 14.3639H144.409V13.9446C144.409 11.8489 143.21 11.2815 140.444 11.2815H133.138V7.86011H142.115Z" fill="#1097AE"/>
<path d="M160.134 7.86026C163.582 7.86026 164.792 8.95317 164.792 12.0485V14.7953H160.597V12.6566C160.597 11.1851 160.096 11.0307 158.676 11.0307H157.15V24.4244H152.779V7.86026H160.134Z" fill="#1097AE"/>
<path d="M168.995 7.86026V1.8498H173.37V7.86026H177.992V11.1465H173.37V17.8638C173.37 20.1493 173.974 21.1168 176.203 21.1168H177.992V24.4244H174C170.817 24.4244 168.995 22.6333 168.995 19.2355V11.1465H165.912V7.86026H168.995Z" fill="#1097AE"/>
<path d="M184.464 21.3329H183.361V20.9479H186.025V21.3329H184.935V24.5419H184.464V21.3329Z" fill="#1097AE"/>
<path d="M189.453 22.9606C189.423 22.4575 189.401 21.8483 189.401 21.4086H189.388C189.261 21.8312 189.11 22.2795 188.931 22.7761L188.297 24.5254H187.949L187.359 22.8072C187.19 22.2924 187.048 21.8398 186.945 21.4086H186.94C186.92 21.8483 186.897 22.4575 186.865 22.9981L186.769 24.5425H186.325L186.584 20.9474H187.176L187.787 22.6774C187.935 23.1279 188.058 23.5236 188.148 23.8947H188.154C188.252 23.5279 188.387 23.1386 188.542 22.6774L189.192 20.9474H189.775L190 24.5425H189.548L189.453 22.9606Z" fill="#1097AE"/>
</svg>
