<svg width="190" height="34" viewBox="0 0 190 34" fill="none" xmlns="http://www.w3.org/2000/svg">
<g clip-path="url(#clip0_408_2)">
<mask id="mask0_408_2" style="mask-type:luminance" maskUnits="userSpaceOnUse" x="0" y="0" width="190" height="34">
<path d="M190 0H0V34H190V0Z" fill="white"/>
</mask>
<g mask="url(#mask0_408_2)">
<g filter="url(#filter0_d_408_2)">
<path d="M193.791 30.9296H8.31624C6.81659 30.9296 5.5896 29.7147 5.5896 28.2304V6.61353C5.5896 5.1292 6.81659 3.91425 8.31624 3.91425H193.791" fill="url(#paint0_linear_408_2)"/>
</g>
<path d="M43.7122 10.7406C40.0779 10.7406 38.1581 13.0764 38.1581 17.4935C38.1581 21.5246 40.218 24.1278 43.404 24.1278C44.3976 24.1278 45.1539 24.0185 45.6563 23.8038V18.4825H42.3825V16.8135H48.4558V24.9811L48.3699 25.0225C47.2344 25.5688 45.9589 25.9361 43.4321 25.9361C39.4486 25.9361 35.1924 23.6682 35.1924 17.3033C35.1924 11.5035 39.3309 8.90594 43.4321 8.90594C45.8804 8.90594 47.3185 9.37874 48.0561 9.77619V11.7823C46.1083 10.7143 43.7122 10.7387 43.7122 10.7387V10.7406ZM54.5552 9.14517H51.6717V25.7006H60.3466L60.9031 23.9394H54.5552V9.14329V9.14517ZM71.2923 9.14517L77.9035 25.7006H74.9098L73.0908 20.8314H66.7056L64.8306 25.7006H62.1487L68.7861 9.14517H71.2923ZM69.4864 13.2666L67.2659 19.2359H72.566L70.3978 13.2666C70.1718 12.6563 70.0317 12.1797 69.9495 11.8482C69.858 12.1797 69.7142 12.6563 69.4864 13.2685V13.2666ZM89.7774 23.3404C88.5673 23.8 87.7642 24.0656 86.1488 24.011C81.4799 23.8509 81.1157 18.9684 81.1157 17.4238C81.1157 15.8792 81.478 10.7425 86.1805 10.7425C87.1741 10.7425 88.0948 10.9516 88.9221 11.3622L89.7737 11.7861V9.8327C88.7372 9.2224 87.344 8.9116 85.7099 8.9116C81.153 8.9116 77.9707 12.4133 77.9707 17.4257C77.9707 22.4381 81.0802 25.9399 85.7099 25.9399C87.3347 25.9399 88.8268 25.6027 89.7774 25.015V23.3404ZM92.8589 25.7006H95.7424V9.14329H92.8589V25.6987V25.7006ZM99.1563 25.7006H108.39V23.9394H102.038V18.021H107.747V16.2823H102.038V10.9064H108.39V9.14517H99.1563V25.7006ZM152.996 9.14329L159.606 25.6987H156.616L154.797 20.8295H148.409L146.536 25.6987H143.851L150.49 9.14329H152.996ZM151.188 13.2647L148.968 19.234H154.268L152.102 13.2647C151.876 12.6544 151.736 12.1779 151.653 11.8463C151.564 12.1779 151.418 12.6544 151.19 13.2666L151.188 13.2647ZM167.573 9.14329L163.667 16.3671L159.899 9.14329H156.771L162.11 18.3807V25.6987H164.993V18.3826L170.391 9.14329H167.571H167.573ZM120.857 25.6987L116.872 19.072H113.733V25.6987H110.879V9.29209L110.905 9.28079C113.094 9.24689 114.164 9.24689 116.017 9.24689C120.374 9.24689 122.576 10.9422 122.576 14.1482C122.576 16.1599 121.38 17.8062 119.333 18.5842L123.909 25.7006H120.859L120.857 25.6987ZM115.229 17.5557C118.209 17.5557 119.72 16.5724 119.72 14.2405C119.72 11.9085 118.463 10.6257 115.725 10.6257H113.733V17.5595C114.416 17.5708 114.65 17.5557 115.229 17.5557ZM143.027 21.1535C143.027 24.2427 140.906 25.8758 136.705 25.8758C134.92 25.8758 133.891 25.8758 131.779 25.8438L130.296 25.8325V8.90971C130.296 8.90971 134.778 8.90406 135.436 8.90971C139.535 8.94739 142.037 10.2264 142.08 13.1216C142.108 15.0354 140.786 16.1882 139.361 16.7344C139.576 16.7815 139.766 16.8324 139.903 16.8795C141.875 17.6292 143.027 19.2133 143.027 21.1554V21.1535ZM133.015 16.3031H134.119C137.785 16.3031 139.301 15.559 139.359 13.4173C139.412 11.5148 138.646 10.5146 135.813 10.4468C134.911 10.4261 134.022 10.4298 133.015 10.4468V16.3031ZM140.276 20.9256C140.25 18.6784 138.82 17.8665 135.947 17.8665C135.389 17.8665 133.555 17.8533 132.896 17.8627V24.237H136.427C139.066 24.237 140.299 22.9279 140.276 20.9256Z" fill="#53575A"/>
<path d="M169.543 25.3804C169.244 25.6724 168.886 25.8174 168.467 25.8174C168.049 25.8174 167.672 25.6686 167.375 25.3691C167.08 25.0696 166.93 24.7023 166.93 24.2672C166.93 23.832 167.089 23.4384 167.41 23.137C167.711 22.8563 168.064 22.7169 168.467 22.7169C168.891 22.7169 169.253 22.8676 169.554 23.1709C169.855 23.4741 170.004 23.8396 170.004 24.2672C170.004 24.6948 169.851 25.079 169.543 25.3804ZM167.563 23.3687C167.319 23.6211 167.195 23.9206 167.195 24.2672C167.195 24.6138 167.319 24.9321 167.569 25.1826C167.815 25.4332 168.114 25.5594 168.465 25.5594C168.816 25.5594 169.113 25.4332 169.36 25.1807C169.608 24.9264 169.732 24.6232 169.732 24.2672C169.732 23.9112 169.608 23.623 169.362 23.3687C169.113 23.1106 168.815 22.9806 168.465 22.9806C168.116 22.9806 167.812 23.1106 167.563 23.3687ZM167.793 25.1299V23.412C167.899 23.412 168.056 23.412 168.267 23.412C168.478 23.412 168.596 23.412 168.618 23.4158C168.753 23.4252 168.865 23.4553 168.955 23.5043C169.106 23.5891 169.182 23.7247 169.182 23.9149C169.182 24.06 169.141 24.1636 169.063 24.2276C168.983 24.2917 168.884 24.3293 168.768 24.3425C168.876 24.3651 168.956 24.399 169.011 24.4423C169.111 24.5233 169.162 24.6533 169.162 24.8285V24.983C169.162 24.9999 169.162 25.0169 169.166 25.0338C169.168 25.0508 169.173 25.0677 169.179 25.0847L169.194 25.1336H168.768C168.753 25.079 168.745 24.9999 168.74 24.8963C168.734 24.7927 168.725 24.723 168.712 24.6853C168.689 24.6251 168.648 24.5836 168.587 24.5591C168.553 24.546 168.503 24.5365 168.435 24.5328L168.336 24.5271H168.243V25.1355H167.797L167.793 25.1299ZM168.607 23.751C168.546 23.7266 168.46 23.7153 168.35 23.7153H168.241V24.2144H168.415C168.519 24.2144 168.602 24.1937 168.658 24.1523C168.717 24.1108 168.745 24.043 168.745 23.9488C168.745 23.8546 168.701 23.7906 168.607 23.7529V23.751Z" fill="#53575A"/>
<path d="M28.6595 13.1988C26.7023 16.9397 22.3042 17.5463 18.9295 19.3922C16.4755 20.7353 13.2409 22.9768 12.4192 25.9022L25.4286 25.9869C25.4286 25.9869 29.104 25.8212 29.132 21.5509V21.3776L29.1824 13.826L29.1955 11.6956C29.0816 12.2136 28.9116 12.7166 28.6595 13.1969V13.1988Z" fill="#839794"/>
<path d="M14.8956 8.85693C14.8956 8.85693 11.2202 9.0227 11.1941 13.2948L11.1194 24.7512C11.4892 22.0501 13.4296 19.7501 15.5941 17.9964C19.8278 14.5644 27.1972 13.9579 28.37 8.94735L14.8956 8.85882V8.85693Z" fill="#53575A"/>
</g>
</g>
<defs>
<filter id="filter0_d_408_2" x="4.2096" y="2.53425" width="204.801" height="43.6154" filterUnits="userSpaceOnUse" color-interpolation-filters="sRGB">
<feFlood flood-opacity="0" result="BackgroundImageFix"/>
<feColorMatrix in="SourceAlpha" type="matrix" values="0 0 0 0 0 0 0 0 0 0 0 0 0 0 0 0 0 0 127 0" result="hardAlpha"/>
<feOffset dx="6.92" dy="6.92"/>
<feGaussianBlur stdDeviation="4.15"/>
<feColorMatrix type="matrix" values="0 0 0 0 0.137255 0 0 0 0 0.121569 0 0 0 0 0.12549 0 0 0 0.9 0"/>
<feBlend mode="normal" in2="BackgroundImageFix" result="effect1_dropShadow_408_2"/>
<feBlend mode="normal" in="SourceGraphic" in2="effect1_dropShadow_408_2" result="shape"/>
</filter>
<linearGradient id="paint0_linear_408_2" x1="-45.1203" y1="-21.0988" x2="273.871" y2="61.6339" gradientUnits="userSpaceOnUse">
<stop stop-color="#808080"/>
<stop offset="0.02" stop-color="#909090"/>
<stop offset="0.08" stop-color="#AFAFAF"/>
<stop offset="0.14" stop-color="#C8C8C8"/>
<stop offset="0.2" stop-color="#DCDCDC"/>
<stop offset="0.27" stop-color="#EAEAEA"/>
<stop offset="0.37" stop-color="#F2F2F2"/>
<stop offset="0.53" stop-color="#F5F5F5"/>
<stop offset="0.59" stop-color="#F1F1F1"/>
<stop offset="0.64" stop-color="#E6E6E6"/>
<stop offset="0.7" stop-color="#D3D3D3"/>
<stop offset="0.75" stop-color="#B9B9B9"/>
<stop offset="0.8" stop-color="#999999"/>
</linearGradient>
<clipPath id="clip0_408_2">
<rect width="190" height="34" fill="white"/>
</clipPath>
</defs>
</svg>
