<svg width="190" height="20" viewBox="0 0 190 20" fill="none" xmlns="http://www.w3.org/2000/svg">
<path d="M11.9142 18.8905C11.9408 18.4936 12.0994 17.8583 12.2056 17.4881C12.6818 17.3558 13.5028 17.1974 14.059 17.1446V10.1864H4.81872V17.1707C5.34826 17.1974 6.40735 17.2768 7.01642 17.4091C7.12212 17.726 7.14881 18.5992 7.09544 18.8905H0C0.0266864 18.4936 0.185234 17.8583 0.317619 17.4881C0.794311 17.3558 1.80055 17.1974 2.38294 17.1446V2.22276C1.77386 2.1961 0.873848 2.11662 0.423842 2.03766C0.344306 1.69307 0.317619 0.873176 0.370469 0.529113H6.96305C7.04259 0.846509 7.01642 1.66693 6.9102 2.01099C6.3545 2.11662 5.48065 2.1961 4.81872 2.22276V8.4661H14.059V2.22276C13.4499 2.1961 12.5494 2.11662 12.0994 2.03766C12.0204 1.69307 11.9937 0.873176 12.0465 0.529113H18.7187C18.7982 0.846509 18.7715 1.66693 18.6658 2.01099C18.0834 2.11662 17.1829 2.1961 16.4943 2.22276V17.1707C17.2624 17.2235 18.1891 17.303 18.851 17.4358C18.9306 17.726 18.9567 18.0967 18.9567 18.467C18.9567 18.6259 18.9567 18.7054 18.9306 18.8905H11.9142Z" fill="#231F20"/>
<path d="M29.6269 3.12197C29.5207 3.73061 29.1503 4.97405 28.8855 5.66166L26.7673 11.3769H32.6451L30.4741 5.60885C30.236 4.97405 29.8917 3.75676 29.8122 3.12197H29.6269ZM32.8042 18.8903C32.857 18.4673 32.9894 17.8848 33.148 17.4885C33.5985 17.3562 34.5514 17.2239 35.1076 17.1705C34.6838 16.5624 34.3394 15.8215 34.0747 15.1339L33.2275 12.8849H26.2116L25.3378 15.2662C25.0997 15.9538 24.7287 16.668 24.3844 17.2505C25.0201 17.2767 25.9202 17.3562 26.6088 17.4885C26.7145 17.8325 26.8207 18.5735 26.8207 18.8903H20.519C20.5719 18.4406 20.7577 17.8587 20.9429 17.4885C21.3134 17.3562 21.9224 17.2505 22.3458 17.1972L29.1769 0.158734H30.8713L37.4372 17.1444C37.861 17.1705 38.6553 17.2767 39.1053 17.3823C39.2377 17.7792 39.3701 18.4406 39.3963 18.8903H32.8042Z" fill="#231F20"/>
<path d="M46.6782 7.67282C45.9896 5.7674 45.4072 3.91584 45.1958 2.27552H45.01V17.224C45.6191 17.2768 46.3339 17.3563 46.8634 17.488C46.9429 17.7793 46.9696 18.5736 46.9163 18.8904H40.9856C41.0123 18.4936 41.1447 17.9383 41.2771 17.5414C41.7271 17.4091 42.6271 17.2501 43.1566 17.1973V2.22271C42.5475 2.19604 41.6742 2.11656 41.2242 2.0376C41.1447 1.69302 41.118 0.846454 41.1714 0.529058H46.6515L50.5702 11.7205C51.073 13.1496 51.5759 14.7894 51.8145 16.2451H51.9997C52.2912 14.7894 52.7941 13.1496 53.3236 11.7205L57.3742 0.529058H62.7758C62.8553 0.846454 62.8287 1.66687 62.7224 2.01094C62.14 2.11656 61.2662 2.19604 60.5781 2.22271V17.1706C61.3457 17.224 62.2724 17.3029 62.9344 17.4358C63.0139 17.7265 63.0406 18.0972 63.0406 18.4674C63.0406 18.6259 63.0406 18.7059 63.0139 18.8904H56.0508C56.077 18.4936 56.2361 17.8583 56.3418 17.488C56.7918 17.3563 57.7452 17.1973 58.2747 17.1445V2.27552H58.0895C57.8776 3.83636 57.2418 5.87355 56.5537 7.72563L52.3441 19.2345H50.835L46.6782 7.67282Z" fill="#231F20"/>
<path d="M69.7657 9.81569C70.6129 9.89517 71.672 9.94798 72.5987 9.94798C75.0078 9.94798 76.4112 8.78402 76.4112 5.89974C76.4112 3.30724 74.4782 1.93151 71.6987 1.93151C71.1953 1.93151 70.2424 1.98432 69.7657 2.03766V9.81569ZM67.33 2.24891C66.7209 2.24891 65.9271 2.24891 65.3709 2.16943C65.2913 1.82536 65.2646 0.952132 65.318 0.555779C67.6214 0.344008 69.951 0.264526 72.0691 0.264526C75.9612 0.264526 78.9265 2.08995 78.9265 5.76745C78.9265 9.81569 75.8288 11.5883 72.7049 11.5883C71.7782 11.5883 70.7453 11.5093 69.7657 11.377V17.1707C70.6924 17.2235 71.8044 17.303 72.6248 17.4358C72.7311 17.7527 72.7572 18.5992 72.7049 18.8905H64.947C64.9737 18.4936 65.1328 17.8583 65.2646 17.4881C65.7413 17.3558 66.7476 17.1974 67.33 17.1446V2.24891Z" fill="#231F20"/>
<path d="M89.5963 17.1706C90.4173 17.224 91.4236 17.3029 92.1378 17.4357C92.244 17.7526 92.2702 18.5736 92.2174 18.8904H84.5924C84.6191 18.4936 84.8043 17.8582 84.9367 17.488C85.4662 17.3557 86.5253 17.1973 87.1606 17.1445V2.14322H82.8714C82.8185 2.75135 82.6333 3.91583 82.5276 4.39219C82.1299 4.49781 81.4151 4.55062 80.939 4.55062V0.529052H95.8185V4.65625C95.2889 4.65625 94.627 4.57729 94.2031 4.47114C94.0708 3.88916 93.9122 2.80416 93.8588 2.14322H89.5963V17.1706Z" fill="#231F20"/>
<path d="M105.853 17.6471C109.666 17.6471 111.546 14.5249 111.546 9.44497C111.546 5.00038 109.295 1.7459 105.853 1.7459C102.068 1.7459 100.082 4.78861 100.082 9.44497C100.082 14.4193 102.2 17.6471 105.853 17.6471ZM114.167 9.44497C114.167 15.795 110.883 19.4197 105.853 19.4197C100.452 19.4197 97.4602 15.9801 97.4602 9.44497C97.4602 3.59798 101.061 -4.13631e-05 105.853 -4.13631e-05C110.831 -4.13631e-05 114.167 3.36007 114.167 9.44497Z" fill="#231F20"/>
<path d="M128.385 12.7787C128.835 13.5991 129.735 15.7157 129.947 16.6151H130.132V2.22249C129.523 2.19582 128.597 2.11634 128.147 2.03739C128.067 1.69332 128.04 0.846761 128.093 0.529365H133.945C133.971 0.634989 133.998 0.846761 133.998 1.08468C133.998 1.45541 133.945 1.79895 133.891 2.01072C133.389 2.11634 132.621 2.19582 132.012 2.22249V19.0492H129.02L121.289 4.63041C121.024 4.15353 120.627 3.33364 120.362 2.69885H120.177V17.1704C120.918 17.2238 121.845 17.3027 122.481 17.4355C122.586 17.7529 122.613 18.5734 122.56 18.8902H115.835C115.861 18.4939 116.02 17.8586 116.153 17.4884C116.603 17.3561 117.609 17.1971 118.165 17.1448V2.22249C117.556 2.19582 116.656 2.11634 116.206 2.03739C116.126 1.69332 116.099 0.846761 116.153 0.529365H121.739L128.385 12.7787Z" fill="#231F20"/>
<path d="M146.891 17.2238C147.686 17.3027 148.56 17.3294 149.353 17.3294C152.478 17.3294 154.384 16.2449 154.384 13.7052C154.384 11.2183 152.293 10.08 149.486 10.08H146.891V17.2238ZM146.891 8.46635H149.38C151.975 8.46635 153.484 7.56697 153.484 5.13238C153.484 2.98957 151.419 1.85228 148.639 1.85228C148.215 1.85228 147.447 1.85228 146.891 1.90509V8.46635ZM152.822 9.18062C155.285 9.68364 156.899 11.165 156.899 13.4934C156.899 17.4355 153.405 18.9702 149.698 18.9702C147.183 18.9702 144.27 18.9169 142.073 18.8379C142.099 18.4405 142.259 17.7791 142.39 17.4089C142.841 17.2771 143.873 17.1181 144.456 17.0648V2.11634C143.847 2.11634 143.132 2.11634 142.497 2.03738C142.417 1.69332 142.39 0.793943 142.444 0.44988C144.641 0.317588 146.891 0.238107 148.93 0.238107C152.795 0.238107 155.92 1.82561 155.92 5.05343C155.92 7.03781 154.649 8.5725 152.822 9.04833V9.18062Z" fill="#231F20"/>
<path d="M166.166 3.12197C166.061 3.73061 165.69 4.97405 165.425 5.66166L163.307 11.3769H169.185L167.013 5.60885C166.775 4.97405 166.431 3.75676 166.351 3.12197H166.166ZM169.343 18.8903C169.396 18.4673 169.529 17.8848 169.687 17.4885C170.138 17.3562 171.091 17.2239 171.647 17.1705C171.224 16.5624 170.879 15.8215 170.614 15.1339L169.767 12.8849H162.751L161.878 15.2662C161.639 15.9538 161.268 16.668 160.924 17.2505C161.559 17.2767 162.459 17.3562 163.148 17.4885C163.254 17.8325 163.36 18.5735 163.36 18.8903H157.059C157.112 18.4406 157.297 17.8587 157.482 17.4885C157.853 17.3562 158.462 17.2505 158.886 17.1972L165.716 0.158734H167.411L173.977 17.1444C174.4 17.1705 175.195 17.2767 175.645 17.3823C175.777 17.7792 175.909 18.4406 175.936 18.8903H169.343Z" fill="#231F20"/>
<path d="M182 9.94791C182.132 9.49823 182.397 8.86291 182.662 8.36041L184.912 4.04811C185.203 3.49228 185.627 2.75134 186.05 2.22269C185.495 2.19603 184.753 2.11655 184.277 2.01092C184.118 1.56071 184.039 0.925922 184.039 0.529046H189.492C189.492 0.899777 189.413 1.64019 189.307 2.03759C188.936 2.11655 188.433 2.16936 188.036 2.19603L182.688 11.6416V17.1706C183.509 17.224 184.489 17.3029 185.203 17.4357C185.309 17.7526 185.336 18.5992 185.282 18.8904H177.657C177.711 18.4669 177.869 17.8326 178.002 17.488C178.531 17.3557 179.616 17.1973 180.252 17.1445V11.6939L175.46 2.27551C175.063 2.24884 174.427 2.14322 174.031 2.03759C173.898 1.66686 173.792 0.925922 173.792 0.529046H180.438C180.438 0.978734 180.332 1.64019 180.199 2.01092C179.591 2.11655 178.743 2.19603 178.028 2.22269C178.478 2.80415 178.849 3.4128 179.14 4.02145L181.258 8.36041C181.47 8.8101 181.708 9.52437 181.815 9.94791H182Z" fill="#231F20"/>
<path d="M188.513 17.8258C188.73 17.8258 188.881 17.7249 188.881 17.5371C188.881 17.3353 188.694 17.2558 188.419 17.2558C188.376 17.2558 188.318 17.2558 188.261 17.2631V17.8111C188.332 17.8258 188.427 17.8258 188.513 17.8258ZM188.001 17.2919C187.935 17.2919 187.813 17.2846 187.77 17.2773C187.755 17.2417 187.748 17.1476 187.762 17.0969C187.979 17.0827 188.261 17.0754 188.456 17.0754C188.852 17.0754 189.149 17.2124 189.149 17.5225C189.149 17.7609 188.982 17.9194 188.78 17.9628C188.874 18.1426 188.997 18.3377 189.098 18.482L189.307 18.4606C189.307 18.5181 189.286 18.6044 189.256 18.6478C189.156 18.6765 189.047 18.6912 188.925 18.6985C188.794 18.504 188.643 18.2294 188.528 17.9988C188.434 17.9988 188.332 17.9915 188.261 17.9847V18.4679C188.34 18.4747 188.449 18.4961 188.499 18.5113C188.506 18.5468 188.513 18.6195 188.506 18.6624H187.734C187.741 18.6122 187.762 18.5395 187.777 18.5113C187.842 18.4893 187.972 18.4679 188.001 18.4679V17.2919ZM188.477 16.6357C187.734 16.6357 187.243 17.1831 187.243 17.8979C187.243 18.6195 187.734 19.1816 188.484 19.1816C189.228 19.1816 189.718 18.6336 189.718 17.912C189.718 17.1831 189.228 16.6357 188.477 16.6357ZM188.47 19.4195C187.567 19.4195 186.961 18.7926 186.961 17.9047C186.961 17.0252 187.589 16.3904 188.491 16.3904C189.401 16.3904 190 17.0179 190 17.8979C190 18.7706 189.365 19.4195 188.47 19.4195Z" fill="#231F20"/>
</svg>
