<svg width="190" height="65" viewBox="0 0 190 65" fill="none" xmlns="http://www.w3.org/2000/svg">
<path d="M180.325 7.14352H181.143V1.56056H183.061V0.868392H178.417V1.56056H180.325V7.14352Z" fill="white"/>
<path d="M184.537 4.45573C184.592 3.50347 184.637 2.4631 184.655 1.68176H184.678C184.855 2.42595 185.093 3.22321 185.394 4.11708L186.416 7.10443H187.033L188.138 4.06294C188.455 3.19561 188.709 2.40365 188.931 1.68176H188.951C188.951 2.45142 189.005 3.51197 189.051 4.38779L189.201 7.14371H190L189.61 0.868575H188.576L187.458 3.9037C187.178 4.69565 186.958 5.38251 186.79 6.01735H186.768C186.602 5.36552 186.397 4.67654 186.138 3.9037L185.067 0.868575H184.032L183.595 7.14371H184.369L184.537 4.45573Z" fill="white"/>
<path d="M139.816 31.3478L116.274 0.467935H108.014L131.355 31.3754H139.795L139.816 31.3478Z" fill="white"/>
<path d="M141.519 29.1308L163.453 0.467501H155.17L141.755 18.484L128.206 0.467501H119.788L141.519 29.1308Z" fill="white"/>
<path d="M175.272 0.468055H167.454L143.792 31.3755H151.86L175.272 0.468055Z" fill="white"/>
<path d="M53.2799 -3.37362e-05H39.4642V25.5389H13.8138V-3.37362e-05H0.000244141V30.7864H53.2799V-3.37362e-05Z" fill="white"/>
<path d="M73.636 13.0554L83.3571 13.0575C89.7511 13.0702 94.6483 15.1711 98.0433 18.4483C101.233 21.5535 103.119 25.7935 103.333 30.7448H117.419C117.242 22.2191 113.755 14.5225 107.837 9.01278C101.758 3.33533 93.1854 -0.00765407 83.3571 0.00190035H59.8235V30.7448H73.636V13.0554Z" fill="white"/>
<path d="M143.792 31.3757L143.512 31.742L167.959 63.8141H176.177L151.829 31.4171L151.861 31.3757H143.792Z" fill="white"/>
<path d="M131.458 31.509L107.111 63.8146H114.96L139.796 31.3763H131.355L131.458 31.509Z" fill="white"/>
<path d="M141.81 33.9619L118.948 63.8142H127.119L141.506 44.4845L155.894 63.8142H164.402L141.81 33.9619Z" fill="white"/>
<path d="M0.000244141 64.5493H13.8138V39.074H39.4642V64.5493H53.2799V32.9709H0.000244141V64.5493Z" fill="white"/>
<path d="M103.373 33.8416L103.376 33.9966C103.365 39.1751 101.43 43.5458 98.0534 46.7061C94.6712 49.8485 89.7644 51.8645 83.3577 51.8772H73.6355V32.9828H59.823V64.5496H83.3577H83.398C93.2168 64.5496 101.832 61.3095 107.846 55.7117C112.503 51.3761 117.377 42.7708 117.436 33.8416V33.6856C117.436 33.4499 117.423 33.2174 117.418 32.9828H103.333C103.344 33.2694 103.373 33.5518 103.373 33.8416Z" fill="white"/>
<path d="M180.325 7.14352H181.143V1.56056H183.061V0.868392H178.417V1.56056H180.325V7.14352Z" fill="#231F20"/>
<path d="M184.537 4.45573C184.592 3.50347 184.637 2.4631 184.655 1.68176H184.678C184.855 2.42595 185.093 3.22321 185.394 4.11708L186.416 7.10443H187.033L188.138 4.06294C188.455 3.19561 188.709 2.40365 188.931 1.68176H188.951C188.951 2.45142 189.005 3.51197 189.051 4.38779L189.201 7.14371H190L189.61 0.868575H188.576L187.458 3.9037C187.178 4.69565 186.958 5.38251 186.79 6.01735H186.768C186.602 5.36552 186.397 4.67654 186.138 3.9037L185.067 0.868575H184.032L183.595 7.14371H184.369L184.537 4.45573Z" fill="#231F20"/>
<path d="M139.816 31.3478L116.274 0.467935H108.014L131.355 31.3754H139.795L139.816 31.3478Z" fill="#231F20"/>
<path d="M141.519 29.1308L163.453 0.467501H155.17L141.755 18.484L128.206 0.467501H119.788L141.519 29.1308Z" fill="#231F20"/>
<path d="M175.272 0.468055H167.454L143.792 31.3755H151.86L175.272 0.468055Z" fill="#231F20"/>
<path d="M53.2799 -3.37362e-05H39.4642V25.5389H13.8138V-3.37362e-05H0.000244141V30.7864H53.2799V-3.37362e-05Z" fill="#231F20"/>
<path d="M73.636 13.0554L83.3571 13.0575C89.7511 13.0702 94.6483 15.1711 98.0433 18.4483C101.233 21.5535 103.119 25.7935 103.333 30.7448H117.419C117.242 22.2191 113.755 14.5225 107.837 9.01278C101.758 3.33533 93.1854 -0.00765407 83.3571 0.00190035H59.8235V30.7448H73.636V13.0554Z" fill="#231F20"/>
<path d="M143.792 31.3757L143.512 31.742L167.959 63.8141H176.177L151.829 31.4171L151.861 31.3757H143.792Z" fill="#231F20"/>
<path d="M131.458 31.509L107.111 63.8146H114.96L139.796 31.3763H131.355L131.458 31.509Z" fill="#231F20"/>
<path d="M141.81 33.9619L118.948 63.8142H127.119L141.506 44.4845L155.894 63.8142H164.402L141.81 33.9619Z" fill="#231F20"/>
<path d="M0.000244141 64.5493H13.8138V39.074H39.4642V64.5493H53.2799V32.9709H0.000244141V64.5493Z" fill="#231F20"/>
<path d="M103.373 33.8416L103.376 33.9966C103.365 39.1751 101.43 43.5458 98.0534 46.7061C94.6712 49.8485 89.7644 51.8645 83.3577 51.8772H73.6355V32.9828H59.823V64.5496H83.3577H83.398C93.2168 64.5496 101.832 61.3095 107.846 55.7117C112.503 51.3761 117.377 42.7708 117.436 33.8416V33.6856C117.436 33.4499 117.423 33.2174 117.418 32.9828H103.333C103.344 33.2694 103.373 33.5518 103.373 33.8416Z" fill="#231F20"/>
<path d="M180.325 7.14352H181.143V1.56056H183.061V0.868392H178.417V1.56056H180.325V7.14352Z" fill="#F8A447"/>
<path d="M184.537 4.45573C184.592 3.50347 184.637 2.4631 184.655 1.68176H184.678C184.854 2.42595 185.093 3.22321 185.394 4.11708L186.416 7.10443H187.033L188.138 4.06294C188.455 3.19561 188.709 2.40365 188.931 1.68176H188.951C188.951 2.45142 189.005 3.51197 189.051 4.38779L189.2 7.14371H190L189.61 0.868575H188.576L187.457 3.9037C187.178 4.69565 186.957 5.38251 186.79 6.01735H186.767C186.602 5.36552 186.397 4.67654 186.138 3.9037L185.067 0.868575H184.032L183.595 7.14371H184.369L184.537 4.45573Z" fill="#F8A447"/>
<path d="M108.014 0.468484L131.355 31.376H139.796L139.815 31.3473L116.274 0.468484H108.014Z" fill="url(#paint0_linear_403_650)"/>
<path d="M155.17 0.468479L141.755 18.4839L128.207 0.468479H119.789L141.519 29.1307L163.453 0.468479H155.17Z" fill="url(#paint1_linear_403_650)"/>
<path d="M167.454 0.468484L143.792 31.376H151.861L175.273 0.468484H167.454Z" fill="url(#paint2_linear_403_650)"/>
<path d="M39.4651 0.000340574V25.5393H13.8136V0.000340574H0V30.7868H53.2797V0.000340574H39.4651Z" fill="url(#paint3_linear_403_650)"/>
<path d="M83.3571 0.00244721H59.8235V30.7443H73.636V13.0559L83.3571 13.057C89.7511 13.0697 94.6494 15.1706 98.0433 18.4478C101.233 21.553 103.119 25.793 103.333 30.7443H117.419C117.242 22.2197 113.755 14.522 107.837 9.01332C101.767 3.34436 93.212 0.00244721 83.4027 0.00244721C83.3879 0.00244721 83.372 0.00244721 83.3571 0.00244721Z" fill="url(#paint4_linear_403_650)"/>
<path d="M143.792 31.3757L143.512 31.742L167.959 63.8141H176.177L151.829 31.4171L151.861 31.3757H143.792Z" fill="#F68B1A"/>
<path d="M131.458 31.509L107.111 63.8146H114.96L139.796 31.3763H131.355L131.458 31.509Z" fill="#F68B1A"/>
<path d="M141.81 33.9619L118.948 63.8142H127.119L141.506 44.4845L155.894 63.8142H164.402L141.81 33.9619Z" fill="#F68B1A"/>
<path d="M0.000244141 64.5493H13.8138V39.074H39.4642V64.5493H53.2799V32.9709H0.000244141V64.5493Z" fill="#F68B1A"/>
<path d="M103.373 33.8416L103.376 33.9966C103.365 39.1751 101.43 43.5458 98.0534 46.7061C94.6712 49.8485 89.7644 51.8645 83.3577 51.8772H73.6355V32.9828H59.823V64.5496H83.3577H83.398C93.2168 64.5496 101.832 61.3095 107.846 55.7117C112.503 51.3761 117.377 42.7708 117.436 33.8416V33.6856C117.436 33.4499 117.423 33.2174 117.418 32.9828H103.333C103.344 33.2694 103.373 33.5518 103.373 33.8416Z" fill="#F68B1A"/>
<defs>
<linearGradient id="paint0_linear_403_650" x1="123.915" y1="31.3758" x2="123.915" y2="0.468028" gradientUnits="userSpaceOnUse">
<stop stop-color="#FBC789"/>
<stop offset="0.202454" stop-color="#FBC789"/>
<stop offset="1" stop-color="#F68B1A"/>
</linearGradient>
<linearGradient id="paint1_linear_403_650" x1="141.621" y1="29.1308" x2="141.621" y2="0.468031" gradientUnits="userSpaceOnUse">
<stop stop-color="#FBC789"/>
<stop offset="0.202454" stop-color="#FBC789"/>
<stop offset="1" stop-color="#F68B1A"/>
</linearGradient>
<linearGradient id="paint2_linear_403_650" x1="143.792" y1="15.9219" x2="175.272" y2="15.9219" gradientUnits="userSpaceOnUse">
<stop stop-color="#FBC789"/>
<stop offset="0.202454" stop-color="#FBC789"/>
<stop offset="1" stop-color="#F68B1A"/>
</linearGradient>
<linearGradient id="paint3_linear_403_650" x1="26.6397" y1="30.7864" x2="26.6397" y2="-2.14367e-05" gradientUnits="userSpaceOnUse">
<stop stop-color="#FBC789"/>
<stop offset="0.202454" stop-color="#FBC789"/>
<stop offset="1" stop-color="#F68B1A"/>
</linearGradient>
<linearGradient id="paint4_linear_403_650" x1="88.6212" y1="30.7444" x2="88.6212" y2="0.00203801" gradientUnits="userSpaceOnUse">
<stop stop-color="#FBC789"/>
<stop offset="0.202454" stop-color="#FBC789"/>
<stop offset="1" stop-color="#F68B1A"/>
</linearGradient>
</defs>
</svg>
