<?xml version="1.0" encoding="utf-8"?>
<!-- Generator: Adobe Illustrator 28.2.0, SVG Export Plug-In . SVG Version: 6.00 Build 0)  -->
<svg version="1.1" id="Layer_1" xmlns="http://www.w3.org/2000/svg" xmlns:xlink="http://www.w3.org/1999/xlink" x="0px" y="0px"
	 viewBox="0 0 60 40" style="enable-background:new 0 0 60 40;" xml:space="preserve">
<style type="text/css">
	.st0{fill:#5B2E3F;}
	.st1{fill:#FFFFFF;}
</style>
<g id="RGB">
	<rect class="st0" width="60" height="40"/>
	<g>
		<g>
			<g>
				<g>
					<g>
						<path class="st1" d="M18.77,29.88c-0.46,0-0.81-0.33-0.81-0.82c0-0.47,0.34-0.82,0.78-0.82c0.23,0,0.46,0.11,0.58,0.24
							l0.21-0.2c-0.19-0.21-0.48-0.33-0.79-0.33c-0.62,0-1.09,0.49-1.09,1.11c0,0.64,0.48,1.11,1.12,1.11c0.33,0,0.65-0.16,0.84-0.4
							l-0.22-0.2C19.27,29.72,19.06,29.88,18.77,29.88z"/>
					</g>
					<g>
						<g>
							<path class="st1" d="M21.57,27.95c-0.61,0-1.08,0.48-1.08,1.11c0,0.63,0.47,1.11,1.08,1.11c0.61,0,1.08-0.48,1.08-1.11
								C22.65,28.44,22.18,27.95,21.57,27.95z M21.57,29.88c-0.44,0-0.77-0.35-0.77-0.82c0-0.47,0.33-0.82,0.77-0.82
								c0.44,0,0.77,0.35,0.77,0.82C22.34,29.53,22.01,29.88,21.57,29.88z"/>
						</g>
					</g>
					<g>
						<polygon class="st1" points="24.09,27.99 23.78,27.99 23.78,30.15 25.05,30.15 25.05,29.85 24.09,29.85 						"/>
					</g>
					<g>
						<polygon class="st1" points="26.43,27.99 26.13,27.99 26.13,30.15 27.39,30.15 27.39,29.85 26.43,29.85 						"/>
					</g>
					<g>
						<polygon class="st1" points="28.78,29.13 29.49,29.13 29.49,28.83 28.78,28.83 28.78,28.28 29.71,28.28 29.71,27.99 
							28.47,27.99 28.47,30.15 29.74,30.15 29.74,29.85 28.78,29.85 						"/>
					</g>
					<g>
						<path class="st1" d="M31.77,29.88c-0.46,0-0.81-0.33-0.81-0.82c0-0.47,0.34-0.82,0.78-0.82c0.23,0,0.46,0.11,0.58,0.24
							l0.21-0.2c-0.19-0.21-0.48-0.33-0.79-0.33c-0.62,0-1.09,0.49-1.09,1.11c0,0.64,0.48,1.11,1.12,1.11c0.33,0,0.65-0.16,0.84-0.4
							l-0.22-0.2C32.27,29.72,32.06,29.88,31.77,29.88z"/>
					</g>
					<g>
						<polygon class="st1" points="33.46,28.28 34.05,28.28 34.05,30.15 34.35,30.15 34.35,28.28 34.94,28.28 34.94,27.99 
							33.46,27.99 						"/>
					</g>
					<g>
						<rect x="36.01" y="27.99" class="st1" width="0.31" height="2.16"/>
					</g>
					<g>
						<g>
							<path class="st1" d="M38.52,27.95c-0.61,0-1.08,0.48-1.08,1.11c0,0.63,0.47,1.11,1.08,1.11c0.61,0,1.08-0.48,1.08-1.11
								C39.6,28.44,39.13,27.95,38.52,27.95z M38.52,29.88c-0.44,0-0.77-0.35-0.77-0.82c0-0.47,0.33-0.82,0.77-0.82
								s0.77,0.35,0.77,0.82C39.29,29.53,38.96,29.88,38.52,29.88z"/>
						</g>
					</g>
					<g>
						<polygon class="st1" points="42.24,29.57 40.95,27.99 40.73,27.99 40.73,30.15 41.04,30.15 41.04,28.56 42.33,30.15 
							42.55,30.15 42.55,27.99 42.24,27.99 						"/>
					</g>
				</g>
			</g>
			<g>
				<g>
					<path class="st1" d="M24.63,9.64c-2.4,0-4.28,2.04-4.28,4.63s1.88,4.63,4.28,4.63s4.28-2.04,4.28-4.63S27.03,9.64,24.63,9.64z
						 M27.63,14.27c0,2.62-1.15,4.25-3,4.25s-3-1.63-3-4.25s1.15-4.25,3-4.25S27.63,11.65,27.63,14.27z"/>
					<path class="st1" d="M40.11,11.44v-0.3c0.01-0.28,0.05-0.39,0.24-0.91c0.04-0.11,0.09-0.25,0.15-0.41l0.02-0.06h-1.41
						l-3.07,7.45l-3.28-7.42l-0.01-0.03h-1.52l0.02,0.06c0.05,0.13,0.09,0.24,0.13,0.34c0.2,0.54,0.25,0.68,0.27,0.92
						c0,0.12,0,0.24,0,0.36l0,5.6c0,0.67,0,0.67-0.24,1.27c-0.04,0.11-0.1,0.25-0.16,0.41l-0.02,0.06h0.87v-7.33
						c0-0.23,0-0.45,0-0.66l3.53,7.97l0.01,0.03h0.23l3.27-7.94l-0.01,7.94h1.4l-0.02-0.06c-0.05-0.14-0.1-0.26-0.13-0.36
						c-0.26-0.71-0.26-0.71-0.26-1.24L40.11,11.44z"/>
					<path class="st1" d="M49.81,16.64l-0.01,0.02c-0.67,1.2-1.44,1.69-2.68,1.69h-2.35v-0.84c0.01-0.1,0.01-0.21,0.01-0.37v-0.13
						V17l0-2.74h1.58c0.82,0,1.09,0,2.12,0.4l0.08,0v-1.25h-0.07l-0.02,0c-1.09,0.4-1.37,0.4-2.05,0.4h-1.65l0-2.25l0.01-0.03
						c0-0.04,0-0.07-0.01-0.11v-1.24h2.11c1.22,0,1.95,0.41,2.6,1.46l0.01,0.02h0.22L49.35,9.8l-0.01-0.04h-5.97l0.02,0.06
						c0.05,0.13,0.09,0.25,0.13,0.35c0.22,0.59,0.26,0.69,0.27,0.98v0.18l0,0.02c0,0.03,0,0.05,0,0.08v5.66c0,0.06,0,0.11,0.01,0.17
						c0,0.38-0.03,0.45-0.28,1.13l-0.14,0.38h6.34l0.37-2.14L49.81,16.64L49.81,16.64z"/>
					<path class="st1" d="M17.83,10.32c0.05-0.13,0.11-0.29,0.19-0.5l0.02-0.06h-1.41v4.03h-5.12V9.76h-1.4l0.02,0.06
						c0.06,0.16,0.11,0.29,0.15,0.41c0.2,0.52,0.24,0.63,0.24,0.91v5.77v0.46c-0.01,0.29-0.05,0.4-0.28,1.02l-0.14,0.38h1.4v-4.53
						h5.12v4.51l1.39,0.02V18.7l0-0.02c-0.06-0.17-0.11-0.3-0.16-0.42c-0.19-0.51-0.23-0.62-0.24-0.9v-5.79v-0.46
						C17.63,10.86,17.67,10.77,17.83,10.32z"/>
				</g>
				<g>
					<path class="st1" d="M12.56,21.7c-0.3-0.22-0.68-0.35-1.27-0.35h-1.11v3.7h1.11c0.59,0,0.97-0.13,1.27-0.35
						c0.45-0.34,0.73-0.89,0.73-1.5C13.3,22.59,13.01,22.04,12.56,21.7z M12.32,24.24c-0.23,0.2-0.54,0.31-1.06,0.31h-0.55v-2.7
						h0.55c0.52,0,0.82,0.11,1.06,0.31c0.28,0.25,0.45,0.62,0.45,1.04C12.77,23.62,12.6,23.99,12.32,24.24z"/>
					<polygon class="st1" points="15.22,23.31 16.44,23.31 16.44,22.81 15.22,22.81 15.22,21.86 16.81,21.86 16.81,21.36 
						14.69,21.36 14.69,25.06 16.86,25.06 16.86,24.55 15.22,24.55 					"/>
					<path class="st1" d="M20.87,24.08c-0.21,0.25-0.56,0.52-1.06,0.52c-0.79,0-1.39-0.56-1.39-1.4c0-0.8,0.59-1.4,1.34-1.4
						c0.4,0,0.78,0.18,1,0.42l0.35-0.35c-0.32-0.35-0.82-0.57-1.35-0.57c-1.07,0-1.87,0.83-1.87,1.9c0,1.09,0.81,1.9,1.92,1.9
						c0.57,0,1.12-0.28,1.44-0.69L20.87,24.08z"/>
					<path class="st1" d="M24.06,21.3c-1.05,0-1.85,0.82-1.85,1.9s0.8,1.9,1.85,1.9c1.05,0,1.85-0.82,1.85-1.9
						C25.91,22.13,25.11,21.3,24.06,21.3z M24.06,24.61c-0.76,0-1.32-0.6-1.32-1.4c0-0.8,0.56-1.4,1.32-1.4s1.32,0.6,1.32,1.4
						C25.39,24.01,24.82,24.61,24.06,24.61z"/>
					<path class="st1" d="M29.32,23.09c0.22-0.18,0.36-0.45,0.36-0.76s-0.14-0.58-0.36-0.76c-0.17-0.14-0.38-0.22-0.72-0.22h-1.29
						v3.7h0.53v-1.74h0.42l1.32,1.74h0.64l-1.33-1.77C29.07,23.26,29.21,23.19,29.32,23.09z M27.84,22.81v-0.95h0.74
						c0.24,0,0.36,0.05,0.44,0.14c0.08,0.08,0.14,0.21,0.14,0.34s-0.05,0.25-0.14,0.34c-0.08,0.08-0.21,0.14-0.44,0.14L27.84,22.81
						L27.84,22.81z"/>
					<path class="st1" d="M32.59,21.36l-1.53,3.7h0.55l0.39-0.95h1.56l0.39,0.95h0.55l-1.53-3.7H32.59z M32.2,23.6l0.57-1.37
						l0.57,1.37H32.2z"/>
					<polygon class="st1" points="36.55,25.06 36.55,21.86 37.55,21.86 37.55,21.36 35.02,21.36 35.02,21.86 36.02,21.86 
						36.02,25.06 					"/>
					<path class="st1" d="M40.24,21.3c-1.05,0-1.85,0.82-1.85,1.9s0.8,1.9,1.85,1.9c1.05,0,1.85-0.82,1.85-1.9
						C42.09,22.13,41.29,21.3,40.24,21.3z M40.24,24.61c-0.76,0-1.32-0.6-1.32-1.4c0-0.8,0.56-1.4,1.32-1.4
						c0.76,0,1.32,0.6,1.32,1.4C41.56,24.01,41,24.61,40.24,24.61z"/>
					<path class="st1" d="M45.5,23.09c0.22-0.18,0.36-0.45,0.36-0.76s-0.14-0.58-0.36-0.76c-0.17-0.14-0.38-0.22-0.72-0.22h-1.29
						v3.7h0.53v-1.74h0.42l1.32,1.74h0.64l-1.33-1.77C45.25,23.26,45.39,23.19,45.5,23.09z M44.02,22.81v-0.95h0.74
						c0.24,0,0.36,0.05,0.44,0.14c0.08,0.08,0.14,0.21,0.14,0.34s-0.05,0.25-0.14,0.34c-0.08,0.08-0.21,0.14-0.44,0.14L44.02,22.81
						L44.02,22.81z"/>
					<path class="st1" d="M49.22,23.19c-0.48-0.32-1.26-0.42-1.26-0.89c0-0.32,0.31-0.5,0.61-0.5c0.23,0,0.46,0.08,0.66,0.25
						l0.31-0.39c-0.2-0.16-0.52-0.37-0.99-0.37c-0.64,0-1.12,0.44-1.12,0.98c0,0.39,0.21,0.64,0.47,0.81
						c0.49,0.32,1.27,0.39,1.27,0.95c0,0.33-0.3,0.55-0.64,0.55c-0.38,0-0.69-0.21-0.9-0.48l-0.36,0.36
						c0.33,0.4,0.79,0.62,1.29,0.62c0.64,0,1.15-0.42,1.15-1.07C49.7,23.61,49.47,23.35,49.22,23.19z"/>
				</g>
			</g>
			<g>
				<path class="st1" d="M43.66,27.77c0.25,0,0.46,0.21,0.46,0.46c0,0.25-0.21,0.46-0.46,0.46c-0.25,0-0.46-0.21-0.46-0.46
					C43.2,27.98,43.4,27.77,43.66,27.77z M43.66,28.6c0.21,0,0.37-0.17,0.37-0.37c0-0.21-0.17-0.37-0.37-0.37s-0.37,0.17-0.37,0.37
					C43.28,28.44,43.45,28.6,43.66,28.6z M43.73,28.25l0.16,0.23h-0.11l-0.16-0.22H43.6v0.22h-0.09v-0.5h0.17
					c0.04,0,0.07,0.01,0.1,0.03c0.03,0.03,0.05,0.06,0.05,0.11C43.82,28.17,43.78,28.23,43.73,28.25z M43.6,28.17h0.07
					c0.03,0,0.04-0.01,0.05-0.02c0.01-0.01,0.01-0.02,0.01-0.03c0-0.01,0-0.02-0.01-0.03c-0.01-0.01-0.02-0.02-0.05-0.02H43.6V28.17
					z"/>
			</g>
		</g>
	</g>
</g>
</svg>
