<svg width="190" height="137" viewBox="0 0 190 137" fill="none" xmlns="http://www.w3.org/2000/svg">
<path d="M2.25889 2.26947H161.844V133.875H2.25889V2.26947ZM0 136.143H164.103V3.4582e-05H0V136.143Z" fill="white"/>
<path d="M10.5916 15.7646C10.333 13.5026 10.5135 11.6479 11.0412 11.5814C11.5268 11.5266 12.1559 13.2893 12.3871 15.5356C12.5686 16.9627 12.5454 18.2293 12.3786 18.9608C13.4342 19.5424 14.5752 20.1726 15.7722 20.8387C15.5147 19.857 15.2835 18.5154 15.1041 17.0165C14.8106 13.9786 14.9616 11.4664 15.4471 11.4115C15.9591 11.3735 16.6167 13.7939 16.9555 16.8202C17.1339 18.7708 17.136 20.5062 16.9967 21.5184C20.3882 23.3931 24.1977 25.5887 28.2605 27.933C26.4998 24.7527 24.9682 21.8942 23.7818 19.5393C23.2857 19.7388 22.5225 19.819 21.7118 19.7208C20.3512 19.5266 19.2693 18.9302 19.3347 18.3655C19.4181 17.7744 20.6035 17.4883 21.9799 17.6551C22.2966 17.6899 22.6281 17.7702 22.9141 17.8631C21.6295 15.2252 20.9518 13.5458 21.164 13.4445C21.3899 13.3136 22.4497 14.7259 24.0689 17.1822C24.1607 16.8972 24.2515 16.6112 24.4046 16.2871C24.9281 15.0099 25.7989 14.1644 26.3383 14.4051C26.8651 14.6003 26.8556 15.8385 26.3067 17.1009C25.9636 17.8789 25.5013 18.4753 25.0854 18.7972C26.4998 21.0202 28.2109 23.8333 30.0602 26.9904C30.0972 22.2246 30.1711 17.7828 30.2967 13.8984C29.3604 13.5004 27.871 12.6264 26.2729 11.4273C24.7993 10.3359 23.5949 9.25289 22.9278 8.47389H8.43823V16.8719C9.25312 17.2983 10.1218 17.7575 11.0813 18.2768C10.8776 17.5907 10.6739 16.7178 10.5916 15.7646Z" fill="white"/>
<path d="M8.43823 18.4371V20.2178C9.10429 19.9571 9.75556 19.7438 10.2928 19.6235C9.63418 19.2055 9.0209 18.8128 8.43823 18.4371Z" fill="white"/>
<path d="M11.421 41.2041C12.4248 40.5866 13.5332 39.9174 14.7038 39.2081C13.7305 38.9389 12.4459 38.4871 11.0705 37.8707C10.0783 37.4221 9.18215 36.9608 8.43799 36.5291V39.4561C8.4401 39.4572 8.44221 39.4582 8.44221 39.4582C9.75954 40.0409 10.8109 40.6964 11.421 41.2041Z" fill="white"/>
<path d="M93.5165 50.7861C94.6512 51.4015 95.9348 51.7087 97.3661 51.7087C99.5342 51.7087 101.317 51.0278 102.714 49.6662C104.11 48.3056 104.809 46.5512 104.809 44.4021C104.809 43.0004 104.493 41.7379 103.863 40.6137C103.233 39.4885 102.346 38.6198 101.201 38.0044C100.057 37.389 98.7679 37.0808 97.3366 37.0808C95.9042 37.0808 94.6153 37.3911 93.4722 38.0118C92.3269 38.6325 91.4466 39.4991 90.8322 40.6137C90.2168 41.7284 89.9097 42.9909 89.9097 44.4021C89.9097 45.805 90.2263 47.0653 90.8618 48.1842C91.4972 49.3031 92.3818 50.1707 93.5165 50.7861Z" fill="white"/>
<path d="M67.9694 64.9083C69.1685 64.9083 70.3444 65.0445 71.4939 65.3168C72.6434 65.5902 73.8837 66.0525 75.2147 66.7091V70.5513C73.9143 69.805 72.712 69.2646 71.6069 68.9321C70.5027 68.5996 69.3511 68.4328 68.1499 68.4328C66.6479 68.4328 65.2915 68.7431 64.0818 69.3638C62.8711 69.9845 61.9316 70.8585 61.2603 71.9879C60.59 73.1174 60.2544 74.3724 60.2544 75.7531C60.2544 77.1665 60.5869 78.4321 61.2529 79.551C61.919 80.6709 62.8563 81.5354 64.066 82.1455C65.2767 82.7556 66.6373 83.0607 68.1499 83.0607C69.31 83.0607 70.4172 82.8939 71.4707 82.5614C72.5241 82.2278 73.8531 81.6283 75.4565 80.7617V84.6028C74.0853 85.3196 72.825 85.8283 71.6744 86.1302C70.5249 86.4342 69.1844 86.5852 67.6517 86.5852C65.4224 86.5852 63.4305 86.1408 61.6773 85.2531C59.9219 84.3664 58.5423 83.0881 57.5395 81.4193C56.5356 79.7505 56.0343 77.9233 56.0343 75.9357C56.0343 73.8087 56.5515 71.8971 57.5849 70.203C58.6183 68.5088 60.0401 67.2031 61.8504 66.2848C63.6606 65.3685 65.701 64.9083 67.9694 64.9083ZM64.1662 33.8285H68.2512V42.7237H79.2174V33.8285H83.3013V54.9608H79.2174V46.0371H68.2512V54.9608H64.1662V33.8285ZM87.1868 38.9417C88.1843 37.238 89.5618 35.9133 91.3162 34.9707C93.0705 34.028 95.0877 33.5562 97.3666 33.5562C99.5548 33.5562 101.524 34.008 103.273 34.9115C105.023 35.813 106.417 37.1134 107.456 38.8129C108.495 40.5134 109.015 42.3754 109.015 44.402C109.015 46.3791 108.508 48.2126 107.494 49.9004C106.48 51.5904 105.089 52.9014 103.319 53.8345C101.549 54.7676 99.5548 55.2331 97.3371 55.2331C95.1489 55.2331 93.1581 54.7591 91.369 53.8113C89.5787 52.8634 88.1843 51.5598 87.1868 49.9004C86.1883 48.2421 85.689 46.4097 85.689 44.402C85.689 42.4662 86.1883 40.6464 87.1868 38.9417ZM110.565 65.1806H114.558V86.3118H111.05L98.419 71.3219V86.3118H94.4248V65.1806H98.0094L110.565 79.9289V65.1806ZM111.416 33.8285H115.093L122.035 42.1643L128.977 33.8285H132.623V54.9608H128.539V40.1218H128.418L122.307 47.5634H121.732L115.621 40.1218H115.5V54.9608H111.416V33.8285ZM135.433 68.3726H127.929V86.3118H123.845V68.3726H116.342V65.1806H135.433V68.3726ZM137.823 66.4895C139.143 65.4361 140.888 64.9083 143.057 64.9083C145.114 64.9083 147.096 65.4224 149.002 66.4505V70.0816C146.813 68.76 144.871 68.1003 143.178 68.1003C142.15 68.1003 141.345 68.2998 140.765 68.6977C140.185 69.0967 139.896 69.6287 139.896 70.2937C139.896 71.0896 140.434 71.8275 141.514 72.502C141.816 72.7046 142.981 73.2683 145.008 74.1961C146.742 75.0131 147.992 75.922 148.759 76.9195C149.525 77.917 149.909 79.1182 149.909 80.5189C149.909 82.3345 149.256 83.7985 147.95 84.9132C146.644 86.0289 144.953 86.5852 142.875 86.5852C141.524 86.5852 140.361 86.4363 139.388 86.1387C138.415 85.8421 137.324 85.3291 136.114 84.6028V80.5801C138.372 82.4559 140.5 83.3932 142.496 83.3932C143.495 83.3932 144.302 83.1768 144.917 82.743C145.533 82.3081 145.84 81.7339 145.84 81.0182C145.84 80.0407 145.306 79.2427 144.235 78.6284C143.349 78.145 142.204 77.5644 140.803 76.8889C139.139 76.1331 137.896 75.2496 137.073 74.2415C136.251 73.2335 135.841 72.0629 135.841 70.7329C135.841 68.9574 136.502 67.544 137.823 66.4895ZM135.857 33.8285H149.516V37.0205H139.941V42.5717H149.108V45.7637H139.941V51.7688H149.728V54.9608H135.857V33.8285ZM139.429 121.071H135.436L139.928 111.344L134.438 99.8187H138.46L141.804 107.412L145.192 99.8187H149.185L139.429 121.071ZM130.359 113.886C130.002 113.664 129.751 113.271 129.61 112.707C128.188 113.715 126.762 114.22 125.329 114.22C124.311 114.22 123.437 113.878 122.705 113.19C121.974 112.504 121.608 111.683 121.608 110.725C121.608 109.504 121.972 108.542 122.698 107.837C123.424 107.129 124.694 106.515 126.509 105.99L129.52 105.113V104.462C129.52 103.08 128.682 102.39 127.009 102.39C126.152 102.39 125.3 102.586 124.452 102.98C123.606 103.373 122.834 103.953 122.138 104.72V101.378C123.682 100.158 125.511 99.5453 127.628 99.5453C129.444 99.5453 130.831 99.9327 131.788 100.704C132.747 101.476 133.226 102.552 133.226 103.933V110.847C133.226 111.38 133.442 111.647 133.876 111.647C134.058 111.647 134.312 111.569 134.639 111.414C134.968 111.257 135.242 111.078 135.464 110.876V113.025C134.163 113.822 132.974 114.22 131.895 114.22C131.229 114.22 130.717 114.108 130.359 113.886ZM120.064 113.947H113.53C111.27 113.947 109.462 113.297 108.107 111.996C106.751 110.695 106.072 108.92 106.072 106.67C106.072 105.34 106.387 104.13 107.018 103.041C107.648 101.952 108.515 101.096 109.62 100.476C110.724 99.8556 111.915 99.5453 113.197 99.5453C114.185 99.5453 115.239 99.7427 116.358 100.136V92.814H120.064V113.947ZM103.84 96.861C103.431 97.2906 102.935 97.5049 102.35 97.5049C101.785 97.5049 101.293 97.2906 100.875 96.861C100.456 96.4325 100.247 95.9406 100.247 95.3864C100.247 94.8016 100.458 94.3055 100.883 93.897C101.307 93.4875 101.795 93.2837 102.35 93.2837C102.925 93.2837 103.419 93.4906 103.832 93.9044C104.246 94.3182 104.453 94.8122 104.453 95.3864C104.453 95.9406 104.248 96.4325 103.84 96.861ZM104.21 113.947H100.489V99.8187H104.21V113.947ZM97.7656 113.947H94.0448V92.814H97.7656V113.947ZM91.293 73.9238V77.1158H82.1276V83.1208H91.9136V86.3118H78.0426V65.1806H91.7025V68.3726H82.1276V73.9238H91.293ZM91.237 110.664C90.6068 111.764 89.679 112.631 88.4546 113.266C87.2291 113.902 85.8801 114.22 84.4076 114.22C82.9245 114.22 81.5787 113.902 80.369 113.266C79.1583 112.631 78.2389 111.764 77.6077 110.664C76.9775 109.566 76.663 108.285 76.663 106.822C76.663 105.4 76.9965 104.137 77.6605 103.033C78.3265 101.928 79.2543 101.072 80.445 100.462C81.6336 99.8514 82.9551 99.5453 84.4076 99.5453C85.8801 99.5453 87.2153 99.8546 88.4166 100.469C89.6167 101.084 90.5435 101.947 91.199 103.056C91.8545 104.164 92.1828 105.421 92.1828 106.822C92.1828 108.285 91.8682 109.566 91.237 110.664ZM74.4537 113.947H70.3687V105.023H59.4025V113.947H55.3186V92.814H59.4025V101.709H70.3687V92.814H74.4537V113.947ZM54.5976 84.6028C53.2265 85.3196 51.964 85.8283 50.8156 86.1302C49.6661 86.4342 48.3245 86.5852 46.7918 86.5852C44.5635 86.5852 42.5707 86.1408 40.8163 85.2531C39.063 84.3664 37.6834 83.0881 36.6796 81.4193C35.6768 79.7505 35.1744 77.9233 35.1744 75.9357C35.1744 73.8087 35.6916 71.8971 36.725 70.203C37.7584 68.5088 39.1813 67.2031 40.9905 66.2848C42.8008 65.3685 44.8412 64.9083 47.1095 64.9083C48.3097 64.9083 49.4845 65.0445 50.634 65.3168C51.7835 65.5902 53.0238 66.0525 54.3559 66.7091V70.5513C53.0544 69.805 51.8521 69.2646 50.748 68.9321C49.6439 68.5996 48.4913 68.4328 47.2911 68.4328C45.788 68.4328 44.4316 68.7431 43.2219 69.3638C42.0123 69.9845 41.0718 70.8585 40.4004 71.9879C39.7302 73.1174 39.3955 74.3724 39.3955 75.7531C39.3955 77.1665 39.727 78.4321 40.393 79.551C41.0591 80.6709 41.9975 81.5354 43.2072 82.1455C44.4179 82.7556 45.7785 83.0607 47.2911 83.0607C48.4501 83.0607 49.5574 82.8939 50.6108 82.5614C51.6643 82.2278 52.9932 81.6283 54.5976 80.7617V84.6028ZM31.4546 86.3118L29.2612 81.1691H19.8678L17.8253 86.3118H13.5439L22.2576 65.1806H26.4312L35.7655 86.3118H31.4546ZM36.2912 11.5331C34.6825 12.6626 33.1952 13.5249 32.2515 13.9134C32.3159 17.7957 32.3297 22.2143 32.3381 26.9685C34.2064 23.843 35.9354 21.0869 37.353 18.8639C36.9372 18.5452 36.4938 17.9467 36.1793 17.1962C35.6515 15.9073 35.643 14.6956 36.1539 14.4686C36.6933 14.2575 37.5578 15.103 38.1025 16.3633C38.2397 16.7085 38.3368 16.9914 38.3907 17.2869C40.0394 14.8613 41.1414 13.4331 41.3663 13.5651C41.59 13.697 40.8828 15.3553 39.5423 17.9625C39.8537 17.8812 40.1503 17.8285 40.5187 17.7799C41.8845 17.6395 43.0425 17.9794 43.0942 18.5367C43.1734 19.1109 42.1136 19.6957 40.7308 19.8646C39.8938 19.9396 39.1549 19.8456 38.6735 19.6387C37.4523 21.9768 35.8763 24.8584 34.0798 27.9892C38.2302 25.6733 42.1094 23.4999 45.5568 21.6759C45.389 20.6742 45.4312 18.9273 45.6645 16.9893C46.0097 13.9503 46.7084 11.5331 47.2024 11.5965C47.6943 11.6587 47.8199 14.1456 47.4737 17.1846C47.2995 18.7035 47.0515 20.0272 46.7844 21.0025C47.9941 20.3544 49.1278 19.7749 50.1865 19.1891C50.0345 18.4217 50.0419 17.1825 50.1939 15.7627C50.4884 13.5228 51.1449 11.759 51.6358 11.8223C52.1298 11.8846 52.3124 13.7635 52.0158 16.0034C51.9102 16.9587 51.736 17.8358 51.5038 18.4903C56.4111 15.9791 59.4828 14.5372 59.6421 14.7821C59.8121 15.0692 57.0022 16.9661 52.2712 19.8836C52.9774 20.0335 53.8165 20.3375 54.7264 20.7196C56.7964 21.6327 58.2984 22.7389 58.1084 23.1917C57.9195 23.6467 56.0448 23.3015 53.9749 22.3895C52.685 21.8216 51.5872 21.1777 51.0235 20.6594C49.9754 21.2896 48.8945 21.9747 47.6943 22.6661C48.6865 22.9088 49.9806 23.4039 51.356 24.0214C54.1511 25.2448 56.2306 26.6539 56.0406 27.1057C55.8326 27.5881 53.3985 26.9147 50.6034 25.6913C48.8195 24.8711 47.3133 24.0256 46.5248 23.3743C43.1681 25.3651 39.3132 27.6282 35.2018 30.0053C38.8023 30.0423 42.065 30.1457 44.6965 30.2946C44.7747 29.7742 45.0787 29.1239 45.5906 28.4442C46.4234 27.3485 47.4716 26.7183 47.9445 27.0719C48.3889 27.4076 48.0785 28.5824 47.2299 29.7056C47.0378 29.9705 46.8161 30.2175 46.5839 30.4202C49.5637 30.6218 51.3571 30.8445 51.355 31.1073C51.3508 31.3691 49.5574 31.5982 46.5987 31.748C46.8024 31.9813 47.0071 32.2136 47.2204 32.4901C48.0374 33.6101 48.3403 34.768 47.8801 35.1005C47.4061 35.4625 46.3801 34.825 45.5642 33.705C45.0544 33.0284 44.7641 32.3687 44.6955 31.8388C42.0629 31.9539 38.8192 32.0119 35.2293 32.0183C39.3153 34.4513 43.1185 36.7187 46.4129 38.7643C47.2278 38.1479 48.7414 37.3013 50.5591 36.5213C53.3384 35.3232 55.7704 34.7131 55.9889 35.1797C56.1778 35.6314 54.0889 37.0058 51.2642 38.2154C49.8962 38.8076 48.5842 39.2446 47.6046 39.5C48.7678 40.2189 49.8751 40.906 50.8979 41.5436C51.4859 41.0591 52.5773 40.4184 53.8841 39.8642C55.9583 38.9691 57.8013 38.6556 58.0187 39.1232C58.1918 39.6003 56.6623 40.6643 54.5892 41.5584C53.6899 41.9363 52.8549 42.2012 52.1298 42.3427C56.808 45.3109 59.6105 47.2922 59.4616 47.5444C59.297 47.8252 56.2158 46.321 51.3413 43.6885C51.5714 44.3894 51.7329 45.275 51.8426 46.244C52.0907 48.4617 51.9102 50.3163 51.4088 50.3986C50.8937 50.4377 50.2678 48.6749 50.0355 46.4287C49.8814 45.0185 49.9068 43.7529 50.0429 43.0024C48.9874 42.4208 47.8463 41.7906 46.6504 41.1277C46.9058 42.1062 47.1665 43.4647 47.3006 44.9752C47.6415 48.0025 47.4621 50.4979 46.9765 50.5528C46.4625 50.5908 45.7901 48.1989 45.4945 45.161C45.2877 43.1924 45.2866 41.4581 45.427 40.4469C42.0059 38.5543 38.151 36.3693 34.0207 33.9478C35.7813 37.1293 37.314 39.9877 38.5015 42.3427C38.9955 42.1421 39.7418 42.0904 40.5524 42.1885C41.9299 42.3543 43.014 42.9528 42.9464 43.5164C42.8641 44.1086 41.7062 44.4094 40.3033 44.2279C39.9835 44.192 39.6531 44.1107 39.3502 44.0463C40.6928 46.7179 41.3684 48.3952 41.1414 48.5272C40.9145 48.657 39.8431 47.2003 38.2133 44.6987C38.1225 44.9847 38.0138 45.2982 37.9051 45.6107C37.3562 46.8731 36.4653 47.746 35.9259 47.5043C35.4161 47.2805 35.4256 46.0424 35.9766 44.782C36.3197 44.0041 36.7651 43.4351 37.181 43.1143C35.7665 40.8902 34.1104 38.1099 32.3012 35.0139C32.2252 39.7185 32.1386 44.116 32.0563 47.9878C33.0115 48.3583 34.483 49.2587 36.0695 50.4155C38.5025 52.2564 40.2527 54.0361 39.9603 54.4678C39.6584 54.8563 37.4122 53.7289 34.9802 51.888C33.7705 50.9887 32.7054 50.102 32.0098 49.3547C31.9655 50.7238 31.9233 52.0179 31.8863 53.2391C32.6147 53.4788 33.7093 54.1205 34.8355 54.9681C36.6427 56.3298 37.8302 57.7812 37.5283 58.1686C37.2528 58.5729 35.5238 57.7844 33.7462 56.4417C32.9693 55.8348 32.2927 55.25 31.8167 54.7074C31.5939 60.3061 31.2783 63.7398 30.9722 63.7483C30.6809 63.7293 30.398 60.2829 30.2259 54.718C29.7414 55.2236 29.087 55.821 28.308 56.3815C26.4956 57.7326 24.7677 58.4905 24.4732 58.0915C24.1502 57.6756 25.3968 56.258 27.2081 54.908C28.3439 54.0656 29.448 53.4693 30.1922 53.2275C30.1573 51.9999 30.1109 50.729 30.113 49.3737C29.3952 50.0841 28.3608 50.9465 27.1184 51.8395C24.6357 53.6255 22.4043 54.7296 22.1098 54.3306C21.8153 53.9327 23.5812 52.1414 26.0639 50.3543C27.6441 49.2069 29.1313 48.3456 30.075 47.9572C30.0117 44.0748 29.9969 39.6563 30.0011 34.9464C28.1465 38.0434 26.4175 40.7994 25.0009 43.0224C25.4179 43.3423 25.8612 43.9408 26.1599 44.7198C26.7036 45.9801 26.7109 47.1898 26.1547 47.4304C25.6427 47.6574 24.7972 46.7844 24.2526 45.523C24.1153 45.1789 24.0161 44.895 23.9633 44.5994C22.2829 47.0821 21.1809 48.5092 20.9561 48.3773C20.7323 48.2453 21.4395 46.587 22.7832 43.907C22.4993 44.0052 22.2058 44.059 21.8364 44.1065C20.4705 44.2479 19.2936 43.9355 19.2154 43.3613C19.1806 42.7754 20.2414 42.1917 21.6073 42.0503C22.4328 41.931 23.1717 42.0249 23.653 42.2318C24.9007 39.9096 26.4608 37.0554 28.2436 33.9531C24.1523 36.2299 20.2889 38.3748 16.8869 40.1872C17.0093 41.2016 17.0125 42.9369 16.7803 44.8739C16.4341 47.9118 15.7342 50.329 15.2413 50.2667C14.7336 50.2329 14.5942 47.7006 14.97 44.6797C15.1273 43.1882 15.3912 41.837 15.6593 40.8617C14.4486 41.5098 13.3001 42.1168 12.2572 42.6741C12.3828 43.4267 12.4018 44.6818 12.2044 46.112C11.9553 48.3403 11.2998 50.1041 10.8058 50.0408C10.2876 49.9627 10.1324 48.1007 10.4111 45.8893C10.5335 44.9055 10.7077 44.0273 10.9135 43.357C10.0184 43.8257 9.20668 44.2416 8.43823 44.6332V127.684H155.655V8.47412H39.8114C39.1602 9.25417 37.8745 10.3921 36.2912 11.5331Z" fill="white"/>
<path d="M21.1082 78.0686H27.9291L24.3603 69.7034L21.1082 78.0686Z" fill="white"/>
<path d="M8.43823 41.4304V43.0454C8.97023 42.7108 9.5339 42.3593 10.1271 41.9909C9.63418 41.8653 9.04518 41.6658 8.43823 41.4304Z" fill="white"/>
<path d="M14.8185 22.465C13.6532 21.744 12.5469 21.0579 11.5231 20.4204C10.9499 20.9502 9.87216 21.5625 8.539 22.1008C8.50522 22.1145 8.4725 22.1261 8.43872 22.1409V25.1049C9.19766 24.6753 10.1234 24.2151 11.1409 23.776C12.5533 23.1722 13.8368 22.7194 14.8185 22.465Z" fill="white"/>
<path d="M84.3773 102.3C83.2478 102.3 82.3306 102.714 81.6244 103.54C80.9182 104.367 80.5657 105.461 80.5657 106.822C80.5657 108.234 80.9108 109.361 81.6022 110.202C82.2926 111.044 83.2172 111.466 84.3773 111.466C85.588 111.466 86.5401 111.063 87.2357 110.256C87.9324 109.448 88.2807 108.296 88.2807 106.791C88.2807 105.36 87.9292 104.254 87.2283 103.471C86.5274 102.69 85.5774 102.3 84.3773 102.3Z" fill="white"/>
<path d="M125.776 108.986C125.498 109.308 125.359 109.702 125.359 110.165C125.359 110.679 125.523 111.093 125.851 111.406C126.178 111.718 126.585 111.875 127.069 111.875C127.886 111.875 128.702 111.502 129.519 110.755V107.033C128.481 107.387 127.667 107.72 127.076 108.033C126.487 108.345 126.053 108.662 125.776 108.986Z" fill="white"/>
<path d="M30.3308 12.4867C30.3772 11.1198 30.4194 9.82566 30.4691 8.64766C30.3434 8.60543 30.1957 8.53682 30.0521 8.47349H25.1702C25.8521 8.88938 26.6047 9.38971 27.39 9.97027C28.5997 10.8685 29.6204 11.7689 30.3308 12.4867Z" fill="white"/>
<path d="M15.9189 38.489C19.2313 36.5099 23.0249 34.2879 27.1047 31.9668C23.4757 31.9129 20.2277 31.781 17.5962 31.6322C17.5192 32.1515 17.1972 32.8313 16.7032 33.4825C15.8535 34.6057 14.8222 35.2084 14.3493 34.8548C13.905 34.5191 14.2153 33.3432 15.0471 32.2486C15.2392 31.9837 15.4608 31.7367 15.6931 31.534C12.7597 31.3218 10.98 31.0695 10.9842 30.8078C10.9695 30.5734 12.765 30.3454 15.6952 30.1776C15.4746 29.9739 15.2708 29.7406 15.0566 29.464C14.2396 28.3452 13.9525 27.1598 14.4137 26.8262C14.8718 26.4916 15.8947 27.1292 16.7286 28.2206C17.2384 28.8972 17.5139 29.5854 17.5814 30.1153C20.2436 30.0182 23.5031 29.9306 27.1648 29.9295C23.0925 27.5408 19.3031 25.245 16.0108 23.2014C15.1959 23.8168 13.6801 24.6623 11.891 25.4593C10.5916 26.0166 9.39034 26.4314 8.43823 26.6816V34.9234C9.37979 35.1946 10.5557 35.6285 11.8234 36.2006C13.6242 36.9933 15.1146 37.8663 15.9189 38.489Z" fill="white"/>
<path d="M110.996 103.495C110.254 104.271 109.885 105.289 109.885 106.551C109.885 109.586 111.392 111.103 114.407 111.103H116.358V102.921C115.592 102.527 114.795 102.329 113.969 102.329C112.727 102.329 111.737 102.718 110.996 103.495Z" fill="white"/>
<path d="M35.2081 10.0307C36.0568 9.42061 36.8706 8.89494 37.5969 8.47378H32.5608C32.413 8.53606 32.261 8.6015 32.1333 8.64372C32.1861 9.84178 32.2156 11.1401 32.242 12.5144C32.9313 11.7872 34.0111 10.9121 35.2081 10.0307Z" fill="white"/>
<path d="M172.087 128.4H174.979V136.156H176.578V128.4H179.483V127.017H172.087V128.4Z" fill="white"/>
<path d="M187.773 127.017L185.315 134.17H185.29L182.769 127.017H180.516V136.155H182.039V129.104H182.065L184.599 136.155H185.918L188.452 129.104H188.477V136.155H190V127.017H187.773Z" fill="white"/>
<path d="M163.319 134.424H1.31616V0.53622H163.319V134.424Z" fill="#C31B33"/>
<path d="M2.25889 2.26947H161.844V133.875H2.25889V2.26947ZM0 136.143H164.103V3.4582e-05H0V136.143Z" fill="white"/>
<path d="M10.5916 15.7646C10.333 13.5026 10.5135 11.6479 11.0412 11.5814C11.5268 11.5266 12.1559 13.2893 12.3871 15.5356C12.5686 16.9627 12.5454 18.2293 12.3786 18.9608C13.4342 19.5424 14.5752 20.1726 15.7722 20.8387C15.5147 19.857 15.2835 18.5154 15.1041 17.0165C14.8106 13.9786 14.9616 11.4664 15.4471 11.4115C15.9591 11.3735 16.6167 13.7939 16.9555 16.8202C17.1339 18.7708 17.136 20.5062 16.9967 21.5184C20.3882 23.3931 24.1977 25.5887 28.2605 27.933C26.4998 24.7527 24.9682 21.8942 23.7818 19.5393C23.2857 19.7388 22.5225 19.819 21.7118 19.7208C20.3512 19.5266 19.2693 18.9302 19.3347 18.3655C19.4181 17.7744 20.6035 17.4883 21.9799 17.6551C22.2966 17.6899 22.6281 17.7702 22.9141 17.8631C21.6295 15.2252 20.9518 13.5458 21.164 13.4445C21.3899 13.3136 22.4497 14.7259 24.0689 17.1822C24.1607 16.8972 24.2515 16.6112 24.4046 16.2871C24.9281 15.0099 25.7989 14.1644 26.3383 14.4051C26.8651 14.6003 26.8556 15.8385 26.3067 17.1009C25.9636 17.8789 25.5013 18.4753 25.0854 18.7972C26.4998 21.0202 28.2109 23.8333 30.0602 26.9904C30.0972 22.2246 30.1711 17.7828 30.2967 13.8984C29.3604 13.5004 27.871 12.6264 26.2729 11.4273C24.7993 10.3359 23.5949 9.25289 22.9278 8.47389H8.43823V16.8719C9.25312 17.2983 10.1218 17.7575 11.0813 18.2768C10.8776 17.5907 10.6739 16.7178 10.5916 15.7646Z" fill="white"/>
<path d="M8.43823 18.4371V20.2178C9.10429 19.9571 9.75556 19.7438 10.2928 19.6235C9.63418 19.2055 9.0209 18.8128 8.43823 18.4371Z" fill="white"/>
<path d="M11.421 41.2041C12.4248 40.5866 13.5332 39.9174 14.7038 39.2081C13.7305 38.9389 12.4459 38.4871 11.0705 37.8707C10.0783 37.4221 9.18215 36.9608 8.43799 36.5291V39.4561C8.4401 39.4572 8.44221 39.4582 8.44221 39.4582C9.75954 40.0409 10.8109 40.6964 11.421 41.2041Z" fill="white"/>
<path d="M93.5165 50.7861C94.6512 51.4015 95.9348 51.7087 97.3661 51.7087C99.5342 51.7087 101.317 51.0278 102.714 49.6662C104.11 48.3056 104.809 46.5512 104.809 44.4021C104.809 43.0004 104.493 41.7379 103.863 40.6137C103.233 39.4885 102.346 38.6198 101.201 38.0044C100.057 37.389 98.7679 37.0808 97.3366 37.0808C95.9042 37.0808 94.6153 37.3911 93.4722 38.0118C92.3269 38.6325 91.4466 39.4991 90.8322 40.6137C90.2168 41.7284 89.9097 42.9909 89.9097 44.4021C89.9097 45.805 90.2263 47.0653 90.8618 48.1842C91.4972 49.3031 92.3818 50.1707 93.5165 50.7861Z" fill="white"/>
<path d="M67.9694 64.9083C69.1685 64.9083 70.3444 65.0445 71.4939 65.3168C72.6434 65.5902 73.8837 66.0525 75.2147 66.7091V70.5513C73.9143 69.805 72.712 69.2646 71.6069 68.9321C70.5027 68.5996 69.3511 68.4328 68.1499 68.4328C66.6479 68.4328 65.2915 68.7431 64.0818 69.3638C62.8711 69.9845 61.9316 70.8585 61.2603 71.9879C60.59 73.1174 60.2544 74.3724 60.2544 75.7531C60.2544 77.1665 60.5869 78.4321 61.2529 79.551C61.919 80.6709 62.8563 81.5354 64.066 82.1455C65.2767 82.7556 66.6373 83.0607 68.1499 83.0607C69.31 83.0607 70.4172 82.8939 71.4707 82.5614C72.5241 82.2278 73.8531 81.6283 75.4565 80.7617V84.6028C74.0853 85.3196 72.825 85.8283 71.6744 86.1302C70.5249 86.4342 69.1844 86.5852 67.6517 86.5852C65.4224 86.5852 63.4305 86.1408 61.6773 85.2531C59.9219 84.3664 58.5423 83.0881 57.5395 81.4193C56.5356 79.7505 56.0343 77.9233 56.0343 75.9357C56.0343 73.8087 56.5515 71.8971 57.5849 70.203C58.6183 68.5088 60.0401 67.2031 61.8504 66.2848C63.6606 65.3685 65.701 64.9083 67.9694 64.9083ZM64.1662 33.8285H68.2512V42.7237H79.2174V33.8285H83.3013V54.9608H79.2174V46.0371H68.2512V54.9608H64.1662V33.8285ZM87.1868 38.9417C88.1843 37.238 89.5618 35.9133 91.3162 34.9707C93.0705 34.028 95.0877 33.5562 97.3666 33.5562C99.5548 33.5562 101.524 34.008 103.273 34.9115C105.023 35.813 106.417 37.1134 107.456 38.8129C108.495 40.5134 109.015 42.3754 109.015 44.402C109.015 46.3791 108.508 48.2126 107.494 49.9004C106.48 51.5904 105.089 52.9014 103.319 53.8345C101.549 54.7676 99.5548 55.2331 97.3371 55.2331C95.1489 55.2331 93.1581 54.7591 91.369 53.8113C89.5787 52.8634 88.1843 51.5598 87.1868 49.9004C86.1883 48.2421 85.689 46.4097 85.689 44.402C85.689 42.4662 86.1883 40.6464 87.1868 38.9417ZM110.565 65.1806H114.558V86.3118H111.05L98.419 71.3219V86.3118H94.4248V65.1806H98.0094L110.565 79.9289V65.1806ZM111.416 33.8285H115.093L122.035 42.1643L128.977 33.8285H132.623V54.9608H128.539V40.1218H128.418L122.307 47.5634H121.732L115.621 40.1218H115.5V54.9608H111.416V33.8285ZM135.433 68.3726H127.929V86.3118H123.845V68.3726H116.342V65.1806H135.433V68.3726ZM137.823 66.4895C139.143 65.4361 140.888 64.9083 143.057 64.9083C145.114 64.9083 147.096 65.4224 149.002 66.4505V70.0816C146.813 68.76 144.871 68.1003 143.178 68.1003C142.15 68.1003 141.345 68.2998 140.765 68.6977C140.185 69.0967 139.896 69.6287 139.896 70.2937C139.896 71.0896 140.434 71.8275 141.514 72.502C141.816 72.7046 142.981 73.2683 145.008 74.1961C146.742 75.0131 147.992 75.922 148.759 76.9195C149.525 77.917 149.909 79.1182 149.909 80.5189C149.909 82.3345 149.256 83.7985 147.95 84.9132C146.644 86.0289 144.953 86.5852 142.875 86.5852C141.524 86.5852 140.361 86.4363 139.388 86.1387C138.415 85.8421 137.324 85.3291 136.114 84.6028V80.5801C138.372 82.4559 140.5 83.3932 142.496 83.3932C143.495 83.3932 144.302 83.1768 144.917 82.743C145.533 82.3081 145.84 81.7339 145.84 81.0182C145.84 80.0407 145.306 79.2427 144.235 78.6284C143.349 78.145 142.204 77.5644 140.803 76.8889C139.139 76.1331 137.896 75.2496 137.073 74.2415C136.251 73.2335 135.841 72.0629 135.841 70.7329C135.841 68.9574 136.502 67.544 137.823 66.4895ZM135.857 33.8285H149.516V37.0205H139.941V42.5717H149.108V45.7637H139.941V51.7688H149.728V54.9608H135.857V33.8285ZM139.429 121.071H135.436L139.928 111.344L134.438 99.8187H138.46L141.804 107.412L145.192 99.8187H149.185L139.429 121.071ZM130.359 113.886C130.002 113.664 129.751 113.271 129.61 112.707C128.188 113.715 126.762 114.22 125.329 114.22C124.311 114.22 123.437 113.878 122.705 113.19C121.974 112.504 121.608 111.683 121.608 110.725C121.608 109.504 121.972 108.542 122.698 107.837C123.424 107.129 124.694 106.515 126.509 105.99L129.52 105.113V104.462C129.52 103.08 128.682 102.39 127.009 102.39C126.152 102.39 125.3 102.586 124.452 102.98C123.606 103.373 122.834 103.953 122.138 104.72V101.378C123.682 100.158 125.511 99.5453 127.628 99.5453C129.444 99.5453 130.831 99.9327 131.788 100.704C132.747 101.476 133.226 102.552 133.226 103.933V110.847C133.226 111.38 133.442 111.647 133.876 111.647C134.058 111.647 134.312 111.569 134.639 111.414C134.968 111.257 135.242 111.078 135.464 110.876V113.025C134.163 113.822 132.974 114.22 131.895 114.22C131.229 114.22 130.717 114.108 130.359 113.886ZM120.064 113.947H113.53C111.27 113.947 109.462 113.297 108.107 111.996C106.751 110.695 106.072 108.92 106.072 106.67C106.072 105.34 106.387 104.13 107.018 103.041C107.648 101.952 108.515 101.096 109.62 100.476C110.724 99.8556 111.915 99.5453 113.197 99.5453C114.185 99.5453 115.239 99.7427 116.358 100.136V92.814H120.064V113.947ZM103.84 96.861C103.431 97.2906 102.935 97.5049 102.35 97.5049C101.785 97.5049 101.293 97.2906 100.875 96.861C100.456 96.4325 100.247 95.9406 100.247 95.3864C100.247 94.8016 100.458 94.3055 100.883 93.897C101.307 93.4875 101.795 93.2837 102.35 93.2837C102.925 93.2837 103.419 93.4906 103.832 93.9044C104.246 94.3182 104.453 94.8122 104.453 95.3864C104.453 95.9406 104.248 96.4325 103.84 96.861ZM104.21 113.947H100.489V99.8187H104.21V113.947ZM97.7656 113.947H94.0448V92.814H97.7656V113.947ZM91.293 73.9238V77.1158H82.1276V83.1208H91.9136V86.3118H78.0426V65.1806H91.7025V68.3726H82.1276V73.9238H91.293ZM91.237 110.664C90.6068 111.764 89.679 112.631 88.4546 113.266C87.2291 113.902 85.8801 114.22 84.4076 114.22C82.9245 114.22 81.5787 113.902 80.369 113.266C79.1583 112.631 78.2389 111.764 77.6077 110.664C76.9775 109.566 76.663 108.285 76.663 106.822C76.663 105.4 76.9965 104.137 77.6605 103.033C78.3265 101.928 79.2543 101.072 80.445 100.462C81.6336 99.8514 82.9551 99.5453 84.4076 99.5453C85.8801 99.5453 87.2153 99.8546 88.4166 100.469C89.6167 101.084 90.5435 101.947 91.199 103.056C91.8545 104.164 92.1828 105.421 92.1828 106.822C92.1828 108.285 91.8682 109.566 91.237 110.664ZM74.4537 113.947H70.3687V105.023H59.4025V113.947H55.3186V92.814H59.4025V101.709H70.3687V92.814H74.4537V113.947ZM54.5976 84.6028C53.2265 85.3196 51.964 85.8283 50.8156 86.1302C49.6661 86.4342 48.3245 86.5852 46.7918 86.5852C44.5635 86.5852 42.5707 86.1408 40.8163 85.2531C39.063 84.3664 37.6834 83.0881 36.6796 81.4193C35.6768 79.7505 35.1744 77.9233 35.1744 75.9357C35.1744 73.8087 35.6916 71.8971 36.725 70.203C37.7584 68.5088 39.1813 67.2031 40.9905 66.2848C42.8008 65.3685 44.8412 64.9083 47.1095 64.9083C48.3097 64.9083 49.4845 65.0445 50.634 65.3168C51.7835 65.5902 53.0238 66.0525 54.3559 66.7091V70.5513C53.0544 69.805 51.8521 69.2646 50.748 68.9321C49.6439 68.5996 48.4913 68.4328 47.2911 68.4328C45.788 68.4328 44.4316 68.7431 43.2219 69.3638C42.0123 69.9845 41.0718 70.8585 40.4004 71.9879C39.7302 73.1174 39.3955 74.3724 39.3955 75.7531C39.3955 77.1665 39.727 78.4321 40.393 79.551C41.0591 80.6709 41.9975 81.5354 43.2072 82.1455C44.4179 82.7556 45.7785 83.0607 47.2911 83.0607C48.4501 83.0607 49.5574 82.8939 50.6108 82.5614C51.6643 82.2278 52.9932 81.6283 54.5976 80.7617V84.6028ZM31.4546 86.3118L29.2612 81.1691H19.8678L17.8253 86.3118H13.5439L22.2576 65.1806H26.4312L35.7655 86.3118H31.4546ZM36.2912 11.5331C34.6825 12.6626 33.1952 13.5249 32.2515 13.9134C32.3159 17.7957 32.3297 22.2143 32.3381 26.9685C34.2064 23.843 35.9354 21.0869 37.353 18.8639C36.9372 18.5452 36.4938 17.9467 36.1793 17.1962C35.6515 15.9073 35.643 14.6956 36.1539 14.4686C36.6933 14.2575 37.5578 15.103 38.1025 16.3633C38.2397 16.7085 38.3368 16.9914 38.3907 17.2869C40.0394 14.8613 41.1414 13.4331 41.3663 13.5651C41.59 13.697 40.8828 15.3553 39.5423 17.9625C39.8537 17.8812 40.1503 17.8285 40.5187 17.7799C41.8845 17.6395 43.0425 17.9794 43.0942 18.5367C43.1734 19.1109 42.1136 19.6957 40.7308 19.8646C39.8938 19.9396 39.1549 19.8456 38.6735 19.6387C37.4523 21.9768 35.8763 24.8584 34.0798 27.9892C38.2302 25.6733 42.1094 23.4999 45.5568 21.6759C45.389 20.6742 45.4312 18.9273 45.6645 16.9893C46.0097 13.9503 46.7084 11.5331 47.2024 11.5965C47.6943 11.6587 47.8199 14.1456 47.4737 17.1846C47.2995 18.7035 47.0515 20.0272 46.7844 21.0025C47.9941 20.3544 49.1278 19.7749 50.1865 19.1891C50.0345 18.4217 50.0419 17.1825 50.1939 15.7627C50.4884 13.5228 51.1449 11.759 51.6358 11.8223C52.1298 11.8846 52.3124 13.7635 52.0158 16.0034C51.9102 16.9587 51.736 17.8358 51.5038 18.4903C56.4111 15.9791 59.4828 14.5372 59.6421 14.7821C59.8121 15.0692 57.0022 16.9661 52.2712 19.8836C52.9774 20.0335 53.8165 20.3375 54.7264 20.7196C56.7964 21.6327 58.2984 22.7389 58.1084 23.1917C57.9195 23.6467 56.0448 23.3015 53.9749 22.3895C52.685 21.8216 51.5872 21.1777 51.0235 20.6594C49.9754 21.2896 48.8945 21.9747 47.6943 22.6661C48.6865 22.9088 49.9806 23.4039 51.356 24.0214C54.1511 25.2448 56.2306 26.6539 56.0406 27.1057C55.8326 27.5881 53.3985 26.9147 50.6034 25.6913C48.8195 24.8711 47.3133 24.0256 46.5248 23.3743C43.1681 25.3651 39.3132 27.6282 35.2018 30.0053C38.8023 30.0423 42.065 30.1457 44.6965 30.2946C44.7747 29.7742 45.0787 29.1239 45.5906 28.4442C46.4234 27.3485 47.4716 26.7183 47.9445 27.0719C48.3889 27.4076 48.0785 28.5824 47.2299 29.7056C47.0378 29.9705 46.8161 30.2175 46.5839 30.4202C49.5637 30.6218 51.3571 30.8445 51.355 31.1073C51.3508 31.3691 49.5574 31.5982 46.5987 31.748C46.8024 31.9813 47.0071 32.2136 47.2204 32.4901C48.0374 33.6101 48.3403 34.768 47.8801 35.1005C47.4061 35.4625 46.3801 34.825 45.5642 33.705C45.0544 33.0284 44.7641 32.3687 44.6955 31.8388C42.0629 31.9539 38.8192 32.0119 35.2293 32.0183C39.3153 34.4513 43.1185 36.7187 46.4129 38.7643C47.2278 38.1479 48.7414 37.3013 50.5591 36.5213C53.3384 35.3232 55.7704 34.7131 55.9889 35.1797C56.1778 35.6314 54.0889 37.0058 51.2642 38.2154C49.8962 38.8076 48.5842 39.2446 47.6046 39.5C48.7678 40.2189 49.8751 40.906 50.8979 41.5436C51.4859 41.0591 52.5773 40.4184 53.8841 39.8642C55.9583 38.9691 57.8013 38.6556 58.0187 39.1232C58.1918 39.6003 56.6623 40.6643 54.5892 41.5584C53.6899 41.9363 52.8549 42.2012 52.1298 42.3427C56.808 45.3109 59.6105 47.2922 59.4616 47.5444C59.297 47.8252 56.2158 46.321 51.3413 43.6885C51.5714 44.3894 51.7329 45.275 51.8426 46.244C52.0907 48.4617 51.9102 50.3163 51.4088 50.3986C50.8937 50.4377 50.2678 48.6749 50.0355 46.4287C49.8814 45.0185 49.9068 43.7529 50.0429 43.0024C48.9874 42.4208 47.8463 41.7906 46.6504 41.1277C46.9058 42.1062 47.1665 43.4647 47.3006 44.9752C47.6415 48.0025 47.4621 50.4979 46.9765 50.5528C46.4625 50.5908 45.7901 48.1989 45.4945 45.161C45.2877 43.1924 45.2866 41.4581 45.427 40.4469C42.0059 38.5543 38.151 36.3693 34.0207 33.9478C35.7813 37.1293 37.314 39.9877 38.5015 42.3427C38.9955 42.1421 39.7418 42.0904 40.5524 42.1885C41.9299 42.3543 43.014 42.9528 42.9464 43.5164C42.8641 44.1086 41.7062 44.4094 40.3033 44.2279C39.9835 44.192 39.6531 44.1107 39.3502 44.0463C40.6928 46.7179 41.3684 48.3952 41.1414 48.5272C40.9145 48.657 39.8431 47.2003 38.2133 44.6987C38.1225 44.9847 38.0138 45.2982 37.9051 45.6107C37.3562 46.8731 36.4653 47.746 35.9259 47.5043C35.4161 47.2805 35.4256 46.0424 35.9766 44.782C36.3197 44.0041 36.7651 43.4351 37.181 43.1143C35.7665 40.8902 34.1104 38.1099 32.3012 35.0139C32.2252 39.7185 32.1386 44.116 32.0563 47.9878C33.0115 48.3583 34.483 49.2587 36.0695 50.4155C38.5025 52.2564 40.2527 54.0361 39.9603 54.4678C39.6584 54.8563 37.4122 53.7289 34.9802 51.888C33.7705 50.9887 32.7054 50.102 32.0098 49.3547C31.9655 50.7238 31.9233 52.0179 31.8863 53.2391C32.6147 53.4788 33.7093 54.1205 34.8355 54.9681C36.6427 56.3298 37.8302 57.7812 37.5283 58.1686C37.2528 58.5729 35.5238 57.7844 33.7462 56.4417C32.9693 55.8348 32.2927 55.25 31.8167 54.7074C31.5939 60.3061 31.2783 63.7398 30.9722 63.7483C30.6809 63.7293 30.398 60.2829 30.2259 54.718C29.7414 55.2236 29.087 55.821 28.308 56.3815C26.4956 57.7326 24.7677 58.4905 24.4732 58.0915C24.1502 57.6756 25.3968 56.258 27.2081 54.908C28.3439 54.0656 29.448 53.4693 30.1922 53.2275C30.1573 51.9999 30.1109 50.729 30.113 49.3737C29.3952 50.0841 28.3608 50.9465 27.1184 51.8395C24.6357 53.6255 22.4043 54.7296 22.1098 54.3306C21.8153 53.9327 23.5812 52.1414 26.0639 50.3543C27.6441 49.2069 29.1313 48.3456 30.075 47.9572C30.0117 44.0748 29.9969 39.6563 30.0011 34.9464C28.1465 38.0434 26.4175 40.7994 25.0009 43.0224C25.4179 43.3423 25.8612 43.9408 26.1599 44.7198C26.7036 45.9801 26.7109 47.1898 26.1547 47.4304C25.6427 47.6574 24.7972 46.7844 24.2526 45.523C24.1153 45.1789 24.0161 44.895 23.9633 44.5994C22.2829 47.0821 21.1809 48.5092 20.9561 48.3773C20.7323 48.2453 21.4395 46.587 22.7832 43.907C22.4993 44.0052 22.2058 44.059 21.8364 44.1065C20.4705 44.2479 19.2936 43.9355 19.2154 43.3613C19.1806 42.7754 20.2414 42.1917 21.6073 42.0503C22.4328 41.931 23.1717 42.0249 23.653 42.2318C24.9007 39.9096 26.4608 37.0554 28.2436 33.9531C24.1523 36.2299 20.2889 38.3748 16.8869 40.1872C17.0093 41.2016 17.0125 42.9369 16.7803 44.8739C16.4341 47.9118 15.7342 50.329 15.2413 50.2667C14.7336 50.2329 14.5942 47.7006 14.97 44.6797C15.1273 43.1882 15.3912 41.837 15.6593 40.8617C14.4486 41.5098 13.3001 42.1168 12.2572 42.6741C12.3828 43.4267 12.4018 44.6818 12.2044 46.112C11.9553 48.3403 11.2998 50.1041 10.8058 50.0408C10.2876 49.9627 10.1324 48.1007 10.4111 45.8893C10.5335 44.9055 10.7077 44.0273 10.9135 43.357C10.0184 43.8257 9.20668 44.2416 8.43823 44.6332V127.684H155.655V8.47412H39.8114C39.1602 9.25417 37.8745 10.3921 36.2912 11.5331Z" fill="white"/>
<path d="M21.1082 78.0686H27.9291L24.3603 69.7034L21.1082 78.0686Z" fill="white"/>
<path d="M8.43823 41.4304V43.0454C8.97023 42.7108 9.5339 42.3593 10.1271 41.9909C9.63418 41.8653 9.04518 41.6658 8.43823 41.4304Z" fill="white"/>
<path d="M14.8185 22.465C13.6532 21.744 12.5469 21.0579 11.5231 20.4204C10.9499 20.9502 9.87216 21.5625 8.539 22.1008C8.50522 22.1145 8.4725 22.1261 8.43872 22.1409V25.1049C9.19766 24.6753 10.1234 24.2151 11.1409 23.776C12.5533 23.1722 13.8368 22.7194 14.8185 22.465Z" fill="white"/>
<path d="M84.3773 102.3C83.2478 102.3 82.3306 102.714 81.6244 103.54C80.9182 104.367 80.5657 105.461 80.5657 106.822C80.5657 108.234 80.9108 109.361 81.6022 110.202C82.2926 111.044 83.2172 111.466 84.3773 111.466C85.588 111.466 86.5401 111.063 87.2357 110.256C87.9324 109.448 88.2807 108.296 88.2807 106.791C88.2807 105.36 87.9292 104.254 87.2283 103.471C86.5274 102.69 85.5774 102.3 84.3773 102.3Z" fill="white"/>
<path d="M125.776 108.986C125.498 109.308 125.359 109.702 125.359 110.165C125.359 110.679 125.523 111.093 125.851 111.406C126.178 111.718 126.585 111.875 127.069 111.875C127.886 111.875 128.702 111.502 129.519 110.755V107.033C128.481 107.387 127.667 107.72 127.076 108.033C126.487 108.345 126.053 108.662 125.776 108.986Z" fill="white"/>
<path d="M30.3308 12.4867C30.3772 11.1198 30.4194 9.82566 30.4691 8.64766C30.3434 8.60543 30.1957 8.53682 30.0521 8.47349H25.1702C25.8521 8.88938 26.6047 9.38971 27.39 9.97027C28.5997 10.8685 29.6204 11.7689 30.3308 12.4867Z" fill="white"/>
<path d="M15.9189 38.489C19.2313 36.5099 23.0249 34.2879 27.1047 31.9668C23.4757 31.9129 20.2277 31.781 17.5962 31.6322C17.5192 32.1515 17.1972 32.8313 16.7032 33.4825C15.8535 34.6057 14.8222 35.2084 14.3493 34.8548C13.905 34.5191 14.2153 33.3432 15.0471 32.2486C15.2392 31.9837 15.4608 31.7367 15.6931 31.534C12.7597 31.3218 10.98 31.0695 10.9842 30.8078C10.9695 30.5734 12.765 30.3454 15.6952 30.1776C15.4746 29.9739 15.2708 29.7406 15.0566 29.464C14.2396 28.3452 13.9525 27.1598 14.4137 26.8262C14.8718 26.4916 15.8947 27.1292 16.7286 28.2206C17.2384 28.8972 17.5139 29.5854 17.5814 30.1153C20.2436 30.0182 23.5031 29.9306 27.1648 29.9295C23.0925 27.5408 19.3031 25.245 16.0108 23.2014C15.1959 23.8168 13.6801 24.6623 11.891 25.4593C10.5916 26.0166 9.39034 26.4314 8.43823 26.6816V34.9234C9.37979 35.1946 10.5557 35.6285 11.8234 36.2006C13.6242 36.9933 15.1146 37.8663 15.9189 38.489Z" fill="white"/>
<path d="M110.996 103.495C110.254 104.271 109.885 105.289 109.885 106.551C109.885 109.586 111.392 111.103 114.407 111.103H116.358V102.921C115.592 102.527 114.795 102.329 113.969 102.329C112.727 102.329 111.737 102.718 110.996 103.495Z" fill="white"/>
<path d="M35.2081 10.0307C36.0568 9.42061 36.8706 8.89494 37.5969 8.47378H32.5608C32.413 8.53606 32.261 8.6015 32.1333 8.64372C32.1861 9.84178 32.2156 11.1401 32.242 12.5144C32.9313 11.7872 34.0111 10.9121 35.2081 10.0307Z" fill="white"/>
<path d="M172.087 128.4H174.979V136.156H176.578V128.4H179.483V127.017H172.087V128.4Z" fill="#C31B33"/>
<path d="M187.773 127.017L185.315 134.17H185.29L182.769 127.017H180.516V136.155H182.039V129.104H182.065L184.599 136.155H185.918L188.452 129.104H188.477V136.155H190V127.017H187.773Z" fill="#C31B33"/>
</svg>
