<svg width="300" height="129" viewBox="0 0 300 129" fill="none" xmlns="http://www.w3.org/2000/svg">
<path d="M28.7176 41.7214C28.7176 40.3175 28.672 39.1875 28.6263 38.1431H30.3898L30.5039 40.0207H30.5496C31.3429 38.6853 32.6555 37.9149 34.4417 37.9149C37.1126 37.9149 39.1044 40.1577 39.1044 43.4621C39.1044 47.3999 36.6846 49.346 34.0993 49.346C32.6498 49.346 31.3828 48.7125 30.7265 47.6282H30.6808V53.5806H28.7119V41.7214H28.7176ZM30.6865 44.6434C30.6865 44.9345 30.7094 45.2084 30.7779 45.4595C31.1431 46.8406 32.3416 47.7937 33.7683 47.7937C35.8742 47.7937 37.0955 46.0702 37.0955 43.5591C37.0955 41.3847 35.937 39.5071 33.8368 39.5071C32.4785 39.5071 31.1888 40.4602 30.8292 41.9497C30.7607 42.2008 30.6923 42.4919 30.6923 42.743L30.6865 44.6434Z" fill="#53565A"/>
<path d="M51.2603 43.5363C51.2603 47.5882 48.4296 49.3517 45.8044 49.3517C42.8596 49.3517 40.554 47.1773 40.554 43.7132C40.554 40.0664 42.9737 37.9206 45.987 37.9206C49.1316 37.9206 51.2603 40.2034 51.2603 43.5363ZM42.5914 43.6447C42.5914 46.0474 43.9496 47.8565 45.8957 47.8565C47.7962 47.8565 49.2229 46.0645 49.2229 43.599C49.2229 41.7443 48.2984 39.4101 45.9414 39.4101C43.6129 39.4158 42.5914 41.5845 42.5914 43.6447Z" fill="#53565A"/>
<path d="M54.3136 38.1431L55.786 43.7132C56.077 44.9345 56.3738 46.0645 56.5792 47.2001H56.6477C56.8988 46.093 57.2584 44.9116 57.6236 43.736L59.4156 38.1431H61.0878L62.7884 43.6219C63.1936 44.9345 63.5132 46.0873 63.7644 47.2001H63.8328C64.0155 46.093 64.3065 44.9345 64.6718 43.6447L66.2355 38.1431H68.2044L64.6718 49.1006H62.8569L61.1848 43.873C60.7967 42.6517 60.4828 41.5616 60.2089 40.2719H60.1632C59.895 41.5845 59.5526 42.7201 59.1702 43.8958L57.4067 49.1006H55.5919L52.2876 38.1431H54.3136Z" fill="#53565A"/>
<path d="M71.0408 43.9871C71.0864 46.6808 72.7871 47.7937 74.8017 47.7937C76.2284 47.7937 77.113 47.5426 77.8378 47.2287L78.1974 48.6554C77.4954 48.975 76.2741 49.3574 74.5335 49.3574C71.1606 49.3574 69.146 47.1145 69.146 43.8102C69.146 40.5058 71.0921 37.9263 74.2881 37.9263C77.8835 37.9263 78.8137 41.048 78.8137 43.0683C78.8137 43.4735 78.7909 43.7702 78.7452 43.9928H71.0408V43.9871ZM76.879 42.5604C76.9019 41.3162 76.3597 39.3473 74.1168 39.3473C72.0794 39.3473 71.2177 41.1793 71.0579 42.5604H76.879Z" fill="#53565A"/>
<path d="M81.0223 41.5616C81.0223 40.2718 80.9995 39.1647 80.931 38.1431H82.6773L82.7687 40.3175H82.8371C83.3336 38.8451 84.555 37.9149 85.8961 37.9149C86.1016 37.9149 86.2614 37.9377 86.4383 37.9605V39.8381C86.2328 39.7925 86.0331 39.7925 85.7591 39.7925C84.3552 39.7925 83.3622 40.8311 83.0882 42.3264C83.0426 42.5946 83.0198 42.937 83.0198 43.2509V49.0949H81.028V41.5616H81.0223Z" fill="#53565A"/>
<path d="M89.2804 43.9871C89.326 46.6808 91.0267 47.7937 93.0413 47.7937C94.468 47.7937 95.3526 47.5426 96.0774 47.2287L96.437 48.6554C95.735 48.975 94.5137 49.3574 92.773 49.3574C89.4002 49.3574 87.3856 47.1145 87.3856 43.8102C87.3856 40.5058 89.3317 37.9263 92.5277 37.9263C96.1231 37.9263 97.0533 41.048 97.0533 43.0683C97.0533 43.4735 97.0305 43.7702 96.9848 43.9928H89.2804V43.9871ZM95.1243 42.5604C95.1472 41.3162 94.605 39.3473 92.3621 39.3473C90.3247 39.3473 89.463 41.1793 89.3032 42.5604H95.1243Z" fill="#53565A"/>
<path d="M108.701 33.0297V46.2756C108.701 47.2515 108.747 48.3587 108.793 49.1063H107.029L106.938 47.2059H106.869C106.282 48.4272 104.969 49.3574 103.177 49.3574C100.529 49.3574 98.4686 47.1146 98.4686 43.7874C98.4458 40.1406 100.734 37.9263 103.382 37.9263C105.077 37.9263 106.19 38.7195 106.687 39.5813H106.732V33.0354L108.701 33.0297ZM106.732 42.606C106.732 42.3549 106.71 42.0182 106.641 41.7671C106.35 40.523 105.26 39.4786 103.765 39.4786C101.704 39.4786 100.483 41.2934 100.483 43.6903C100.483 45.9104 101.59 47.7423 103.719 47.7423C105.055 47.7423 106.276 46.8349 106.641 45.3682C106.71 45.0943 106.732 44.826 106.732 44.5064V42.606Z" fill="#53565A"/>
<path d="M116.326 33.0297H118.295V39.9123H118.34C119.042 38.691 120.309 37.9206 122.073 37.9206C124.812 37.9206 126.713 40.1862 126.713 43.4906C126.713 47.4056 124.224 49.3517 121.776 49.3517C120.195 49.3517 118.923 48.741 118.084 47.3143H118.038L117.924 49.1006H116.229C116.274 48.353 116.32 47.2458 116.32 46.2699L116.326 33.0297ZM118.295 44.7119C118.295 44.963 118.318 45.2141 118.386 45.4367C118.751 46.8178 119.927 47.7708 121.377 47.7708C123.482 47.7708 124.704 46.0759 124.704 43.5591C124.704 41.3619 123.574 39.4843 121.422 39.4843C120.087 39.4843 118.82 40.4374 118.409 41.9326C118.34 42.1837 118.295 42.4519 118.295 42.7715V44.7119Z" fill="#53565A"/>
<path d="M129.68 38.1431L132.054 44.6149C132.323 45.3397 132.597 46.2014 132.779 46.8577H132.825C133.03 46.2014 133.253 45.3625 133.527 44.5692L135.701 38.1374H137.807L134.817 45.9503C133.39 49.7112 132.42 51.6117 131.061 52.8101C130.063 53.6491 129.115 53.9858 128.613 54.0771L128.117 52.422C128.613 52.2623 129.269 51.9484 129.863 51.4462C130.405 51.0181 131.061 50.2477 131.541 49.2261C131.632 49.0207 131.701 48.8609 131.701 48.7524C131.701 48.6383 131.655 48.4785 131.541 48.2331L127.506 38.1431H129.68Z" fill="#53565A"/>
<path d="M50.079 96.5029H55.6832V64.5437H50.079V77.6242H33.4487V64.5437H27.8445V96.5029H33.4487V82.5607H50.079V96.5029Z" fill="#53565A"/>
<path d="M60.1404 83.6679C60.1404 91.4294 64.6889 96.6856 73.9856 96.6856C83.2309 96.6856 87.7851 91.4808 87.7851 83.6222V64.5437H82.1295V83.4796C82.1295 88.496 79.2988 91.7604 73.9799 91.7604C68.6096 91.7604 65.7846 88.496 65.7846 83.4796V64.5437H60.129V83.6679H60.1404Z" fill="#53565A"/>
<path d="M92.2423 64.5437H107.959C113.803 64.5437 117.062 68.1848 117.062 72.6876C117.062 76.7168 114.477 79.3933 111.503 80.0211C114.905 80.5462 117.684 83.9475 117.684 87.8796C117.684 92.8162 114.38 96.5029 108.393 96.5029H92.2423V64.5437ZM106.812 77.7668C109.689 77.7668 111.315 76.0433 111.315 73.6464C111.315 71.2494 109.683 69.4746 106.812 69.4746H97.8523V77.7611H106.812V77.7668ZM107.052 91.5664C110.117 91.5664 111.943 89.8885 111.943 87.1092C111.943 84.7123 110.265 82.6977 107.052 82.6977H97.8523V91.5607H107.052V91.5664Z" fill="#53565A"/>
<path d="M121.2 91.9488C123.831 94.905 127.905 96.9995 133.464 96.9995C142.087 96.9995 145.249 92.2798 145.249 87.6571C145.249 80.9799 139.308 79.3648 134.086 77.978C130.017 76.8823 126.324 75.9292 126.324 72.7333C126.324 69.7314 129.058 67.6826 132.888 67.6826C136.386 67.6826 139.742 68.8696 142.139 71.4949L144.536 68.5843C141.853 65.7707 138.069 64.1499 133.179 64.1499C126.901 64.1499 122.204 67.7225 122.204 72.973C122.204 79.2164 127.905 80.6489 133.03 81.9843C137.248 83.1257 141.128 84.1758 141.128 87.9881C141.128 90.4193 139.308 93.4725 133.607 93.4725C129.104 93.4725 125.651 91.2753 123.545 88.9412L121.2 91.9488Z" fill="#53565A"/>
<path d="M149.866 64.5437H162.707C169.127 64.5437 172.722 68.9495 172.722 74.1714C172.722 79.3933 169.03 83.8049 162.707 83.8049H153.844V96.5029H149.866V64.5437ZM168.602 74.1714C168.602 70.576 166.011 68.0878 162.227 68.0878H153.838V80.2608H162.227C166.011 80.2608 168.602 77.7668 168.602 74.1714Z" fill="#53565A"/>
<path d="M224.371 97.4731C230.021 97.4731 233.856 94.7566 236.544 91.0642L233.142 89.1752C231.316 91.9373 228.012 93.8777 224.371 93.8777C217.374 93.8777 212.049 88.399 212.049 80.7288C212.049 73.0129 217.374 67.5798 224.371 67.5798C228.012 67.5798 231.316 69.5659 233.142 72.2824L236.492 70.3934C233.953 66.7523 230.021 63.9844 224.371 63.9844C215.171 63.9844 207.935 70.7758 207.935 80.7231C207.929 90.6818 215.165 97.4731 224.371 97.4731Z" fill="#53565A"/>
<path d="M241.144 96.5029H262.083V92.9589H245.121V81.9387H261.746V78.3946H245.121V68.0878H262.083V64.5437H241.144V96.5029Z" fill="#53565A"/>
<path d="M271.163 64.5437V65.668H268.988V71.3408H267.641V65.668H265.49V64.5437H271.163ZM278.513 71.3408L278.262 67.3402C278.239 66.8151 278.239 66.1645 278.211 65.4397H278.136C277.96 66.0389 277.737 66.8379 277.56 67.4657L276.339 71.238H274.941L273.719 67.363C273.594 66.8608 273.394 66.0389 273.246 65.4397H273.171C273.171 66.0618 273.149 66.7124 273.12 67.3402L272.869 71.3408H271.568L272.07 64.5437H274.096L275.272 67.8652C275.448 68.3902 275.546 68.8925 275.722 69.5887H275.745C275.922 68.9895 276.071 68.3902 276.219 67.9166L277.395 64.5437H279.346L279.871 71.3408H278.513Z" fill="#53565A"/>
<path d="M190.152 20.2403C173.687 20.2403 159.585 30.5357 153.935 45.0201L157.388 46.4012C162.495 33.2865 175.251 23.9612 190.152 23.9612C205.047 23.9612 217.802 33.2865 222.91 46.4012L226.368 45.0201C220.713 30.5357 206.616 20.2403 190.152 20.2403Z" fill="#FA4616"/>
<path d="M190.146 51.6859C193.393 51.6859 196.15 53.7803 197.154 56.6909L200.613 55.3098C199.055 51.0352 194.957 47.9649 190.146 47.9649C185.341 47.9649 181.243 51.0295 179.685 55.3098L183.143 56.6909C184.148 53.7803 186.904 51.6859 190.146 51.6859Z" fill="#FA4616"/>
<path d="M190.152 33.646C179.32 33.646 170.052 40.443 166.382 49.9966L169.858 51.3834C172.985 43.2052 180.889 37.367 190.157 37.367C199.42 37.367 207.33 43.1995 210.451 51.3834L213.927 49.9966C210.246 40.443 200.978 33.646 190.152 33.646Z" fill="#FA4616"/>
<path d="M203.084 72.8246L190.129 63.7961L190.123 63.8018L177.174 72.8246L177.18 72.836H177.162V96.4059H181.163V74.9533L190.117 68.7156L190.123 68.7041L199.094 74.9533V96.4059H203.095V72.836H203.078L203.084 72.8246Z" fill="#53565A"/>
<path d="M192.902 79.7129H187.766V84.8492H192.902V79.7129Z" fill="#53565A"/>
</svg>
