<svg width="190" height="38" viewBox="0 0 190 38" fill="none" xmlns="http://www.w3.org/2000/svg">
<path d="M69.3835 16.0421H62.6776V7.11397H52.6367V32.9631H62.6776V23.6665H69.3835V32.9631H79.4254V7.11397H69.3835V16.0421Z" fill="white"/>
<path d="M99.0359 22.4826C99.0359 25.0015 98.4774 26.7371 95.8593 26.7371C93.4565 26.7371 92.7523 24.8886 92.7523 22.4478V7.11354H82.7083V22.8109C82.7083 30.4479 88.4387 33.4039 95.7442 33.4039C103.647 33.4039 108.852 30.6633 108.852 22.2978V7.11354H99.0359V22.4826Z" fill="white"/>
<path d="M121.241 14.5988C121.241 12.9329 123.98 12.8896 125.55 12.8896C128.394 12.8896 131.046 13.4132 133.303 14.186V7.56037C130.57 7.00085 127.452 6.67041 124.65 6.67041C118.69 6.67041 111.199 7.9267 111.199 15.0401C111.199 25.0725 124.948 21.9307 124.948 25.4082C124.948 26.6994 122.806 27.1818 120.452 27.1818C117.453 27.1818 114.158 26.5927 111.465 25.4832V32.1848C115.213 33.0336 118.387 33.4031 122.253 33.4031C128.048 33.4031 134.981 31.6675 134.981 24.7379C134.981 14.7836 121.241 17.9644 121.241 14.5988Z" fill="white"/>
<path d="M179.627 7.11397L175.497 17.9255H175.429L171.347 7.11397H153.826L147.567 17.2625H147.487V7.11397H137.45V32.9631H147.487V22.0016H147.567L154.086 32.9631H166.07L156.439 19.2251L162.491 10.8966L170.149 25.04V32.9631H180.19V25.04L190 7.11397H179.627Z" fill="white"/>
<path d="M185.878 31.2736C185.878 32.3505 185.101 33.0895 184.17 33.0895V33.0789C183.223 33.0895 182.448 32.3505 182.448 31.2736C182.448 30.181 183.223 29.4641 184.17 29.4641C185.101 29.4641 185.878 30.181 185.878 31.2736ZM186.567 31.2736C186.567 29.7703 185.433 28.9109 184.17 28.9109C182.904 28.9109 181.774 29.7703 181.774 31.2736C181.774 32.7611 182.904 33.6279 184.17 33.6279C185.433 33.6279 186.567 32.7611 186.567 31.2736ZM183.766 31.471H184.036L184.62 32.5363H185.279L184.615 31.432C184.964 31.3972 185.234 31.2398 185.234 30.769C185.234 30.181 184.841 29.9909 184.184 29.9909H183.223V32.5363H183.766V31.471ZM183.766 31.0393V30.4217H184.156C184.36 30.4217 184.652 30.4417 184.652 30.7078C184.652 30.9886 184.503 31.0393 184.262 31.0393H183.766Z" fill="white"/>
<path d="M24.2823 24.9084C23.8146 24.0406 23.4187 23.6658 22.6913 23.7355L7.86387 24.7881C7.13648 24.8567 6.22118 24.4091 5.82635 23.7957L4.87621 22.3103C4.48348 21.6959 4.67879 20.8957 5.31116 20.5336L12.0255 16.4923C12.6579 16.1302 13.6154 16.2389 14.1496 16.734L14.7556 17.2957C15.8641 18.0748 15.8197 17.9439 16.5524 17.1553L17.702 15.6984C18.1549 15.1262 17.928 14.6575 17.1974 14.6575H10.728C9.99852 14.6575 8.87841 14.9457 8.23865 15.2972L0.654414 19.6362C0.0157081 19.9877 -0.192266 20.7838 0.19518 21.4024L3.58613 26.8372C3.97252 27.4569 4.88571 27.9647 5.6152 27.9647L17.9639 28.4282C18.6363 28.4714 19.0755 28.3617 20.7784 29.1028L27.4621 31.704C28.4175 32.1084 28.6329 31.7832 28.2676 31.1825L24.2823 24.9084Z" fill="white"/>
<path d="M42.5822 14.1101C39.7877 12.7651 35.5501 10.6896 35.0254 11.2122C33.7649 12.4738 35.5955 16.0167 34.9293 16.3883C34.2621 16.7589 33.0744 15.4245 32.8517 14.6084C32.63 13.7934 31.777 9.13454 30.602 6.73174C30.1638 5.61585 29.3436 4.47674 28.556 3.79369L23.7282 0.304565C22.8837 -0.305637 22.3642 0.0300797 22.5743 1.05201L23.4654 5.38782C23.6754 6.40869 23.1032 7.66288 22.1943 8.17384L22.2133 8.17067C19.9731 8.87272 14.7462 10.5904 14.6882 11.3463C14.6132 12.3101 17.5787 11.2724 18.7664 12.6068C19.9509 13.9422 20.8419 16.0167 22.7696 16.1656C24.6974 16.3134 29.7384 16.5361 31.8139 20.6133C33.8894 24.6904 35.6039 28.8858 31.5162 34.1412C30.9968 34.8073 31.4919 35.2233 32.0314 35.7818C32.6184 36.3909 33.9718 37.9333 34.6379 37.7116C35.3041 37.4899 47.8977 24.4856 49.2068 18.1471C49.4295 17.0693 45.4622 15.4973 42.5822 14.1101Z" fill="white"/>
<path d="M69.3835 16.0421H62.6776V7.11397H52.6367V32.9631H62.6776V23.6665H69.3835V32.9631H79.4254V7.11397H69.3835V16.0421Z" fill="#231F20"/>
<path d="M99.0359 22.4826C99.0359 25.0015 98.4774 26.7371 95.8593 26.7371C93.4565 26.7371 92.7523 24.8886 92.7523 22.4478V7.11354H82.7083V22.8109C82.7083 30.4479 88.4387 33.4039 95.7442 33.4039C103.647 33.4039 108.852 30.6633 108.852 22.2978V7.11354H99.0359V22.4826Z" fill="#231F20"/>
<path d="M121.241 14.5988C121.241 12.9329 123.98 12.8896 125.55 12.8896C128.394 12.8896 131.046 13.4132 133.303 14.186V7.56037C130.57 7.00085 127.452 6.67041 124.65 6.67041C118.69 6.67041 111.199 7.9267 111.199 15.0401C111.199 25.0725 124.948 21.9307 124.948 25.4082C124.948 26.6994 122.806 27.1818 120.452 27.1818C117.453 27.1818 114.158 26.5927 111.465 25.4832V32.1848C115.213 33.0336 118.387 33.4031 122.253 33.4031C128.048 33.4031 134.981 31.6675 134.981 24.7379C134.981 14.7836 121.241 17.9644 121.241 14.5988Z" fill="#231F20"/>
<path d="M179.627 7.11397L175.497 17.9255H175.429L171.347 7.11397H153.826L147.567 17.2625H147.487V7.11397H137.45V32.9631H147.487V22.0016H147.567L154.086 32.9631H166.07L156.439 19.2251L162.491 10.8966L170.149 25.04V32.9631H180.19V25.04L190 7.11397H179.627Z" fill="#231F20"/>
<path d="M185.878 31.2736C185.878 32.3505 185.101 33.0895 184.17 33.0895V33.0789C183.223 33.0895 182.448 32.3505 182.448 31.2736C182.448 30.181 183.223 29.4641 184.17 29.4641C185.101 29.4641 185.878 30.181 185.878 31.2736ZM186.567 31.2736C186.567 29.7703 185.433 28.9109 184.17 28.9109C182.904 28.9109 181.774 29.7703 181.774 31.2736C181.774 32.7611 182.904 33.6279 184.17 33.6279C185.433 33.6279 186.567 32.7611 186.567 31.2736ZM183.766 31.471H184.036L184.62 32.5363H185.279L184.615 31.432C184.964 31.3972 185.234 31.2398 185.234 30.769C185.234 30.181 184.841 29.9909 184.184 29.9909H183.223V32.5363H183.766V31.471ZM183.766 31.0393V30.4217H184.156C184.36 30.4217 184.652 30.4417 184.652 30.7078C184.652 30.9886 184.503 31.0393 184.262 31.0393H183.766Z" fill="#231F20"/>
<path d="M24.2823 24.9084C23.8146 24.0406 23.4187 23.6658 22.6913 23.7355L7.86387 24.7881C7.13648 24.8567 6.22118 24.4091 5.82635 23.7957L4.87621 22.3103C4.48348 21.6959 4.67879 20.8957 5.31116 20.5336L12.0255 16.4923C12.6579 16.1302 13.6154 16.2389 14.1496 16.734L14.7556 17.2957C15.8641 18.0748 15.8197 17.9439 16.5524 17.1553L17.702 15.6984C18.1549 15.1262 17.928 14.6575 17.1974 14.6575H10.728C9.99852 14.6575 8.87841 14.9457 8.23865 15.2972L0.654414 19.6362C0.0157081 19.9877 -0.192266 20.7838 0.19518 21.4024L3.58613 26.8372C3.97252 27.4569 4.88571 27.9647 5.6152 27.9647L17.9639 28.4282C18.6363 28.4714 19.0755 28.3617 20.7784 29.1028L27.4621 31.704C28.4175 32.1084 28.6329 31.7832 28.2676 31.1825L24.2823 24.9084Z" fill="#231F20"/>
<path d="M42.5822 14.1101C39.7877 12.7651 35.5501 10.6896 35.0254 11.2122C33.7649 12.4738 35.5955 16.0167 34.9293 16.3883C34.2621 16.7589 33.0744 15.4245 32.8517 14.6084C32.63 13.7934 31.777 9.13454 30.602 6.73174C30.1638 5.61585 29.3436 4.47674 28.556 3.79369L23.7282 0.304565C22.8837 -0.305637 22.3642 0.0300797 22.5743 1.05201L23.4654 5.38782C23.6754 6.40869 23.1032 7.66288 22.1943 8.17384L22.2133 8.17067C19.9731 8.87272 14.7462 10.5904 14.6882 11.3463C14.6132 12.3101 17.5787 11.2724 18.7664 12.6068C19.9509 13.9422 20.8419 16.0167 22.7696 16.1656C24.6974 16.3134 29.7384 16.5361 31.8139 20.6133C33.8894 24.6904 35.6039 28.8858 31.5162 34.1412C30.9968 34.8073 31.4919 35.2233 32.0314 35.7818C32.6184 36.3909 33.9718 37.9333 34.6379 37.7116C35.3041 37.4899 47.8977 24.4856 49.2068 18.1471C49.4295 17.0693 45.4622 15.4973 42.5822 14.1101Z" fill="#231F20"/>
</svg>
