<svg width="190" height="38" viewBox="0 0 190 38" fill="none" xmlns="http://www.w3.org/2000/svg">
<path d="M187.363 0.000124998H188.034L188.682 1.69783L189.325 0.000124998H190V2.37427H189.554V0.480407H189.542L188.837 2.37427H188.528L187.822 0.480407H187.81V2.37427H187.363V0.000124998ZM185.775 0.37749H185.058V0.000124998H186.974V0.37749H186.257V2.37427H185.775V0.37749Z" fill="white"/>
<path d="M26.8307 0.248403H10.0921V13.7192H10.0842C10.0982 14.0842 10.2223 15.0096 11.0843 15.9306C11.5417 16.4188 12.2622 16.9404 13.3582 17.3723V19.8591C11.6394 19.3225 10.2707 18.529 9.29865 17.4576C7.95281 15.9763 7.74873 14.4414 7.73466 13.7192H7.72322V0.248403H2.94239C1.3177 0.248403 0 1.56434 0 3.18903V27.0774C0 28.7038 1.3177 30.0206 2.94239 30.0206H13.6661L13.6757 20.8187H13.6775V20.4871V19.9585V17.4937C13.6775 17.4937 13.6784 17.4955 13.6801 17.4955L13.6845 13.6787L13.6863 13.4483C13.7355 12.2 15.8423 8.83367 19.6555 8.82927C21.4297 8.86006 24.9289 10.0071 25.6406 14.1194L25.6546 14.2267C25.6634 14.3376 25.8508 16.9782 24.1223 18.8677C23.1169 19.9664 21.7103 20.5628 19.9476 20.656V20.6736C19.813 20.6745 19.6801 20.6754 19.5491 20.6754C18.3976 20.6754 17.335 20.6076 16.3454 20.4862V18.113C17.277 18.2414 18.344 18.3206 19.5799 18.3223C20.8289 18.3012 21.7754 17.9529 22.3912 17.2826C23.3298 16.2552 23.3254 14.729 23.3157 14.4546C22.7422 11.3661 19.9458 11.1867 19.6274 11.1761C17.0245 11.1788 15.9769 13.4087 16.0235 13.859L16.0288 17.2245H16.0261V20.4493H16.0244L16.0138 30.0206H26.8307C28.4563 30.0206 29.7722 28.7038 29.7722 27.0774V3.18903C29.7722 1.56434 28.4563 0.248403 26.8307 0.248403Z" fill="white"/>
<path d="M37.1467 0.555489H40.0821V29.9064H37.1467V0.555489Z" fill="white"/>
<path d="M44.9614 8.56719H47.8959V29.9055H44.9614V8.56719ZM44.9614 0.55545H47.8959V4.64226H44.9614V0.55545Z" fill="white"/>
<path d="M53.3284 10.9059H50.196V8.56787H53.3284V6.82179C53.3284 0.238576 58.5253 0.0388966 60.8265 0.0388966V2.38137C59.3575 2.45878 56.2251 2.45878 56.2251 7.09975V8.56787H60.8265V10.9059H56.2251V29.9061H53.3284V10.9059Z" fill="white"/>
<path d="M80.6978 17.7295C80.499 14.0007 76.8908 10.3511 72.4873 10.4699C67.8877 10.4699 64.4764 13.8415 64.1985 17.7295H80.6978ZM64.158 20.0676C64.3163 25.4228 68.8781 28.0019 72.4873 27.9597C75.7798 27.9597 78.4372 26.3359 79.8252 23.5598H82.8785C81.8871 25.86 80.3803 27.6052 78.5559 28.7567C76.7711 29.9055 74.6688 30.501 72.4873 30.501C65.0702 30.501 61.2227 24.5907 61.2227 19.2759C61.2227 13.0085 66.0624 7.97169 72.4477 7.97169C75.4622 7.97169 78.2384 9.04221 80.2615 10.9862C82.721 13.3665 83.9094 16.6581 83.5936 20.0676H64.158Z" fill="white"/>
<path d="M104.098 18.9987C104.098 15.8646 101.839 12.2941 97.4358 12.2941C95.5331 12.2941 93.9067 13.0488 92.7165 14.2777C91.5651 15.4687 90.8517 17.1743 90.8517 19.0779C90.8517 20.9418 91.5651 22.6087 92.7561 23.7971C93.9454 24.9882 95.6114 25.742 97.4754 25.742C101.443 25.742 104.098 22.6087 104.098 19.0374V18.9987ZM85.894 8.13166H90.7734V11.3045C92.3198 9.12213 94.8567 7.45697 98.4676 7.45697C106.082 7.45697 109.294 13.9223 109.294 19.1984C109.294 25.3849 104.892 30.5809 98.5081 30.5809C94.2638 30.5809 91.9627 28.3976 91.0883 27.0096V29.9053V37.5212H85.894V8.13166Z" fill="white"/>
<path d="M110.92 8.13127H115.839V10.9866C116.791 9.04257 118.578 7.49617 121.868 7.45658V12.6922H121.632C117.98 12.6922 116.116 14.3978 116.116 18.1662V29.9058H110.92V8.13127Z" fill="white"/>
<path d="M127.142 19.0378C127.142 22.8475 130.04 25.6615 133.609 25.6615C137.178 25.6615 140.034 22.8475 140.034 18.9991C140.034 15.1516 137.178 12.335 133.609 12.335C130.04 12.335 127.142 15.1516 127.142 18.9991V19.0378ZM121.947 18.9586C121.947 13.4064 126.034 7.49608 133.609 7.49608C141.185 7.49608 145.268 13.4064 145.268 18.9991C145.268 24.6305 141.185 30.5408 133.609 30.5408C126.034 30.5408 121.947 24.6305 121.947 18.9991V18.9586Z" fill="white"/>
<path d="M151.734 19.0378C151.734 22.8475 154.632 25.6615 158.201 25.6615C161.771 25.6615 164.627 22.8475 164.627 18.9991C164.627 15.1516 161.771 12.335 158.201 12.335C154.632 12.335 151.734 15.1516 151.734 18.9991V19.0378ZM146.54 18.9586C146.54 13.4064 150.625 7.49608 158.201 7.49608C165.777 7.49608 169.861 13.4064 169.861 18.9991C169.861 24.6305 165.777 30.5408 158.201 30.5408C150.625 30.5408 146.54 24.6305 146.54 18.9991V18.9586Z" fill="white"/>
<path d="M172.598 12.1373H169.901V8.13145H172.598V6.89995C172.598 0.435494 177.516 0.0396574 181.245 7.36438e-05V4.00507C179.936 4.00507 177.794 4.00507 177.794 7.05917V8.13145H181.245V12.1373H177.794V29.906H172.598V12.1373Z" fill="white"/>
<path d="M187.363 0.000124998H188.034L188.682 1.69783L189.325 0.000124998H190V2.37427H189.554V0.480407H189.542L188.837 2.37427H188.528L187.822 0.480407H187.81V2.37427H187.363V0.000124998ZM185.775 0.37749H185.058V0.000124998H186.974V0.37749H186.257V2.37427H185.775V0.37749Z" fill="#231F20"/>
<path d="M26.8307 0.248403H10.0921V13.7192H10.0842C10.0982 14.0842 10.2223 15.0096 11.0843 15.9306C11.5417 16.4188 12.2622 16.9404 13.3582 17.3723V19.8591C11.6394 19.3225 10.2707 18.529 9.29865 17.4576C7.95281 15.9763 7.74873 14.4414 7.73466 13.7192H7.72322V0.248403H2.94239C1.3177 0.248403 0 1.56434 0 3.18903V27.0774C0 28.7038 1.3177 30.0206 2.94239 30.0206H13.6661L13.6757 20.8187H13.6775V20.4871V19.9585V17.4937C13.6775 17.4937 13.6784 17.4955 13.6801 17.4955L13.6845 13.6787L13.6863 13.4483C13.7355 12.2 15.8423 8.83367 19.6555 8.82927C21.4297 8.86006 24.9289 10.0071 25.6406 14.1194L25.6546 14.2267C25.6634 14.3376 25.8508 16.9782 24.1223 18.8677C23.1169 19.9664 21.7103 20.5628 19.9476 20.656V20.6736C19.813 20.6745 19.6801 20.6754 19.5491 20.6754C18.3976 20.6754 17.335 20.6076 16.3454 20.4862V18.113C17.277 18.2414 18.344 18.3206 19.5799 18.3223C20.8289 18.3012 21.7754 17.9529 22.3912 17.2826C23.3298 16.2552 23.3254 14.729 23.3157 14.4546C22.7422 11.3661 19.9458 11.1867 19.6274 11.1761C17.0245 11.1788 15.9769 13.4087 16.0235 13.859L16.0288 17.2245H16.0261V20.4493H16.0244L16.0138 30.0206H26.8307C28.4563 30.0206 29.7722 28.7038 29.7722 27.0774V3.18903C29.7722 1.56434 28.4563 0.248403 26.8307 0.248403Z" fill="#231F20"/>
<path d="M37.1467 0.555489H40.0821V29.9064H37.1467V0.555489Z" fill="#231F20"/>
<path d="M44.9614 8.56719H47.8959V29.9055H44.9614V8.56719ZM44.9614 0.55545H47.8959V4.64226H44.9614V0.55545Z" fill="#231F20"/>
<path d="M53.3284 10.9059H50.196V8.56787H53.3284V6.82179C53.3284 0.238576 58.5253 0.0388966 60.8265 0.0388966V2.38137C59.3575 2.45878 56.2251 2.45878 56.2251 7.09975V8.56787H60.8265V10.9059H56.2251V29.9061H53.3284V10.9059Z" fill="#231F20"/>
<path d="M80.6978 17.7295C80.499 14.0007 76.8908 10.3511 72.4873 10.4699C67.8877 10.4699 64.4764 13.8415 64.1985 17.7295H80.6978ZM64.158 20.0676C64.3163 25.4228 68.8781 28.0019 72.4873 27.9597C75.7798 27.9597 78.4372 26.3359 79.8252 23.5598H82.8785C81.8871 25.86 80.3803 27.6052 78.5559 28.7567C76.7711 29.9055 74.6688 30.501 72.4873 30.501C65.0702 30.501 61.2227 24.5907 61.2227 19.2759C61.2227 13.0085 66.0624 7.97169 72.4477 7.97169C75.4622 7.97169 78.2384 9.04221 80.2615 10.9862C82.721 13.3665 83.9094 16.6581 83.5936 20.0676H64.158Z" fill="#231F20"/>
<path d="M104.098 18.9987C104.098 15.8646 101.839 12.2941 97.4358 12.2941C95.5331 12.2941 93.9067 13.0488 92.7165 14.2777C91.5651 15.4687 90.8517 17.1743 90.8517 19.0779C90.8517 20.9418 91.5651 22.6087 92.7561 23.7971C93.9454 24.9882 95.6114 25.742 97.4754 25.742C101.443 25.742 104.098 22.6087 104.098 19.0374V18.9987ZM85.894 8.13166H90.7734V11.3045C92.3198 9.12213 94.8567 7.45697 98.4676 7.45697C106.082 7.45697 109.294 13.9223 109.294 19.1984C109.294 25.3849 104.892 30.5809 98.5081 30.5809C94.2638 30.5809 91.9627 28.3976 91.0883 27.0096V29.9053V37.5212H85.894V8.13166Z" fill="#231F20"/>
<path d="M110.92 8.13127H115.839V10.9866C116.791 9.04257 118.578 7.49617 121.868 7.45658V12.6922H121.632C117.98 12.6922 116.116 14.3978 116.116 18.1662V29.9058H110.92V8.13127Z" fill="#231F20"/>
<path d="M127.142 19.0378C127.142 22.8475 130.04 25.6615 133.609 25.6615C137.178 25.6615 140.034 22.8475 140.034 18.9991C140.034 15.1516 137.178 12.335 133.609 12.335C130.04 12.335 127.142 15.1516 127.142 18.9991V19.0378ZM121.947 18.9586C121.947 13.4064 126.034 7.49608 133.609 7.49608C141.185 7.49608 145.268 13.4064 145.268 18.9991C145.268 24.6305 141.185 30.5408 133.609 30.5408C126.034 30.5408 121.947 24.6305 121.947 18.9991V18.9586Z" fill="#231F20"/>
<path d="M151.734 19.0378C151.734 22.8475 154.632 25.6615 158.201 25.6615C161.771 25.6615 164.627 22.8475 164.627 18.9991C164.627 15.1516 161.771 12.335 158.201 12.335C154.632 12.335 151.734 15.1516 151.734 18.9991V19.0378ZM146.54 18.9586C146.54 13.4064 150.625 7.49608 158.201 7.49608C165.777 7.49608 169.861 13.4064 169.861 18.9991C169.861 24.6305 165.777 30.5408 158.201 30.5408C150.625 30.5408 146.54 24.6305 146.54 18.9991V18.9586Z" fill="#231F20"/>
<path d="M172.598 12.1373H169.901V8.13145H172.598V6.89995C172.598 0.435494 177.516 0.0396574 181.245 7.36438e-05V4.00507C179.936 4.00507 177.794 4.00507 177.794 7.05917V8.13145H181.245V12.1373H177.794V29.906H172.598V12.1373Z" fill="#231F20"/>
<path d="M187.363 0.000124998H188.034L188.682 1.69783L189.325 0.000124998H190V2.37427H189.554V0.480407H189.542L188.837 2.37427H188.528L187.822 0.480407H187.81V2.37427H187.363V0.000124998ZM185.775 0.37749H185.058V0.000124998H186.974V0.37749H186.257V2.37427H185.775V0.37749Z" fill="#578097"/>
<path d="M26.8307 0.248403H10.0921V13.7192H10.0842C10.0982 14.0842 10.2223 15.0096 11.0843 15.9306C11.5417 16.4188 12.2622 16.9404 13.3582 17.3723V19.8591C11.6394 19.3225 10.2707 18.529 9.29865 17.4576C7.95281 15.9763 7.74873 14.4414 7.73466 13.7192H7.72322V0.248403H2.94239C1.3177 0.248403 0 1.56434 0 3.18903V27.0774C0 28.7038 1.3177 30.0206 2.94239 30.0206H13.6661L13.6757 20.8187H13.6775V20.4871V19.9585V17.4937C13.6775 17.4937 13.6784 17.4955 13.6801 17.4955L13.6845 13.6787L13.6863 13.4483C13.7355 12.2 15.8423 8.83367 19.6555 8.82927C21.4297 8.86006 24.9289 10.0071 25.6406 14.1194L25.6546 14.2267C25.6634 14.3376 25.8508 16.9782 24.1223 18.8677C23.1169 19.9664 21.7103 20.5628 19.9476 20.656V20.6736C19.813 20.6745 19.6801 20.6754 19.5491 20.6754C18.3976 20.6754 17.335 20.6076 16.3454 20.4862V18.113C17.277 18.2414 18.344 18.3206 19.5799 18.3223C20.8289 18.3012 21.7754 17.9529 22.3912 17.2826C23.3298 16.2552 23.3254 14.729 23.3157 14.4546C22.7422 11.3661 19.9458 11.1867 19.6274 11.1761C17.0245 11.1788 15.9769 13.4087 16.0235 13.859L16.0288 17.2245H16.0261V20.4493H16.0244L16.0138 30.0206H26.8307C28.4563 30.0206 29.7722 28.7038 29.7722 27.0774V3.18903C29.7722 1.56434 28.4563 0.248403 26.8307 0.248403Z" fill="#578097"/>
<path d="M37.1467 0.555489H40.0821V29.9064H37.1467V0.555489Z" fill="#231F20"/>
<path d="M44.9614 8.56719H47.8959V29.9055H44.9614V8.56719ZM44.9614 0.55545H47.8959V4.64226H44.9614V0.55545Z" fill="#231F20"/>
<path d="M53.3284 10.9059H50.196V8.56787H53.3284V6.82179C53.3284 0.238576 58.5253 0.0388966 60.8265 0.0388966V2.38137C59.3575 2.45878 56.2251 2.45878 56.2251 7.09975V8.56787H60.8265V10.9059H56.2251V29.9061H53.3284V10.9059Z" fill="#231F20"/>
<path d="M80.6978 17.7295C80.499 14.0007 76.8908 10.3511 72.4873 10.4699C67.8877 10.4699 64.4764 13.8415 64.1985 17.7295H80.6978ZM64.158 20.0676C64.3163 25.4228 68.8781 28.0019 72.4873 27.9597C75.7798 27.9597 78.4372 26.3359 79.8252 23.5598H82.8785C81.8871 25.86 80.3803 27.6052 78.5559 28.7567C76.7711 29.9055 74.6688 30.501 72.4873 30.501C65.0702 30.501 61.2227 24.5907 61.2227 19.2759C61.2227 13.0085 66.0624 7.97169 72.4477 7.97169C75.4622 7.97169 78.2384 9.04221 80.2615 10.9862C82.721 13.3665 83.9094 16.6581 83.5936 20.0676H64.158Z" fill="#231F20"/>
<path d="M104.098 18.9987C104.098 15.8646 101.839 12.2941 97.4358 12.2941C95.5331 12.2941 93.9067 13.0488 92.7165 14.2777C91.5651 15.4687 90.8517 17.1743 90.8517 19.0779C90.8517 20.9418 91.5651 22.6087 92.7561 23.7971C93.9454 24.9882 95.6114 25.742 97.4754 25.742C101.443 25.742 104.098 22.6087 104.098 19.0374V18.9987ZM85.894 8.13166H90.7734V11.3045C92.3198 9.12213 94.8567 7.45697 98.4676 7.45697C106.082 7.45697 109.294 13.9223 109.294 19.1984C109.294 25.3849 104.892 30.5809 98.5081 30.5809C94.2638 30.5809 91.9627 28.3976 91.0883 27.0096V29.9053V37.5212H85.894V8.13166Z" fill="#578097"/>
<path d="M110.92 8.13127H115.839V10.9866C116.791 9.04257 118.578 7.49617 121.868 7.45658V12.6922H121.632C117.98 12.6922 116.116 14.3978 116.116 18.1662V29.9058H110.92V8.13127Z" fill="#578097"/>
<path d="M127.142 19.0378C127.142 22.8475 130.04 25.6615 133.609 25.6615C137.178 25.6615 140.034 22.8475 140.034 18.9991C140.034 15.1516 137.178 12.335 133.609 12.335C130.04 12.335 127.142 15.1516 127.142 18.9991V19.0378ZM121.947 18.9586C121.947 13.4064 126.034 7.49608 133.609 7.49608C141.185 7.49608 145.268 13.4064 145.268 18.9991C145.268 24.6305 141.185 30.5408 133.609 30.5408C126.034 30.5408 121.947 24.6305 121.947 18.9991V18.9586Z" fill="#578097"/>
<path d="M151.734 19.0378C151.734 22.8475 154.632 25.6615 158.201 25.6615C161.771 25.6615 164.627 22.8475 164.627 18.9991C164.627 15.1516 161.771 12.335 158.201 12.335C154.632 12.335 151.734 15.1516 151.734 18.9991V19.0378ZM146.54 18.9586C146.54 13.4064 150.625 7.49608 158.201 7.49608C165.777 7.49608 169.861 13.4064 169.861 18.9991C169.861 24.6305 165.777 30.5408 158.201 30.5408C150.625 30.5408 146.54 24.6305 146.54 18.9991V18.9586Z" fill="#578097"/>
<path d="M172.598 12.1373H169.901V8.13145H172.598V6.89995C172.598 0.435494 177.516 0.0396574 181.245 7.36438e-05V4.00507C179.936 4.00507 177.794 4.00507 177.794 7.05917V8.13145H181.245V12.1373H177.794V29.906H172.598V12.1373Z" fill="#578097"/>
</svg>
