<?xml version="1.0" encoding="UTF-8" standalone="no"?>
<svg width="40px" height="41px" viewBox="0 0 40 41" version="1.1" xmlns="http://www.w3.org/2000/svg" xmlns:xlink="http://www.w3.org/1999/xlink" xmlns:sketch="http://www.bohemiancoding.com/sketch/ns">
    <!-- Generator: Sketch 3.4.2 (15857) - http://www.bohemiancoding.com/sketch -->
    <title>Pinterest</title>
    <desc>Created with Sketch.</desc>
    <defs></defs>
    <g id="Page-1" stroke="none" stroke-width="1" fill="none" fill-rule="evenodd" sketch:type="MSPage">
        <g id="Desktop" sketch:type="MSArtboardGroup" transform="translate(-25.000000, -659.000000)">
            <g id="Pinterest" sketch:type="MSLayerGroup" transform="translate(25.000000, 659.281749)">
                <rect id="Rectangle-101" fill="#CCCCCC" sketch:type="MSShapeGroup" x="0" y="0" width="40" height="40"></rect>
                <path d="M18.1430922,24.6050575 C18.6866383,25.654023 20.2732482,26.5777011 21.9597163,26.5777011 C26.9823546,26.5777011 30.3895603,21.9397701 30.3895603,15.731954 C30.3895603,11.0386207 26.463773,6.66666667 20.4992908,6.66666667 C13.0761986,6.66666667 9.33333333,12.0570115 9.33333333,16.5524138 C9.33333333,19.2742529 10.349844,21.6956322 12.5328794,22.597931 C12.8903262,22.7462069 13.2110071,22.6027586 13.3149504,22.202069 C13.3862128,21.9243678 13.5584681,21.2232184 13.6333617,20.931954 C13.7379858,20.5349425 13.6978156,20.3958621 13.4086809,20.0501149 C12.7800284,19.2972414 12.3787801,18.3248276 12.3787801,16.9464368 C12.3787801,12.9475862 15.3311773,9.36781609 20.0701277,9.36781609 C24.2646241,9.36781609 26.5711206,11.9636782 26.5711206,15.4321839 C26.5711206,19.9947126 24.5773617,23.8455172 21.6172482,23.8455172 C19.9825248,23.8455172 18.7601702,22.4763218 19.1514326,20.7977011 C19.6200851,18.7933333 20.5310638,16.6289655 20.5310638,15.1818391 C20.5310638,13.8871264 19.844539,12.805977 18.4236028,12.805977 C16.7525674,12.805977 15.4106099,14.5574713 15.4106099,16.9025287 C15.4106099,18.3958621 15.9096738,19.4064368 15.9096738,19.4064368 C15.9096738,19.4064368 14.1998298,26.7445977 13.8995745,28.0294253 C13.6197447,29.2317241 13.6240567,32.0305747 13.6680851,33.1354023 L14.8784113,33.1354023 C15.4714326,32.1850575 16.7128511,30.1754023 17.0439716,28.9554023 C17.2361986,28.2512644 18.1430922,24.6050575 18.1430922,24.6050575" id="Imported-Layers" fill="#FFFFFF" sketch:type="MSShapeGroup"></path>
            </g>
        </g>
    </g>
</svg>