<svg xmlns="http://www.w3.org/2000/svg" xml:space="preserve" style="enable-background:new 0 0 468.51 179.21" viewBox="0 0 468.51 179.21"><style>.st1{display:inline}</style><g id="Art__x2F__Copy"><path d="M86.67 77.67c-8.14-2.27-16.21-3.05-16.21-7.36 0-3.68 3.92-4.78 7.05-4.78 4.46 0 9.24 1.64 9 6.73h14.56c-.07-12.6-11.27-18-22.39-18-10.49 0-22.78 4.78-22.78 16.99 0 10.26 8.38 13.86 16.36 16.13 8.06 2.27 16.05 3.21 16.05 8.14 0 4.15-4.54 5.72-8.93 5.72-6.19 0-10.26-2.11-10.57-8.69H54.26c.08 14.33 11.43 19.96 24.27 19.96 12.29 0 24.35-4.54 24.35-18.71 0-10.11-8.15-13.86-16.21-16.13zM155.9 95.14l-8.14-24.44h-21.34V58.41h-13.31V70.7h-8.65v10.36h8.65v30.27h13.31V81.06h11.19l11.66 28.82-5.3 15.07h13.27l19.64-54.25h-13.62zM180.75 55.43h13.31v55.9h-13.31zM221.46 69.52c-11.98 0-21.92 8.92-21.92 21.37 0 13.62 9 21.61 22.24 21.61 9.08 0 17.77-4.07 20.2-13.47h-12.45c-1.25 2.97-4.38 4.46-7.6 4.46-5.64 0-8.85-3.68-9.08-9.24h29.83c.62-13.77-6.66-24.73-21.22-24.73zm-8.62 17.31c.78-4.93 3.91-8.3 8.61-8.3 4.46 0 7.67 3.76 7.91 8.3h-16.52zM334.1 69.52c-11.98 0-21.92 8.92-21.92 21.37 0 13.62 9 21.61 22.23 21.61 9.08 0 17.77-4.07 20.2-13.47h-12.45c-1.25 2.97-4.38 4.46-7.6 4.46-5.64 0-8.85-3.68-9.08-9.24h29.83c.63-13.77-6.65-24.73-21.21-24.73zm-8.61 17.31c.78-4.93 3.91-8.3 8.61-8.3 4.46 0 7.67 3.76 7.91 8.3h-16.52zM360.83 55.43h13.31v55.9h-13.31zM380.26 55.43h13.31v55.9h-13.31zM399.69 96.77h14.56v14.56h-14.56zM300.7 55.43l-7.9 40.87h-.16l-8.22-40.87h-13.7L262.5 96.3h-.16l-7.91-40.87h-14.56l15.11 55.9h14.8l7.67-38.52 7.83 38.52h14.56l15.43-55.9zM403.24 56.78v5.52h-1.37v-5.52h-2.21v-1.25h5.79v1.25h-2.21zM412.88 62.3v-4.74l-2.01 4.74h-1.13l-2.01-4.71v4.71h-1.3v-6.77h1.8l2.1 4.89 2.05-4.89h1.86v6.77h-1.36z"/></g></svg>