<?xml version="1.0" encoding="utf-8"?>
<!-- Generator: Adobe Illustrator 28.2.0, SVG Export Plug-In . SVG Version: 6.00 Build 0)  -->
<svg version="1.1" id="Layer_1" xmlns="http://www.w3.org/2000/svg" xmlns:xlink="http://www.w3.org/1999/xlink" x="0px" y="0px"
	 viewBox="0 0 117 21" style="enable-background:new 0 0 117 21;" xml:space="preserve">
<style type="text/css">
	.st0{fill:#134981;}
</style>
<g>
	<g>
		<path class="st0" d="M5.78,10.52c0-3.82,3.03-6.01,6.1-6.01c2.57,0,4.21,1.63,4.21,2.92c0,0.61-0.39,1.03-0.97,1.03
			c-0.46,0-0.88-0.33-0.88-1.08c0-0.92-0.86-2.3-2.85-2.3c-2.42,0-4.13,1.71-4.13,4.48c0,3.45,2.35,5.78,5.42,5.78
			c1.45,0,2.42-0.59,3.38-1.65l0.22,0.18c-0.48,0.88-1.98,2.52-4.59,2.52C8.66,16.39,5.78,14.21,5.78,10.52z"/>
		<path class="st0" d="M16.93,12.27c0-2.47,1.91-4.12,4.1-4.12c2.14,0,4.03,1.56,4.03,4.05c0,2.47-1.91,4.12-4.1,4.12
			C18.82,16.32,16.93,14.76,16.93,12.27z M23.78,12.76c0-2.28-1.35-4.19-3.19-4.19c-1.35,0-2.38,1-2.38,3.14
			c0,2.26,1.35,4.19,3.19,4.19C22.77,15.9,23.78,14.9,23.78,12.76z"/>
		<path class="st0" d="M38.88,15.71v0.3c-0.35,0.19-0.61,0.3-1.04,0.3c-0.63,0-1.07-0.26-1.07-1.12V11.3c0-1.35-0.61-2.4-1.89-2.4
			c-1.16,0-1.98,1.1-1.98,2.4v3.72c0,0.61,0.3,0.81,1.14,0.89v0.3h-3.49v-0.3c0.82-0.09,1.12-0.28,1.12-0.89V11.3
			c0-1.35-0.61-2.4-1.91-2.4c-1.16,0-1.96,1.1-1.96,2.4v3.72c0,0.61,0.3,0.81,1.12,0.89v0.3h-3.47v-0.3
			c0.82-0.09,1.12-0.28,1.12-0.89V9.94c0-0.79-0.12-1.12-1.16-1.04V8.6l1.81-0.42c0.33-0.09,0.58,0.09,0.58,0.51
			c0,0.7,0.11,0.93,0.37,0.7c0.19-0.21,0.91-1.23,2.33-1.23c0.77,0,1.49,0.32,1.95,1c0.26,0.37,0.44,0.46,0.67,0.24
			c0.19-0.14,0.93-1.25,2.46-1.25c1.32,0,2.44,0.86,2.44,2.79v4.05C38.01,15.62,38.31,15.85,38.88,15.71z"/>
		<path class="st0" d="M47.95,12.08c0,2.74-1.82,4.24-3.81,4.24c-1.79,0-2.44-1.21-2.44-0.16v2.19c0,0.61,0.3,0.81,1.12,0.89v0.3
			h-3.47v-0.3c0.82-0.09,1.12-0.28,1.12-0.89V9.9c0-0.77-0.12-1.12-1.16-1.02V8.6l1.81-0.42c0.33-0.09,0.58,0.09,0.58,0.47v0.46
			c0,0.12,0.11,0.24,0.3,0.03c0.32-0.39,1.3-1,2.49-1C46.42,8.15,47.95,9.73,47.95,12.08z M46.69,12.8c0-2.12-1.18-3.75-2.86-3.75
			c-0.91,0-2.12,0.42-2.12,1.88v2.37c0,1.81,1.42,2.63,2.61,2.63C45.81,15.92,46.69,14.67,46.69,12.8z"/>
		<path class="st0" d="M64.17,15.04v-4.09c0-1.93-1.23-2.79-2.58-2.79c-1.54,0-2.35,1.02-2.54,1.23c-0.26,0.23-0.37,0-0.37-0.7
			c0-0.42-0.24-0.6-0.58-0.51L56.3,8.6v0.28c1.04-0.11,1.16,0.24,1.16,1.02v4.62c0,0.61-0.21,1.17-1.03,1.18
			c-0.85,0-1.08-0.57-1.08-1.16v-3.58c0-1.84-0.7-2.81-2.74-2.81c-1.61,0-3.39,0.68-3.39,1.86c0,0.44,0.23,0.74,0.65,0.74
			c0.44,0,0.68-0.3,0.68-0.88c0-0.86,0.47-1.32,1.46-1.32c1.47,0,2.11,0.96,2.11,2.14v0.42c0,0.32-0.18,0.4-0.37,0.42
			c-4.07,0.44-5.1,1.53-5.1,2.86c0,1.37,1.1,1.93,2.26,1.93c1.1,0,2.26-0.46,2.95-1.3c0.11-0.12,0.2-0.17,0.23,0
			c0.13,0.72,1,1.19,1.64,1.19c0.31,0,4.08,0,4.08,0v-0.3c-0.82-0.09-1.12-0.28-1.12-0.89v-3.72c0-1.3,0.89-2.4,2.17-2.4
			c1.39,0,2.09,1.05,2.09,2.4v3.88c0,0.86,0.42,1.12,1.05,1.12c0.44,0,0.7-0.1,1.04-0.3v-0.28C64.47,15.88,64.17,15.64,64.17,15.04z
			 M54.12,13.76c0,0.95-1.12,1.86-2.38,1.86c-1.16,0-1.72-0.82-1.72-1.63c0-0.89,0.65-1.68,3.4-2.03c0.61-0.07,0.7,0.21,0.7,0.61
			L54.12,13.76L54.12,13.76z"/>
		<g>
			<path class="st0" d="M79.58,9.64c-1.52-0.54-2.74-1.15-2.74-2.68c0-1.07,0.97-2.15,2.36-2.15h0.01c1.9-0.02,2.6,1.15,2.6,2.13
				c0,0.68,0.32,0.92,0.74,0.92c0.53,0,0.83-0.32,0.83-0.87c0-1.16-1.43-2.63-3.76-2.63h0c-2.32,0-3.88,1.34-3.88,3.03
				c0,1.91,1.5,2.83,3.59,3.55c1.63,0.57,3.16,0.92,3.16,2.72c0,1.46-1.1,2.17-2.43,2.21l-0.23,0c-1.79,0-2.66-1.29-2.66-2.12
				c0-0.68-0.31-0.91-0.72-0.91c-0.53,0-0.81,0.32-0.81,0.86c0,1.16,1.38,2.63,3.71,2.63h0c2.29,0,4.36-0.91,4.36-3.16
				C83.69,10.9,81.28,10.25,79.58,9.64z"/>
			<path class="st0" d="M87.32,15.74c-0.79,0-1.07-0.72-1.07-1.61V9.4c0-0.23,0.11-0.33,0.32-0.33h1.6V8.65h-1.6
				c-0.21,0-0.32-0.11-0.32-0.44V6.65h-0.39c-0.24,1.21-0.89,1.91-1.95,2.12v0.3h0.75c0.21,0,0.35,0.07,0.35,0.33v4.55
				c0,1.72,0.83,2.28,1.91,2.28c0.75,0,1.23-0.26,1.44-0.47l-0.16-0.26C88.11,15.58,87.83,15.74,87.32,15.74z"/>
			<path class="st0" d="M92.74,8.07c-2.19,0-4.1,1.65-4.1,4.12c0,2.49,1.89,4.05,4.03,4.05c2.19,0,4.1-1.65,4.1-4.12
				C96.77,9.64,94.88,8.07,92.74,8.07z M93.11,15.83c-1.84,0-3.19-1.93-3.19-4.19c0-2.14,1.04-3.14,2.38-3.14
				c1.84,0,3.19,1.91,3.19,4.19C95.49,14.83,94.48,15.83,93.11,15.83z"/>
			<path class="st0" d="M102.19,8.09c-1.72-0.04-2.49,0.93-2.75,1.24c-0.24,0.24-0.33,0.09-0.33-0.61c0-0.42-0.24-0.6-0.58-0.51
				l-1.41,0.32v0.28c0.98,0.45,1.16,1.6,1.16,2.37v3.77c0,0.61-0.3,0.81-1.12,0.89v0.3h3.51v-0.3c-0.86-0.09-1.16-0.28-1.16-0.89
				v-3.44c0-1.65,0.86-2.7,1.91-2.7c0.6,0,0.93,0.4,0.93,0.84c0,0.28,0.24,0.54,0.65,0.54c0.42,0,0.74-0.32,0.74-0.77
				C103.74,9.06,103.6,8.12,102.19,8.09z"/>
			<path class="st0" d="M110.96,14.34c-0.58,0.77-1.37,1-2.16,1c-1.68,0-3-1.04-3.37-2.72c-0.08-0.39,0.09-0.53,0.4-0.53l2.1-0.03
				c2.32-0.05,3.23-0.37,3.23-1.4c0-1.4-1.19-2.58-3.05-2.58c-2.11,0-4.03,1.53-4.03,4.09c0,2.47,1.82,4.09,4.02,4.09
				c1.72,0,2.79-1.1,3.12-1.7L110.96,14.34z M107.84,8.44c1.32,0,2.03,0.81,2.03,2.03c0,0.81-0.58,1.19-2.3,1.23l-1.7,0.02
				c-0.33,0-0.53-0.07-0.51-0.67C105.51,9.42,106.37,8.44,107.84,8.44z"/>
		</g>
		<path class="st0" d="M65.11,18.67c0-0.53,0.4-0.82,0.84-0.82c0.93,0,0.37,1.23,1.05,1.23c0.42,0,0.82-0.7,1.12-1.46
			c0.4-1.04,0.12-1.79-0.07-2.3l-2.09-5.07c-0.47-1.18-0.63-1.37-1.39-1.65v-0.3h3.31v0.3c-0.95,0.28-1.05,0.47-0.56,1.65l1.75,4.24
			c0.09,0.18,0.24,0.18,0.32,0l0.95-2.37c1.23-3.07,0.91-3.24-0.11-3.53v-0.3h3.03v0.3c-1,0.28-1.28,0.51-1.74,1.65l-3.02,7.38
			c-0.47,1.14-0.84,2.05-2.14,2.05C65.55,19.69,65.11,19.25,65.11,18.67z"/>
	</g>
	<g>
		<path class="st0" d="M18.17,6.12c0.44-0.06,0.59-0.1,0.59-0.37V2.14c0-0.22-0.04-0.34-0.63-0.34c-0.53,0-0.71,0.14-0.91,0.71
			h-0.15l0.11-0.95l0.43,0.02h2.89l0.43-0.02l0.12,0.95H20.9c-0.21-0.57-0.38-0.71-0.91-0.71c-0.59,0-0.63,0.12-0.63,0.34v3.62
			c0,0.27,0.14,0.31,0.59,0.37v0.13h-1.77L18.17,6.12L18.17,6.12z"/>
		<path class="st0" d="M24.95,6.04v0.12c-0.14,0.08-0.26,0.13-0.44,0.13c-0.27,0-0.45-0.11-0.45-0.48V4.15
			c0-0.56-0.35-1.02-0.89-1.02c-0.55,0-0.93,0.46-0.93,1.02v1.59c0,0.26,0.13,0.35,0.48,0.38v0.13h-1.49V6.12
			C21.57,6.09,21.7,6,21.7,5.74V2.05c0-0.32-0.05-0.47-0.5-0.43V1.51l0.77-0.19c0.14-0.04,0.25,0.04,0.25,0.21v1.5
			c0,0.3,0.04,0.4,0.16,0.3c0.09-0.09,0.43-0.53,1.09-0.53c0.58,0,1.1,0.37,1.1,1.2v1.75C24.58,6,24.7,6.11,24.95,6.04z"/>
		<path class="st0" d="M28.12,5.57c-0.14,0.26-0.6,0.73-1.34,0.73c-0.94,0-1.72-0.69-1.72-1.75c0-1.1,0.83-1.75,1.73-1.75
			c0.8,0,1.31,0.5,1.31,1.1c0,0.44-0.39,0.58-1.38,0.6l-0.9,0.01c-0.14,0-0.21,0.05-0.17,0.22c0.16,0.72,0.72,1.16,1.44,1.16
			c0.34,0,0.68-0.1,0.92-0.43L28.12,5.57z M25.61,4.07c-0.01,0.26,0.07,0.29,0.22,0.29l0.73-0.01c0.74-0.01,0.98-0.18,0.98-0.53
			c0-0.53-0.31-0.87-0.87-0.87C26.03,2.95,25.67,3.37,25.61,4.07z"/>
	</g>
</g>
</svg>
