<svg width="190" height="35" viewBox="0 0 190 35" fill="none" xmlns="http://www.w3.org/2000/svg">
<path d="M84.3774 0.27427C71.2532 0.8926 59.1842 2.49329 49.1748 4.70071L60.7099 6.07665C68.9856 3.94732 79.2081 2.41732 91.3795 1.84436C96.5372 1.60062 101.546 1.55419 106.325 1.68187C104.16 1.70403 101.953 1.76312 99.709 1.87074C87.0238 2.47219 77.0914 4.46857 68.3684 6.98937L77.7689 8.10891C84.1305 5.52796 92.5497 3.62549 104.833 3.04304C105.38 3.01771 105.925 2.9945 106.468 2.97551C96.9582 3.99164 87.812 6.14629 82.7704 8.70508L89.4032 9.49646C94.2654 6.485 105.603 4.02646 116.28 3.47882C119.229 3.32899 120.942 3.27623 124.445 3.46616C128.032 3.73206 129.902 4.11826 132.313 4.57409C136.946 5.61554 140.842 6.9018 143.779 8.38748L145.328 8.31256C135.699 2.38883 111.93 -1.02359 84.3774 0.27427Z" fill="white"/>
<path d="M2.09882 18.565V13.861H8.16922V18.565H11.5384V22.5683H8.16922V28.3854C8.16922 29.4965 8.71052 30.0062 10.0453 30.0062C10.5528 30.0062 10.8388 29.9756 11.2208 29.8162V33.5041C9.63168 34.0116 8.99542 34.1382 7.34407 34.1382C4.38749 34.1382 2.06611 33.1854 2.06611 30.0389V22.5683H0.0644531V18.565H2.09882Z" fill="white"/>
<path d="M12.8093 33.5039V18.5648H18.6898V21.0434H18.7531C19.9929 18.6914 21.2644 17.9285 25.1728 17.9285V23.8407C24.4415 23.5547 23.7113 23.427 22.9485 23.427C20.0562 23.427 18.9114 24.8578 18.9114 27.5907V33.5039H12.8093Z" fill="white"/>
<path d="M31.657 22.8234C31.7203 21.4242 32.7375 20.9167 34.0089 20.9167C35.2171 20.9167 36.2659 21.3609 36.2659 22.759C36.2659 23.7772 35.0894 24.5401 32.2932 24.5401C27.2073 24.5401 25.2373 26.1303 25.2373 29.4667C25.2373 33.3761 28.9874 34.139 30.9901 34.139C32.4198 34.139 34.9618 33.4405 36.2332 31.4051H36.2976C36.3609 32.2946 36.4242 32.9952 36.7418 33.5038H42.9082C42.082 32.6122 41.8594 31.2457 41.8594 29.5933V24.1909C41.8594 20.3764 40.0487 17.9284 33.5003 17.9284C29.9085 17.9284 26.4444 18.8496 25.8092 22.8234H31.657ZM36.0433 28.8304C35.98 29.913 34.7718 30.9598 33.246 30.9598C32.2289 30.9598 31.2117 30.2613 31.2117 29.0847C31.2117 26.5745 34.9312 27.082 36.2332 25.7156L36.0433 28.8304Z" fill="white"/>
<path d="M54.6678 14.7185C54.0959 14.4959 53.524 14.3671 52.9193 14.3671C51.9022 14.3671 51.1087 15.0688 51.1087 16.0533V18.5657H54.6044V22.569H51.1087V33.5037H45.0056V22.569H42.9712V18.5657H45.0056V15.895C45.0056 11.668 47.0399 10.3005 50.2814 10.3005C51.7122 10.3005 53.143 10.3965 54.6678 11.0011V14.7185Z" fill="white"/>
<path d="M66.0773 14.7185C65.5054 14.4959 64.9335 14.3671 64.33 14.3671C63.3128 14.3671 62.5183 15.0688 62.5183 16.0533V18.5657H66.014V22.569H62.5183V33.5037H56.4151V22.569H54.3818V18.5657H56.4151V15.895C56.4151 11.668 58.4495 10.3005 61.6921 10.3005C63.1229 10.3005 64.5526 10.3965 66.0773 11.0011V14.7185Z" fill="white"/>
<path d="M67.666 10.8104H73.7702V16.2762H67.666V10.8104ZM67.666 18.5649H73.7702V33.504H67.666V18.5649Z" fill="white"/>
<path d="M86.1322 23.8404C86.0056 23.1725 85.783 22.6323 85.4326 22.2514C85.0517 21.8694 84.5442 21.6794 83.8436 21.6794C82.2545 21.6794 81.2373 23.1103 81.2373 25.8115C81.2373 29.6882 82.5721 30.3878 83.9079 30.3878C85.7513 30.3878 86.1966 29.3389 86.3243 28.0358H92.4253C92.2659 30.3255 91.1865 31.8502 89.5974 32.8041C88.0073 33.7559 85.9096 34.1389 83.7802 34.1389C78.7587 34.1389 74.8176 31.214 74.8176 25.9381C74.8176 22.1891 77.8692 17.9283 83.9079 17.9283C88.1666 17.9283 91.79 20.0893 92.4253 23.8404H86.1322Z" fill="white"/>
<path d="M124.969 19.3797L127.671 25.2306H122.267L124.969 19.3797ZM116.41 32.9081H118.766L121.39 27.1595H128.552L131.175 32.9081H133.525L124.969 14.5112L116.41 32.9081Z" fill="white"/>
<path d="M104.441 28.0137L99.0925 14.5118L92.9124 32.9002H95.1578L99.2814 20.4461L104.441 33.4669L109.6 20.4461L113.638 32.9087H115.883L109.788 14.5118L104.441 28.0137Z" fill="white"/>
<path d="M140.056 22.5318C137.088 21.809 136.096 21.0883 136.096 19.6987C136.096 18.0927 137.543 16.9162 139.551 16.9162C141.446 16.9162 142.862 17.9323 143.161 19.6174L145.24 19.1616C145.053 17.9038 144.467 16.8909 143.504 16.1153C142.461 15.2828 141.176 14.8565 139.634 14.8565C138.053 14.8565 136.682 15.3408 135.594 16.2778C134.494 17.2116 133.935 18.4135 133.935 19.8306C133.935 21.0082 134.312 21.943 135.063 22.6669C135.858 23.4403 137.198 24.0565 139.04 24.4839C142.221 25.2309 143.319 26.0899 143.319 27.8003C143.319 29.7218 141.713 31.0871 139.443 31.0871C137.17 31.0871 135.487 29.7217 135.374 27.6652L133.294 28.1232C133.374 29.5118 133.988 30.6862 135.108 31.6506C136.259 32.6108 137.676 33.092 139.364 33.092C141.101 33.092 142.544 32.5844 143.719 31.5947C144.897 30.5785 145.486 29.2944 145.486 27.7718C145.486 25.0748 144.011 23.4952 140.056 22.5318Z" fill="white"/>
<path d="M145.745 17.0256H150.857V32.9081H152.992V17.0256H158.098V15.0989H145.745V17.0256Z" fill="white"/>
<path d="M159.753 32.9083H170.236V30.9826H161.893V24.8563H169.916V22.9337H161.893V17.0258H170.236V15.0991H159.753V32.9083Z" fill="white"/>
<path d="M187.514 15.3172H186.691V18.2105H187.226V15.9207H187.24L188.105 18.2105H188.497L189.361 15.9345L189.376 15.9207V18.2105H189.909V15.3172H189.093L188.309 17.3663L187.514 15.3172ZM186.101 15.3172H183.771V15.7656H184.649V18.2105H185.223V15.7656H186.101V15.3172Z" fill="white"/>
<path d="M174.557 32.8712H174.603V17.0257H178.076C180.322 17.0257 181.874 18.3341 181.874 20.3411C181.874 22.3448 180.322 23.6554 178.076 23.6554H175.404L182.998 32.8712H185.665L179.36 25.2603C180.675 25.2603 181.792 24.777 182.678 23.8421C183.558 22.9041 184.012 21.7297 184.012 20.3411C184.012 18.8153 183.504 17.5871 182.514 16.6237C181.445 15.6044 180.026 15.099 178.265 15.099H172.458V32.9082H174.557V32.8712Z" fill="white"/>
<path d="M84.47 0.469597C71.3447 1.08793 59.2768 2.68862 49.2664 4.89604L60.8015 6.27093C69.0761 4.14159 79.2997 2.61159 91.4711 2.03864C96.6298 1.79595 101.639 1.74952 106.416 1.8772C104.25 1.89935 102.044 1.9595 99.8016 2.06607C87.1153 2.66857 77.183 4.6639 68.4599 7.18365L77.8615 8.30424C84.221 5.72329 92.6423 3.82187 104.926 3.23731C105.471 3.21199 106.018 3.18983 106.56 3.16978C97.0508 4.18696 87.9046 6.34162 82.8619 8.90041L89.4958 9.69179C94.358 6.67928 105.694 4.22178 116.373 3.67415C119.321 3.52432 121.035 3.47156 124.538 3.66149C128.123 3.92634 129.993 4.31358 132.404 4.77047C137.038 5.81087 140.932 7.09712 143.872 8.5828L145.421 8.50789C135.79 2.58416 112.022 -0.828262 84.47 0.469597Z" fill="#231F20"/>
<path d="M2.19111 18.7603V14.0563H8.2615V18.7603H11.6296V22.7636H8.2615V28.5808C8.2615 29.6908 8.80175 30.2015 10.1365 30.2015C10.6451 30.2015 10.93 30.1698 11.3131 30.0105V33.6973C9.72397 34.2069 9.0877 34.3335 7.4353 34.3335C4.47872 34.3335 2.1584 33.3797 2.1584 30.2321V22.7636H0.156738V18.7603H2.19111Z" fill="#231F20"/>
<path d="M12.9004 33.6976V18.7607H18.7819V21.2392H18.8452C20.085 18.8862 21.3555 18.1244 25.2649 18.1244V24.0355C24.5336 23.7495 23.8035 23.6229 23.0406 23.6229C20.1473 23.6229 19.0035 25.0526 19.0035 27.7855V33.6976H12.9004Z" fill="#231F20"/>
<path d="M31.7488 23.0182C31.8121 21.6201 32.8293 21.1115 34.1007 21.1115C35.3078 21.1115 36.3577 21.5557 36.3577 22.9548C36.3577 23.971 35.1812 24.736 32.385 24.736C27.3002 24.736 25.3291 26.3251 25.3291 29.6615C25.3291 33.5709 29.0792 34.3338 31.0808 34.3338C32.5116 34.3338 35.0536 33.6353 36.3261 31.5999H36.3894C36.4527 32.4894 36.516 33.19 36.8347 33.6975H43C42.1738 32.808 41.9512 31.4416 41.9512 29.7881V24.3857C41.9512 20.5712 40.1405 18.1243 33.5932 18.1243C30.0003 18.1243 26.5362 19.0444 25.901 23.0182H31.7488ZM36.1351 29.0252C36.0718 30.1078 34.8647 31.1546 33.3378 31.1546C32.3207 31.1546 31.3045 30.4561 31.3045 29.2795C31.3045 26.7693 35.023 27.2768 36.3261 25.9104L36.1351 29.0252Z" fill="#231F20"/>
<path d="M54.7595 14.9137C54.1876 14.6911 53.6157 14.5623 53.0111 14.5623C51.9949 14.5623 51.2004 15.264 51.2004 16.2485V18.7609H54.6962V22.7631H51.2004V33.6979H45.0973V22.7631H43.064V18.7609H45.0973V16.0902C45.0973 11.8632 47.1316 10.4957 50.3731 10.4957C51.8039 10.4957 53.2348 10.5917 54.7595 11.1964V14.9137Z" fill="#231F20"/>
<path d="M66.1695 14.9137C65.5976 14.6911 65.0257 14.5623 64.421 14.5623C63.4049 14.5623 62.6093 15.264 62.6093 16.2485V18.7609H66.1062V22.7631H62.6093V33.6979H56.5073V22.7631H54.4729V18.7609H56.5073V16.0902C56.5073 11.8632 58.5416 10.4957 61.7831 10.4957C63.2139 10.4957 64.6437 10.5917 66.1695 11.1964V14.9137Z" fill="#231F20"/>
<path d="M67.7576 11.0057H73.8607V16.4715H67.7576V11.0057ZM67.7576 18.7601H73.8607V33.6971H67.7576V18.7601Z" fill="#231F20"/>
<path d="M86.2248 24.0352C86.0961 23.3673 85.8735 22.8271 85.5252 22.4462C85.1443 22.0652 84.6357 21.8743 83.9362 21.8743C82.3471 21.8743 81.3278 23.3051 81.3278 26.0063C81.3278 29.8841 82.6636 30.5836 84.0005 30.5836C85.8439 30.5836 86.2881 29.5337 86.4148 28.2306H92.5179C92.3575 30.5203 91.277 32.045 89.689 32.9989C88.0999 33.9517 86.0022 34.3337 83.8718 34.3337C78.8513 34.3337 74.9092 31.4088 74.9092 26.134C74.9092 22.3839 77.9597 18.1242 84.0005 18.1242C88.2592 18.1242 91.8805 20.2852 92.5179 24.0352H86.2248Z" fill="#231F20"/>
<path d="M125.062 19.5744L127.761 25.4264H122.358L125.062 19.5744ZM116.502 33.1038H118.858L121.481 27.3542H128.644L131.266 33.1038H133.618L125.062 14.7069L116.502 33.1038Z" fill="#231F20"/>
<path d="M104.533 28.2084L99.1852 14.7065L93.0029 33.0949H95.2473L99.3719 20.6418L104.533 33.6616L109.689 20.6418L113.73 33.1044H115.974L109.879 14.7065L104.533 28.2084Z" fill="#231F20"/>
<path d="M140.149 22.7276C137.181 22.0037 136.188 21.2841 136.188 19.8934C136.188 18.2885 137.635 17.112 139.644 17.112C141.539 17.112 142.954 18.1281 143.253 19.8132L145.333 19.3563C145.145 18.0985 144.561 17.0856 143.596 16.3111C142.553 15.4786 141.269 15.0523 139.726 15.0523C138.145 15.0523 136.776 15.5366 135.687 16.4725C134.586 17.4064 134.028 18.6082 134.028 20.0253C134.028 21.2039 134.403 22.1388 135.154 22.8626C135.95 23.635 137.292 24.2523 139.133 24.6786C142.312 25.4267 143.412 26.2846 143.412 27.995C143.412 29.9175 141.805 31.2829 139.534 31.2829C137.262 31.2829 135.579 29.9175 135.467 27.8599L133.384 28.3179C133.464 29.7075 134.078 30.8809 135.199 31.8453C136.351 32.8066 137.77 33.2867 139.455 33.2867C141.194 33.2867 142.638 32.7791 143.811 31.7904C144.989 30.7743 145.578 29.4891 145.578 27.9665C145.578 25.2695 144.103 23.6909 140.149 22.7276Z" fill="#231F20"/>
<path d="M145.837 17.221H150.947V33.1044H153.086V17.221H158.19V15.2932H145.837V17.221Z" fill="#231F20"/>
<path d="M159.844 33.1041H170.328V31.1774H161.986V25.051H170.008V23.1296H161.986V17.2206H170.328V15.2939H159.844V33.1041Z" fill="#231F20"/>
<path d="M187.605 15.5119H186.785V18.4052H187.319V16.1154H187.331L188.196 18.4052H188.589L189.452 16.1292L189.467 16.1154V18.4052H190V15.5119H189.185L188.398 17.5621L187.605 15.5119ZM186.194 15.5119H183.862V15.9614H184.74V18.4052H185.316V15.9614H186.194V15.5119Z" fill="#231F20"/>
<path d="M174.649 33.066H174.695V17.2205H178.168C180.413 17.2205 181.966 18.5289 181.966 20.5359C181.966 22.5396 180.413 23.8502 178.168 23.8502H175.495L183.088 33.066H185.757L179.452 25.4551C180.767 25.4551 181.884 24.9729 182.771 24.0369C183.651 23.0999 184.102 21.9245 184.102 20.5359C184.102 19.0101 183.597 17.7819 182.604 16.8185C181.537 15.7992 180.118 15.2938 178.358 15.2938H172.55V33.104H174.649V33.066Z" fill="#231F20"/>
<path d="M84.3135 0.334115C71.1882 0.952445 59.1203 2.55314 49.1099 4.76056L60.645 6.1365C68.9207 4.00716 79.1432 2.47717 91.3146 1.90421C96.4733 1.66046 101.482 1.61404 106.261 1.74171C104.096 1.76387 101.888 1.82402 99.6441 1.93059C86.9599 2.53203 77.0265 4.52842 68.3045 7.04922L77.705 8.16981C84.0655 5.58781 92.4858 3.68534 104.769 3.10288C105.316 3.07756 105.861 3.05434 106.404 3.03535C96.8943 4.05254 87.7481 6.20614 82.7065 8.76493L89.3393 9.5563C94.2015 6.54485 105.538 4.0863 116.217 3.53867C119.164 3.38883 120.878 3.33713 124.381 3.52601C127.969 3.79191 129.837 4.1781 132.249 4.63393C136.882 5.67539 140.778 6.96164 143.715 8.44732L145.264 8.3724C135.635 2.44762 111.865 -0.963745 84.3135 0.334115Z" fill="#B22525"/>
<path d="M2.03437 18.6253V13.9203H8.10476V18.6253H11.4739V22.6286H8.10476V28.4458C8.10476 29.5569 8.64501 30.0665 9.98086 30.0665C10.4884 30.0665 10.7743 30.0349 11.1563 29.8756V33.5623C9.56723 34.072 8.93096 34.1986 7.27857 34.1986C4.32303 34.1986 2.00166 33.2447 2.00166 30.0982V22.6286H0V18.6253H2.03437Z" fill="#231F20"/>
<path d="M12.7446 33.5627V18.6257H18.6251V21.1032H18.6884C19.9282 18.7513 21.1997 17.9894 25.1081 17.9894V23.9005C24.3768 23.6146 23.6466 23.4869 22.8838 23.4869C19.9915 23.4869 18.8467 24.9187 18.8467 27.6506V33.5627H12.7446Z" fill="#231F20"/>
<path d="M31.5925 22.8832C31.6558 21.4851 32.6719 20.9765 33.9434 20.9765C35.1527 20.9765 36.2004 21.4207 36.2004 22.8199C36.2004 23.836 35.025 24.6 32.2288 24.6C27.1429 24.6 25.1729 26.1901 25.1729 29.5266C25.1729 33.4349 28.9229 34.1989 30.9256 34.1989C32.3554 34.1989 34.8973 33.4993 36.1688 31.4649H36.2331C36.2965 32.3555 36.3598 33.055 36.6784 33.5626H42.8438C42.0176 32.672 41.7939 31.3056 41.7939 29.6532V24.2507C41.7939 20.4363 39.9843 17.9893 33.4359 17.9893C29.8441 17.9893 26.38 18.9094 25.7448 22.8832H31.5925ZM35.9789 28.8903C35.9155 29.9729 34.7074 31.0196 33.1816 31.0196C32.1644 31.0196 31.1472 30.3211 31.1472 29.1446C31.1472 26.6343 34.8667 27.1419 36.1688 25.7744L35.9789 28.8903Z" fill="#231F20"/>
<path d="M54.6032 14.7788C54.0313 14.5561 53.4594 14.4274 52.8548 14.4274C51.8376 14.4274 51.0441 15.1291 51.0441 16.1136V18.6259H54.5399V22.6282H51.0441V33.5629H44.941V22.6282H42.9077V18.6259H44.941V15.9553C44.941 11.7283 46.9754 10.3608 50.2169 10.3608C51.6466 10.3608 53.0785 10.4568 54.6032 11.0603V14.7788Z" fill="#231F20"/>
<path d="M66.0129 14.7788C65.441 14.5561 64.8691 14.4274 64.2655 14.4274C63.2483 14.4274 62.4538 15.1291 62.4538 16.1136V18.6259H65.9496V22.6282H62.4538V33.5629H56.3507V22.6282H54.3174V18.6259H56.3507V15.9553C56.3507 11.7283 58.3851 10.3608 61.6276 10.3608C63.0584 10.3608 64.4882 10.4568 66.0129 11.0603V14.7788Z" fill="#231F20"/>
<path d="M67.6013 10.8696H73.7055V16.3353H67.6013V10.8696ZM67.6013 18.6251H73.7055V33.5621H67.6013V18.6251Z" fill="#231F20"/>
<path d="M86.068 23.9002C85.9403 23.2323 85.7177 22.692 85.3684 22.31C84.9875 21.9302 84.4789 21.7392 83.7793 21.7392C82.1903 21.7392 81.1731 23.17 81.1731 25.8712C81.1731 29.7479 82.5079 30.4486 83.8437 30.4486C85.6871 30.4486 86.1324 29.3987 86.259 28.0966H92.361C92.2017 30.3853 91.1223 31.911 89.5332 32.8639C87.9441 33.8167 85.8454 34.1987 83.716 34.1987C78.6945 34.1987 74.7534 31.2748 74.7534 25.9989C74.7534 22.2488 77.805 17.9891 83.8437 17.9891C88.1024 17.9891 91.7248 20.1491 92.361 23.9002H86.068Z" fill="#231F20"/>
<path d="M124.906 19.4395L127.607 25.2904H122.203L124.906 19.4395ZM116.345 32.9667H118.702L121.326 27.2192H128.488L131.111 32.9667H133.461L124.906 14.572L116.345 32.9667Z" fill="#231F20"/>
<path d="M104.377 28.0745L99.0286 14.5715L92.8474 32.96H95.0928L99.2164 20.5068L104.377 33.5266L109.535 20.5068L113.574 32.9674H115.82L109.724 14.5715L104.377 28.0745Z" fill="#231F20"/>
<path d="M139.992 22.5916C137.024 21.8688 136.032 21.1481 136.032 19.7584C136.032 18.1535 137.479 16.9759 139.487 16.9759C141.382 16.9759 142.798 17.9921 143.097 19.6782L145.176 19.2213C144.989 17.9636 144.403 16.9506 143.44 16.1751C142.397 15.3436 141.112 14.9173 139.57 14.9173C137.989 14.9173 136.618 15.4006 135.53 16.3376C134.429 17.2714 133.87 18.4732 133.87 19.8903C133.87 21.0689 134.248 22.0038 134.999 22.7266C135.794 23.5001 137.134 24.1163 138.976 24.5436C142.156 25.2907 143.255 26.1496 143.255 27.86C143.255 29.7825 141.649 31.1469 139.379 31.1469C137.105 31.1469 135.422 29.7825 135.311 27.725L133.23 28.1829C133.31 29.5705 133.923 30.7459 135.044 31.7103C136.195 32.6716 137.612 33.1517 139.3 33.1517C141.037 33.1517 142.48 32.6452 143.655 31.6555C144.833 30.6393 145.421 29.3541 145.421 27.8315C145.421 25.1345 143.948 23.556 139.992 22.5916Z" fill="#231F20"/>
<path d="M145.679 17.0859H150.792V32.9673H152.928V17.0859H158.034V15.1581H145.679V17.0859Z" fill="#231F20"/>
<path d="M159.689 32.967H170.172V31.0424H161.829V24.9161H169.853V22.9946H161.829V17.0857H170.172V15.1589H159.689V32.967Z" fill="#231F20"/>
<path d="M187.45 15.3769H186.627V18.2702H187.162V15.9805H187.175L188.041 18.2702H188.433L189.297 15.9942L189.312 15.9805V18.2702H189.846V15.3769H189.029L188.244 17.4271L187.45 15.3769ZM186.037 15.3769H183.707V15.8254H184.584V18.2702H185.16V15.8254H186.037V15.3769Z" fill="#231F20"/>
<path d="M174.492 32.931H174.539V17.0855H178.012C180.257 17.0855 181.809 18.3939 181.809 20.4008C181.809 22.4046 180.257 23.7151 178.012 23.7151H175.34L182.933 32.931H185.601L179.296 25.32C180.611 25.32 181.728 24.8367 182.614 23.9019C183.494 22.9638 183.948 21.7894 183.948 20.4008C183.948 18.875 183.44 17.6468 182.449 16.6834C181.38 15.6641 179.962 15.1587 178.201 15.1587H172.394V32.9668H174.492V32.931Z" fill="#231F20"/>
</svg>
