<?xml version="1.0" encoding="UTF-8" standalone="no"?>
<svg width="40px" height="41px" viewBox="0 0 40 41" version="1.1" xmlns="http://www.w3.org/2000/svg" xmlns:xlink="http://www.w3.org/1999/xlink" xmlns:sketch="http://www.bohemiancoding.com/sketch/ns">
    <!-- Generator: Sketch 3.4.2 (15857) - http://www.bohemiancoding.com/sketch -->
    <title>Twitter</title>
    <desc>Created with Sketch.</desc>
    <defs></defs>
    <g id="Page-1" stroke="none" stroke-width="1" fill="none" fill-rule="evenodd" sketch:type="MSPage">
        <g id="Desktop" sketch:type="MSArtboardGroup" transform="translate(-26.000000, -607.000000)">
            <g id="Twitter" sketch:type="MSLayerGroup" transform="translate(26.000000, 607.354499)">
                <rect id="Rectangle-100" fill="#CCCCCC" sketch:type="MSShapeGroup" x="0" y="0" width="40" height="40"></rect>
                <path d="M31.4,14.6 C31.2,23.8 25.4,30.2 16.6,30.6 C13,30.8 10.4,29.6 8,28.2 C10.6,28.6 14,27.6 15.8,26 C13.2,25.8 11.6,24.4 10.8,22.2 C11.6,22.4 12.4,22.2 13,22.2 C10.6,21.4 9,20 8.8,16.8 C9.4,17.2 10.2,17.4 11,17.4 C9.2,16.4 8,12.6 9.4,10.2 C12,13 15.2,15.4 20.4,15.8 C19,10.2 26.6,7.2 29.6,11 C31,10.8 32,10.2 33,9.8 C32.6,11.2 31.8,12 30.8,12.8 C31.8,12.6 32.8,12.4 33.6,12 C33.4,13 32.4,13.8 31.4,14.6 L31.4,14.6 Z" id="Shape" fill="#FFFFFF" sketch:type="MSShapeGroup"></path>
            </g>
        </g>
    </g>
</svg>