<svg xmlns="http://www.w3.org/2000/svg" viewBox="0 0 189.84 115.92"><defs><linearGradient id="New_Gradient_Swatch_2" x1="196.36" y1="202.73" x2="196.36" y2="107.44" gradientUnits="userSpaceOnUse"><stop offset=".37" stop-color="#ffd400"/><stop offset=".4" stop-color="#ffd91d"/><stop offset=".49" stop-color="#ffe45e"/><stop offset=".57" stop-color="#ffed94"/><stop offset=".64" stop-color="#fff5bf"/><stop offset=".71" stop-color="#fffadd"/><stop offset=".77" stop-color="#fffdef"/><stop offset=".81" stop-color="#fffef6"/></linearGradient><style>.cls-3{fill:#ffc709}.cls-4{fill:#fff}.cls-6{fill:#b72126}.cls-7{fill:#a8cf48}.cls-8{fill:#43b049}.cls-10{fill:#851719}.cls-11{fill:#ed1c29}</style></defs><g style="isolation:isolate"><g id="Elements"><path class="cls-3" d="M285.81 138.54a14.79 14.79 0 0 0-10.76-14.23l-75-21.2a14.88 14.88 0 0 0-8.08 0l-74.36 21.17a14.79 14.79 0 0 0-10.74 14.23v33.1a14.8 14.8 0 0 0 10.76 14.24l74.95 21.19a14.75 14.75 0 0 0 8.07 0l74.37-21.17a14.79 14.79 0 0 0 10.74-14.22Z" transform="translate(-101.54 -100.48)"/><path class="cls-4" d="M196.07 109.08a8.15 8.15 0 0 1 2.25.31l74.95 21.2a8.3 8.3 0 0 1 6 7.95v33.11a8.29 8.29 0 0 1-6 7.94l-74.37 21.18a8.27 8.27 0 0 1-2.26.31 8.09 8.09 0 0 1-2.25-.31l-74.95-21.19a8.3 8.3 0 0 1-6-8v-33.1a8.29 8.29 0 0 1 6-8l74.37-21.18a8.67 8.67 0 0 1 2.26-.31m0-1.64a10 10 0 0 0-2.71.37L119 129a9.94 9.94 0 0 0-7.19 9.53v33.1a9.94 9.94 0 0 0 7.21 9.54l75 21.19a9.84 9.84 0 0 0 2.7.38 10 10 0 0 0 2.71-.38l74.37-21.17a10 10 0 0 0 7.19-9.53v-33.12a10 10 0 0 0-7.21-9.54l-75-21.19a9.83 9.83 0 0 0-2.7-.37Z" transform="translate(-101.54 -100.48)"/><path d="M196.66 202.73a9.84 9.84 0 0 1-2.7-.38L119 181.16a9.94 9.94 0 0 1-7.21-9.54v-33.1A9.94 9.94 0 0 1 119 129l74.37-21.18a10 10 0 0 1 2.71-.37 9.83 9.83 0 0 1 2.7.37l75 21.19a10 10 0 0 1 7.21 9.54v33.11a10 10 0 0 1-7.19 9.53l-74.37 21.17a10 10 0 0 1-2.71.38Z" transform="translate(-101.54 -100.48)" fill="url(#New_Gradient_Swatch_2)"/><path class="cls-4" d="M207.84 139.46c-2.66 2.7-6.6 3.5-8.79 3.7a12.54 12.54 0 0 0 .9-.9 23.23 23.23 0 0 0 2-2.66 16.75 16.75 0 0 0 2.94-8.9v-.56a14.79 14.79 0 0 1 6.44-1.14c.08.05.35 6.54-3.49 10.46Zm-14.26-8.54c3.29 2.81 4.56 7.35 4.87 9.9 1.52-1.6 4.81-5.85 4.81-10.77 0-6.33-5.46-11.45-5.56-11.45s-5.45 5-5.55 11.28a11.54 11.54 0 0 1 1.43 1.04Zm-11.08-1.86c-.13.14-.26 6.56 3.61 10.44s10.35 3.61 10.43 3.61.27-6.55-3.61-10.43-10.37-3.68-10.43-3.62Z" transform="translate(-101.54 -100.48)"/><path class="cls-3" d="M196.07 110.37a8.2 8.2 0 0 1 2.25.31l74.94 21.19a8.31 8.31 0 0 1 6 8v33.1a8.29 8.29 0 0 1-6 7.95l-74.37 21.18a8.36 8.36 0 0 1-4.51 0l-74.95-21.19a8.3 8.3 0 0 1-6-8v-33.1a8.29 8.29 0 0 1 6-7.95l74.36-21.18a8.29 8.29 0 0 1 2.27-.31m0-2.93a10 10 0 0 0-2.71.37L119 129a9.94 9.94 0 0 0-7.19 9.53v33.1a9.94 9.94 0 0 0 7.21 9.54l75 21.19a9.84 9.84 0 0 0 2.7.38 10 10 0 0 0 2.71-.38l74.37-21.17a10 10 0 0 0 7.19-9.53v-33.12a10 10 0 0 0-7.21-9.54l-75-21.19a9.83 9.83 0 0 0-2.7-.37Z" transform="translate(-101.54 -100.48)"/><path class="cls-4" d="M196.07 109.08a8.15 8.15 0 0 1 2.25.31l74.95 21.2a8.3 8.3 0 0 1 6 7.95v33.11a8.29 8.29 0 0 1-6 7.94l-74.37 21.18a8.27 8.27 0 0 1-2.26.31 8.09 8.09 0 0 1-2.25-.31l-74.95-21.19a8.3 8.3 0 0 1-6-8v-33.1a8.29 8.29 0 0 1 6-8l74.37-21.18a8.67 8.67 0 0 1 2.26-.31m0-1.64a10 10 0 0 0-2.71.37L119 129a9.94 9.94 0 0 0-7.19 9.53v33.1a9.94 9.94 0 0 0 7.21 9.54l75 21.19a9.84 9.84 0 0 0 2.7.38 10 10 0 0 0 2.71-.38l74.37-21.17a10 10 0 0 0 7.19-9.53v-33.12a10 10 0 0 0-7.21-9.54l-75-21.19a9.83 9.83 0 0 0-2.7-.37Z" transform="translate(-101.54 -100.48)"/><path class="cls-6" d="M272.79 165.58a2.27 2.27 0 1 0 2.3 2.26 2.28 2.28 0 0 0-2.3-2.26Zm0 4.07a1.81 1.81 0 1 1 1.72-1.8 1.73 1.73 0 0 1-1.72 1.8Zm.91-1.19c-.07-.3-.18-.48-.4-.55a.57.57 0 0 0 .24-1 1.24 1.24 0 0 0-.78-.18 5.57 5.57 0 0 0-.86.07v2.2h.52v-.9h.25c.29 0 .42.11.47.35a1.8 1.8 0 0 0 .18.55h.55a2 2 0 0 1-.17-.54Zm-1-.72h-.25v-.65h.29c.33 0 .49.13.49.34s-.23.31-.55.31Z" transform="translate(-101.54 -100.48)"/><path class="cls-4" d="M193.93 129.79c3.35 2.74 3.54 7.06 3.91 9.6 1.48-1.63 5.85-5.76 5.75-10.68-.14-6.32-5.71-11.33-5.8-11.33s-5.35 5.15-5.31 11.4a11.45 11.45 0 0 1 1.45 1.01Z" transform="translate(-101.54 -100.48)"/><path class="cls-7" d="M206.78 138.4c-2.66 2.7-6.6 3.5-8.79 3.7.25-.22.53-.51.89-.9a22 22 0 0 0 2.05-2.66 16.75 16.75 0 0 0 2.94-8.9v-.56a14.79 14.79 0 0 1 6.44-1.14s.31 6.54-3.53 10.46Z" transform="translate(-101.54 -100.48)"/><path class="cls-8" d="M192.52 129.86c3.29 2.81 4.56 7.35 4.87 9.9 1.52-1.6 4.81-5.86 4.81-10.77 0-6.33-5.46-11.45-5.56-11.45s-5.45 5-5.55 11.28a11.54 11.54 0 0 1 1.43 1.04Z" transform="translate(-101.54 -100.48)"/><path d="M181.44 128c-.13.14-.27 6.55 3.61 10.43s10.35 3.62 10.43 3.62.27-6.55-3.61-10.43S181.5 128 181.44 128Zm19.7 1c0 4.08-2.27 7.71-3.91 9.74.07.37.12.72.16 1 1.52-1.6 4.81-5.86 4.81-10.77 0-6.33-5.46-11.45-5.56-11.45a2.4 2.4 0 0 0-.55.47c1.37 1.43 5.05 5.81 5.05 11.01Z" transform="translate(-101.54 -100.48)" fill="#0f8140"/><path class="cls-8" d="M210.3 127.94a3.94 3.94 0 0 0-1.17 0h.11s.32 6.54-3.52 10.46a13.7 13.7 0 0 1-7.56 3.54l-.17.16c2.19-.2 6.13-1 8.79-3.7 3.84-3.92 3.57-10.4 3.52-10.46Zm-24.19 10.49c-3.87-3.88-3.74-10.29-3.61-10.43a7.75 7.75 0 0 0-1.08 0c-.13.14-.27 6.55 3.61 10.43s10.35 3.62 10.43 3.62c-1.97-.11-6.41-.67-9.35-3.62Z" transform="translate(-101.54 -100.48)"/><path class="cls-7" d="M193.58 129.86a11.54 11.54 0 0 0-1.43-1c.08-5.12 3.61-9.42 5-10.81a3.36 3.36 0 0 0-.51-.47c-.21 0-5.45 5-5.55 11.28a11.54 11.54 0 0 1 1.43 1c3.29 2.81 4.56 7.35 4.87 9.9.26-.27.57-.62.9-1-.5-2.65-1.83-6.44-4.71-8.9Z" transform="translate(-101.54 -100.48)"/><path class="cls-4" d="M273.06 154c-.18-4-4.28-5.48-12.35-5.51-7.14 0-11.32 1.25-13.19 4.93a22 22 0 0 0-1.71 4.71 42.21 42.21 0 0 0-1.39 7.54v1.18a4.8 4.8 0 0 0 3.16 4.43c1.68.56 5.41.84 9.36.86 6.63 0 10.86-1 12.46-3.89a23.6 23.6 0 0 0 2.1-5.28 33.28 33.28 0 0 0 1.56-8.97Zm-10.45 5-1 3.73c-.83 3.19-1.84 4.11-4.52 4.1-2.27 0-2.81-1.08-2.85-2a1.48 1.48 0 0 1 0-.29 40.63 40.63 0 0 1 1.09-5.3c1.31-5.15 2-6 4.94-6 2.36 0 2.92 1.09 3 2a17.06 17.06 0 0 1-.66 3.76ZM166 150.07a1.72 1.72 0 0 1 0 .39v.1l-5.37 21.35h-7.46a1.82 1.82 0 0 1-1.84-2.15v-.06l4.91-19.31a1.12 1.12 0 0 0 0-.32c0-.77 2.78-1.34 2-1.43l-.42.42-.42-1.26c.39 0 6.69.46 6.77.46h.07a1.87 1.87 0 0 1 1.68 1.17l.06.19a1.68 1.68 0 0 1 .02.45Zm27.56-1.83h-15.8a25 25 0 0 0-3.32.22 8.74 8.74 0 0 0-6.5 5c-1.76 3.66-3.1 8.69-3 11.22.2 4.08 2.19 5.34 8.88 5.34a11.46 11.46 0 0 0 4.38-.66 6.63 6.63 0 0 0 3.17-2.68c-1.2 4.59-1.95 6.15-5.88 6.15l-11.1-.07-1.1 4.24a1.67 1.67 0 0 0 0 .39 2.12 2.12 0 0 0 .05.44v.12a1.83 1.83 0 0 0 1.68 1.22h14.25a24.74 24.74 0 0 0 3.31-.22 8.69 8.69 0 0 0 6.5-5 24.41 24.41 0 0 0 1.49-4.64c.11-.46 4.72-18.81 4.72-18.81a1.75 1.75 0 0 0 .05-.4 1.81 1.81 0 0 0-1.78-1.86Zm-11 13.16c-.68 2.87-1.81 3.94-4.19 3.94-1.82 0-2.64-.63-2.59-2.26a23.34 23.34 0 0 1 1.21-6.17c1-3.22 1.88-3.84 5.46-3.84h2.15Zm-59.13-15.3a8.38 8.38 0 0 1 .44 2.19l3.31 22a2 2 0 0 0 2.29 1.72h8.87l19.42-30.61a18 18 0 0 1 1.87-2.41 9.73 9.73 0 0 1 5.21-2.87A9.12 9.12 0 0 1 166 136h.07a10 10 0 0 0-3-1.33 14 14 0 0 0-14.41 5.33l-12.27 19.26-1.39-12.75c-.18-1.56-1.24-1.92-2.79-1.89l-7.28-.18-.42.42.21.42c.36 0-1.94-.12-1.7.11l.1.12a2.69 2.69 0 0 1 .31.59m99.25 7.9c-.18-4-4.28-5.48-12.35-5.51-7.14 0-11.32 1.25-13.19 4.93a22.62 22.62 0 0 0-1.72 4.71 43.14 43.14 0 0 0-1.39 7.54 11.78 11.78 0 0 0 0 1.18 4.79 4.79 0 0 0 3.15 4.43c1.68.56 5.42.84 9.36.86 6.63 0 10.86-1 12.47-3.89a24.08 24.08 0 0 0 2.1-5.28 33.28 33.28 0 0 0 1.57-8.97Zm-10.46 5-1 3.73c-.83 3.19-1.85 4.11-4.52 4.1-2.28 0-2.81-1.08-2.86-2v-.29a44.61 44.61 0 0 1 1.09-5.3c1.32-5.15 2-6 4.94-6 2.37 0 2.93 1.09 3 2a17.27 17.27 0 0 1-.65 3.76ZM248 148.27c-2.28 5.91-3 6.2-4.88 6.19h-3.43c-3.19 0-4.27.53-4.92 2.76l-.17.68-3.53 14h-7.54a1.82 1.82 0 0 1-1.84-2.15v-.06l4.92-19.31a1.66 1.66 0 0 0 0-.32c0-.77 2.52-1.34 1.73-1.43h-.21l2.32.63c.45.01 17.55-.99 17.55-.99Z" transform="translate(-101.54 -100.48)"/><path class="cls-6" d="M271.89 152.47c-.18-4-4.29-5.48-12.35-5.51-7.14 0-11.32 1.25-13.19 4.93a22.83 22.83 0 0 0-1.72 4.71 43.14 43.14 0 0 0-1.39 7.54 9.4 9.4 0 0 0 0 1.18 4.79 4.79 0 0 0 3.15 4.43c1.68.56 5.42.84 9.36.86 6.63 0 10.86-1 12.46-3.89a22.94 22.94 0 0 0 2.1-5.28 32.86 32.86 0 0 0 1.58-8.97Zm-10.46 5-1 3.73c-.84 3.19-1.85 4.11-4.52 4.11-2.28 0-2.81-1.09-2.86-2v-.29a42.53 42.53 0 0 1 1.09-5.3c1.31-5.15 2-6 4.94-6 2.37 0 2.92 1.1 3 2a16.45 16.45 0 0 1-.65 3.77Zm-96.65-8.94a1.74 1.74 0 0 1-.05.39v.1l-5.37 21.35h-7.47a1.82 1.82 0 0 1-1.84-2.15v-.06l4.92-19.3a1.86 1.86 0 0 0 0-.33 1.53 1.53 0 0 0-1.39-1.5h-.12v-.33H163a1.85 1.85 0 0 1 1.67 1.17l.06.2a1.61 1.61 0 0 1 .05.46Zm27.61-1.83h-15.81a24.86 24.86 0 0 0-3.31.22 8.73 8.73 0 0 0-6.5 5c-1.76 3.66-3.1 8.69-3 11.22.19 4.09 2.19 5.34 8.87 5.34a11.51 11.51 0 0 0 4.39-.65 6.71 6.71 0 0 0 3.17-2.69v.05c-1.21 4.59-2 6.16-5.88 6.16l-11.1-.07-1.11 4.1a1.74 1.74 0 0 0-.05.39 1.61 1.61 0 0 0 .06.44v.12a1.85 1.85 0 0 0 1.69 1.23h14.24a23.39 23.39 0 0 0 3.32-.23 8.72 8.72 0 0 0 6.5-5 24.17 24.17 0 0 0 1.48-4.64c.12-.46 4.73-18.81 4.73-18.81a1.72 1.72 0 0 0 0-.39 1.81 1.81 0 0 0-1.69-1.79Zm-11 13.16c-.67 2.88-1.81 3.95-4.18 3.95-1.83 0-2.64-.63-2.6-2.27a23.77 23.77 0 0 1 1.21-6.17c1-3.22 1.88-3.84 5.46-3.84h2.15Z" transform="translate(-101.54 -100.48)"/><path class="cls-6" d="M122.25 144.56a8.38 8.38 0 0 1 .44 2.19l3.31 22a2 2 0 0 0 2.3 1.71h8.87l19.41-30.6a17.53 17.53 0 0 1 1.88-2.42 9.73 9.73 0 0 1 5.21-2.87 8.78 8.78 0 0 1 1.15-.11h.06a10 10 0 0 0-3-1.33 14 14 0 0 0-14.38 5.36l-12.26 19.26-1.42-12.75c-.18-1.56-1.23-1.92-2.78-1.89h-10.23v.33h.13a1.58 1.58 0 0 1 .92.43l.09.12a2.32 2.32 0 0 1 .31.59m99.24 7.89c-.18-4-4.28-5.48-12.35-5.51-7.14 0-11.32 1.25-13.18 4.93a21.72 21.72 0 0 0-1.72 4.71 42.21 42.21 0 0 0-1.39 7.54v1.18a4.8 4.8 0 0 0 3.16 4.43c1.68.56 5.41.84 9.36.86 6.63 0 10.86-1 12.46-3.89a23.4 23.4 0 0 0 2.1-5.28 32.76 32.76 0 0 0 1.56-8.97Zm-10.45 5-1 3.73c-.83 3.19-1.84 4.11-4.52 4.11-2.27 0-2.8-1.09-2.85-2a1.48 1.48 0 0 1 0-.29 40.63 40.63 0 0 1 1.09-5.3c1.31-5.15 2-6 4.94-6 2.37 0 2.92 1.1 3 2a17.06 17.06 0 0 1-.66 3.77Zm35.79-10.74c-2.28 5.91-3 6.2-4.88 6.19h-3.43c-3.19 0-4.26.53-4.92 2.76l-.17.68-3.52 14h-7.54a1.82 1.82 0 0 1-1.84-2.15v-.06l4.91-19.3a1.24 1.24 0 0 0 0-.33 1.53 1.53 0 0 0-1.38-1.5H224v-.32l22.84.03Z" transform="translate(-101.54 -100.48)"/><path class="cls-10" d="m132.82 145 1.63 14.41.9-1.42-1.53-13c-.18-1.56-1.23-1.92-2.78-1.89h-.68c1.37.01 2.3.42 2.46 1.9Zm47.48 6.53c-3.58 0-4.45.62-5.46 3.84a23.77 23.77 0 0 0-1.21 6.17c0 1.64.78 2.26 2.6 2.27h.51c-1.48-.12-2.15-.77-2.11-2.25a23.77 23.77 0 0 1 1.21-6.17c1-3.22 1.88-3.84 5.46-3.84h-1Zm22.46 6.2a40.63 40.63 0 0 0-1.09 5.3v.29c.05.92.58 2 2.85 2h.56c-1.9-.14-2.37-1.13-2.41-2a1.48 1.48 0 0 1 0-.29 40.63 40.63 0 0 1 1.09-5.3c1.22-4.78 1.9-5.84 4.35-6h-.41c-2.94.02-3.63.85-4.94 6Zm50.38 0a44.61 44.61 0 0 0-1.09 5.3v.29c.05.92.58 2 2.86 2h.56c-1.91-.14-2.37-1.13-2.42-2v-.29a42.53 42.53 0 0 1 1.09-5.3c1.22-4.78 1.91-5.84 4.36-6h-.42c-2.93.02-3.63.85-4.94 6Z" transform="translate(-101.54 -100.48)"/><path class="cls-10" d="M221.5 152.47c-.18-4-4.28-5.48-12.35-5.51h-.58c7.79.08 11.76 1.55 11.93 5.51a32.76 32.76 0 0 1-1.58 9 23.4 23.4 0 0 1-2.1 5.28c-1.55 2.78-5.58 3.85-11.85 3.89h.39c6.63 0 10.86-1 12.46-3.89a23.4 23.4 0 0 0 2.1-5.28 32.76 32.76 0 0 0 1.58-9Zm-63.04-15.05a9.73 9.73 0 0 1 5.21-2.87 8.78 8.78 0 0 1 1.15-.11l.07-.1a9.83 9.83 0 0 0-3-1.22 14.81 14.81 0 0 0-3.6-.33 14.57 14.57 0 0 1 2.6.33 10 10 0 0 1 3 1.33h-.06a9 9 0 0 0-1.15.11 9.73 9.73 0 0 0-5.21 2.87 16.73 16.73 0 0 0-1.87 2.42l-19.42 30.6h1l19.41-30.6a17.53 17.53 0 0 1 1.87-2.43Zm88.38 9.31h-22.85 21.85c-2.2 5.71-2.94 6.17-4.69 6.19h.85c1.85.01 2.56-.28 4.84-6.19Zm25.05 5.74c-.18-4-4.29-5.48-12.35-5.51H259c7.79.08 11.76 1.55 11.94 5.51a32.86 32.86 0 0 1-1.59 9 22.94 22.94 0 0 1-2.1 5.28c-1.55 2.78-5.57 3.85-11.85 3.89h.39c6.63 0 10.86-1 12.46-3.89a22.94 22.94 0 0 0 2.1-5.28 32.86 32.86 0 0 0 1.54-9Zm-34.36.45c-3.19 0-4.26.53-4.92 2.76l-.17.68-3.52 14h1l3.52-14 .17-.68c.65-2.21 1.72-2.75 4.85-2.76Zm-72.8-4a1.74 1.74 0 0 0 .05-.39 1.61 1.61 0 0 0-.06-.44l-.06-.2a1.85 1.85 0 0 0-1.67-1.17h-1a1.85 1.85 0 0 1 1.67 1.17l.06.2a1.61 1.61 0 0 1 .06.44 2.58 2.58 0 0 1 0 .39v.1l-5.37 21.35h1l5.3-21.37Zm29.43-.43a1.81 1.81 0 0 0-1.77-1.79h-1a1.81 1.81 0 0 1 1.77 1.79 1.72 1.72 0 0 1 0 .39s-4.61 18.35-4.73 18.81a24.17 24.17 0 0 1-1.48 4.64 8.72 8.72 0 0 1-6.5 5 24.81 24.81 0 0 1-3.31.23h1a23.39 23.39 0 0 0 3.32-.23 8.72 8.72 0 0 0 6.5-5 24.17 24.17 0 0 0 1.48-4.64c.12-.46 4.73-18.81 4.73-18.81a1.72 1.72 0 0 0-.01-.39Zm-21.25 20.02a14.87 14.87 0 0 0 5.22-.86 6.34 6.34 0 0 0 1.43-.8l.29-.22c.14-.49.38-1 .53-1.58l-.08-.12c-.16.24-.31.5-.48.71a6.52 6.52 0 0 1-2.68 2 12.81 12.81 0 0 1-4.23.87Z" transform="translate(-101.54 -100.48)"/><path class="cls-11" d="M163.79 163.17c.19 4.09 2.19 5.34 8.87 5.34h.49c-6.27-.07-8.17-1.36-8.36-5.34-.12-2.53 1.21-7.56 3-11.22a8.73 8.73 0 0 1 6.5-5 24.29 24.29 0 0 1 3.28-.22h-1a24.86 24.86 0 0 0-3.31.22 8.73 8.73 0 0 0-6.5 5c-1.76 3.66-3.09 8.69-2.97 11.22Zm17.07 2.3s-.55-.54-.58-.54-.38 1.45-.52 1.9c-1 3.29-2 4.49-5.24 4.54h.81c3.93.01 4.32-1.31 5.53-5.9Zm-46.34-5.19 14-21.8c2.51-3.39 6.36-5.94 10.78-5.69a14 14 0 0 0-11.78 5.69l-13.1 20.46Zm-5.22 10.16a2 2 0 0 1-2.3-1.71l-3.31-22a8.38 8.38 0 0 0-.44-2.19 2.32 2.32 0 0 0-.31-.59l-.1-.12a1.56 1.56 0 0 0-.91-.43h-.13v-.33h-1v.33h.13a1.58 1.58 0 0 1 .92.43l.09.12a2.32 2.32 0 0 1 .31.59 8.38 8.38 0 0 1 .44 2.19l3.31 22a2 2 0 0 0 2.3 1.71Zm53.07-10.58 2-8.33h-1l-2 8.33c-.62 2.66-1.64 3.77-3.67 3.93h.49c2.37.02 3.51-1.05 4.18-3.93Zm79.04 1.36 1-3.73a16.45 16.45 0 0 0 .61-3.73c0-.91-.59-2-3-2h-.58c2 .12 2.51 1.13 2.54 2a16.45 16.45 0 0 1-.61 3.73l-1 3.73c-.78 3-1.7 4-4 4.09h.44c2.76.02 3.77-.9 4.6-4.09Zm-50.41 0 1-3.73a16.65 16.65 0 0 0 .62-3.73c0-.91-.6-2-3-2h-.59c2 .12 2.51 1.13 2.55 2a17.06 17.06 0 0 1-.61 3.73l-1 3.73c-.77 3-1.7 4-4 4.09h.44c2.78.02 3.79-.9 4.59-4.09Zm12.38 9.15a1.82 1.82 0 0 1-1.84-2.15v-.06l4.91-19.3a1.24 1.24 0 0 0 0-.33 1.53 1.53 0 0 0-1.38-1.5H225v-.32h-1v.29h.13a1.53 1.53 0 0 1 1.38 1.5 1.24 1.24 0 0 1 0 .33l-4.91 19.3v.06a1.82 1.82 0 0 0 1.84 2.15h1Zm16.15-17.45Zm-86.66 17.45a1.82 1.82 0 0 1-1.84-2.15v-.06l4.92-19.3a1.84 1.84 0 0 0 0-.33 1.52 1.52 0 0 0-1.38-1.5h-.12v-.32h-1v.29h.12a1.53 1.53 0 0 1 1.39 1.5 1.86 1.86 0 0 1 0 .33L150 168.16v.06a1.82 1.82 0 0 0 1.84 2.15h1Z" transform="translate(-101.54 -100.48)"/><path class="cls-11" d="M247.38 169.75a4.8 4.8 0 0 1-3.16-4.43v-1.18a42.21 42.21 0 0 1 1.39-7.54 22.26 22.26 0 0 1 1.72-4.71c1.81-3.57 5.82-4.89 12.6-4.93h-.41c-7.14 0-11.32 1.25-13.19 4.93a22.83 22.83 0 0 0-1.72 4.71 43.14 43.14 0 0 0-1.39 7.54 9.4 9.4 0 0 0 0 1.18 4.79 4.79 0 0 0 3.15 4.43c1.68.56 5.42.84 9.36.86h.61c-3.79-.04-7.34-.32-8.96-.86Zm-82.54 7.84a1.85 1.85 0 0 1-1.68-1.23v-.12a1.61 1.61 0 0 1-.06-.44 1.74 1.74 0 0 1 .05-.39l1.1-4.1h-1l-1.11 4.1a1.74 1.74 0 0 0-.05.39 1.61 1.61 0 0 0 .06.44v.12a1.85 1.85 0 0 0 1.69 1.23Zm32.16-7.84a4.8 4.8 0 0 1-3.16-4.43v-1.18a42.21 42.21 0 0 1 1.39-7.54 22.21 22.21 0 0 1 1.71-4.71c1.82-3.57 5.83-4.89 12.61-4.93h-.42c-7.14 0-11.32 1.25-13.18 4.93a21.72 21.72 0 0 0-1.72 4.71 42.21 42.21 0 0 0-1.39 7.54v1.18a4.8 4.8 0 0 0 3.16 4.43c1.68.56 5.41.84 9.36.86h.64c-3.83-.04-7.38-.32-9-.86Z" transform="translate(-101.54 -100.48)"/></g></g></svg>