<?xml version="1.0" encoding="UTF-8" standalone="no"?>
<svg width="39px" height="40px" viewBox="0 0 39 40" version="1.1" xmlns="http://www.w3.org/2000/svg" xmlns:xlink="http://www.w3.org/1999/xlink" xmlns:sketch="http://www.bohemiancoding.com/sketch/ns">
    <!-- Generator: Sketch 3.4.2 (15857) - http://www.bohemiancoding.com/sketch -->
    <title>Youtube</title>
    <desc>Created with Sketch.</desc>
    <defs></defs>
    <g id="Page-1" stroke="none" stroke-width="1" fill="none" fill-rule="evenodd" sketch:type="MSPage">
        <g id="Desktop" sketch:type="MSArtboardGroup" transform="translate(-20.000000, -763.000000)">
            <g id="Youtube" sketch:type="MSLayerGroup" transform="translate(20.000000, 763.136249)">
                <rect id="Rectangle-104" fill="#CCCCCC" sketch:type="MSShapeGroup" x="0.624349636" y="0.604301075" width="37.4609781" height="38.7096774"></rect>
                <g id="Imported-Layers-2" transform="translate(8.289976, 7.055914)" fill="#FFFFFF" sketch:type="MSShapeGroup">
                    <path d="M16.7719318,9.63416422 L15.5107798,9.63416422 L15.5107798,8.85175953 C15.0326477,9.43900293 14.6274533,9.73548387 14.1855848,9.73548387 C13.7980433,9.73548387 13.5287348,9.53958944 13.3940806,9.18548387 C13.3121111,8.97038123 13.2539526,8.63431085 13.2539526,8.14061584 L13.2539526,2.45073314 L14.5151046,2.45073314 L14.5151046,7.78504399 L14.5151046,8.28269795 C14.544526,8.48240469 14.6236217,8.55542522 14.7840026,8.55542522 C15.025395,8.55542522 15.2439344,8.33064516 15.5107798,7.92727273 L15.5107798,2.45073314 L16.7719318,2.45073314 L16.7719318,9.63416422" id="Fill-1"></path>
                    <path d="M12.3246466,4.79780059 C12.3246466,4.03020528 12.1808238,3.45366569 11.9264313,3.09090909 C11.5904799,2.59956012 11.0634946,2.3983871 10.5325408,2.3983871 C9.931523,2.3983871 9.47405433,2.59956012 9.13865028,3.09090909 C8.88028927,3.45366569 8.74166655,4.03636364 8.74166655,4.80410557 L8.74043495,7.35821114 C8.74043495,8.12155425 8.86373118,8.64897361 9.12209219,9.00821114 C9.45749623,9.49809384 10.0014502,9.75762463 10.5325408,9.75762463 C11.0634946,9.75762463 11.6170275,9.49809384 11.952979,9.00821114 C12.2073715,8.64897361 12.3246466,8.12155425 12.3246466,7.35821114 L12.3246466,4.79780059 L12.3246466,4.79780059 Z M11.0634946,7.50043988 C11.1300006,8.21173021 10.9240508,8.56451613 10.5324039,8.56451613 C10.140894,8.56451613 9.93521779,8.21173021 10.0014502,7.50043988 L10.0014502,4.65557185 C9.93521779,3.94428152 10.140894,3.61099707 10.5325408,3.61099707 C10.9241876,3.61099707 11.1306848,3.94428152 11.0641788,4.65557185 L11.0634946,7.50043988 L11.0634946,7.50043988 Z" id="Fill-2"></path>
                    <path d="M7.34654446,5.72228739 L7.34654446,9.63416422 L6.01888634,9.63416422 L6.01888634,5.72228739 C6.01902318,5.72228739 4.64333291,0.926539589 4.35951896,0.0326979472 L5.75340945,0.0326979472 L6.68504174,3.77903226 L7.61202134,0.0326979472 L9.00591184,0.0326979472 L7.34654446,5.72228739" id="Fill-3"></path>
                    <path d="M17.9115666,17.7840176 C17.9115666,17.1268328 17.7529647,16.9291789 17.3546125,16.9291789 C16.9532498,16.9291789 16.783153,17.1104106 16.783153,17.7752199 L16.783153,18.5618768 L17.9115666,18.5604106 L17.9115666,17.7840176" id="Fill-4"></path>
                    <path d="M12.9612438,16.9291789 C12.7635045,16.9291789 12.5368913,17.0412023 12.3360046,17.2536657 L12.3344994,21.5668622 C12.5355228,21.7822581 12.7635045,21.891349 12.9612438,21.891349 C13.307869,21.891349 13.4642814,21.6186217 13.4642814,20.9076246 L13.4642814,17.8492669 C13.4642814,17.1379765 13.307869,16.9291789 12.9612438,16.9291789" id="Fill-5"></path>
                    <path d="M20.6357153,14.1444282 C20.6357153,14.1444282 20.4419445,12.68739 19.8477689,12.0457478 C19.0941704,11.2038123 18.2491602,11.1995601 17.8617555,11.1502933 C15.0882063,10.9363636 10.9277455,10.9363636 10.9277455,10.9363636 L10.9191244,10.9363636 C10.9191244,10.9363636 6.75852684,10.9363636 3.9849776,11.1502933 C3.59743608,11.1995601 2.75283642,11.2038123 1.99896417,12.0457478 C1.40465174,12.68739 1.21129151,14.1444282 1.21129151,14.1444282 C1.21129151,14.1444282 1.01300491,15.8552786 1.01300491,17.566129 L1.01300491,19.170088 C1.01300491,20.8809384 1.21129151,22.5917889 1.21129151,22.5917889 C1.21129151,22.5917889 1.40465174,24.048827 1.99896417,24.6904692 C2.75283642,25.5325513 3.74344837,25.5057185 4.18449579,25.5939883 C5.77010439,25.756305 10.9233665,25.8064516 10.9233665,25.8064516 C10.9233665,25.8064516 15.0882063,25.7998534 17.8617555,25.5860704 C18.2491602,25.5366569 19.0941704,25.5325513 19.8477689,24.6904692 C20.4419445,24.048827 20.6357153,22.5917889 20.6357153,22.5917889 C20.6357153,22.5917889 20.8337282,20.8809384 20.8337282,19.170088 L20.8337282,17.566129 C20.8337282,15.8552786 20.6357153,14.1444282 20.6357153,14.1444282 L20.6357153,14.1444282 Z M5.36641531,22.970088 L4.03889404,22.970088 L4.03889404,14.7910557 L2.64500354,14.7910557 L2.64500354,13.4412023 L6.82667503,13.4395894 L6.82667503,14.7910557 L5.36641531,14.7910557 L5.36641531,22.970088 L5.36641531,22.970088 Z M10.1455466,22.970088 L8.88425774,22.970088 L8.88425774,22.1876833 C8.4062625,22.7749267 8.0009313,23.0715543 7.55919965,23.0715543 C7.17152129,23.0715543 6.90234963,22.8756598 6.76755853,22.5215543 C6.68558912,22.306305 6.62756736,21.9702346 6.62756736,21.4765396 L6.62756736,15.8577713 L7.88871942,15.8577713 L7.88871942,21.1209677 L7.88871942,21.6186217 C7.91814083,21.8183284 7.99723652,21.891349 8.1576174,21.891349 C8.39900978,21.891349 8.61741242,21.6665689 8.88425774,21.2631965 L8.88425774,15.8577713 L10.1455466,15.8577713 L10.1455466,22.970088 L10.1455466,22.970088 Z M14.7254335,20.8363636 C14.7254335,21.493695 14.6730223,21.9576246 14.592695,22.2589443 C14.4323141,22.7872434 14.0826783,23.0617302 13.6042726,23.0617302 C13.1769095,23.0617302 12.7391463,22.786217 12.3376468,22.2539589 L12.3360046,22.970088 L11.1412218,22.970088 L11.1412218,13.4395894 L12.3360046,13.4395894 L12.3344994,16.5469208 C12.7227251,16.035044 13.1621304,15.7438416 13.6042726,15.7438416 C14.0826783,15.7438416 14.404398,16.0400293 14.5647789,16.5721408 C14.6449693,16.8582111 14.7254335,17.3183284 14.7254335,17.9914956 L14.7254335,20.8363636 L14.7254335,20.8363636 Z M17.3656969,21.891349 C17.6615531,21.891349 17.8339762,21.718915 17.9026718,21.3746334 C17.9137561,21.3045455 17.9115666,20.9973607 17.9115666,20.4807918 L19.1727187,20.4807918 L19.1727187,20.6824047 C19.1727187,21.0973607 19.1408341,21.3910557 19.1301603,21.5199413 C19.0895177,21.8052786 18.9950955,22.0636364 18.8489464,22.291349 C18.5165529,22.807478 18.0235048,23.0617302 17.3956657,23.0617302 C16.7668686,23.0617302 16.2884628,22.8193548 15.9410165,22.3337243 C15.6858029,21.9781525 15.522001,21.4494135 15.522001,20.6941349 L15.522001,18.2048387 C15.522001,17.4453079 15.6710238,16.8582111 15.9262374,16.4985337 C16.2738206,16.0121701 16.7523632,15.7548387 17.3656969,15.7548387 C17.9686305,15.7548387 18.4470362,16.0121701 18.7839456,16.4985337 C19.0351907,16.8582111 19.1747713,17.413783 19.1747713,18.1733138 L19.175045,19.6272727 L16.783153,19.6272727 L16.783153,20.9045455 C16.7790477,21.5608504 16.9532498,21.891349 17.3656969,21.891349 L17.3656969,21.891349 Z" id="Fill-6"></path>
                </g>
            </g>
        </g>
    </g>
</svg>